<?xml version="1.0" encoding="utf-8"?>
<svg version="1.1" xmlns:cc="http://creativecommons.org/ns#" xmlns:dc="http://purl.org/dc/elements/1.1/" xmlns:rdf="http://www.w3.org/1999/02/22-rdf-syntax-ns#" xmlns="http://www.w3.org/2000/svg" xmlns:xlink="http://www.w3.org/1999/xlink" x="0px" y="0px" viewBox="0 0 1024 768" xml:space="preserve">
<defs>
<filter id="filter" x="-50%" y="-50%" width="200%" height="200%">
	<feFlood flood-color="#ffffff" result="flood-white" />
	<feFlood flood-color="#bd9698" result="flood-accent">
		<animate 
             attributeName="flood-color"
             dur="6s" 
             repeatCount="indefinite"
             keyTimes="0;
                       0.25;
                       0.5;
                       0.75;
                       1"

             values="#568ae0;
                     #788ec8;
                     #9a92b0;
                     #bd9698; #568ae0"/>
	</feFlood>
	
	<feComposite operator="out" in="flood-accent" in2="SourceAlpha" result="comp" />
	<feMorphology in="comp" result="comp" operator="dilate" radius="4" />
	<feGaussianBlur in="comp" result="comp" stdDeviation="5" />
	<feComposite operator="in" in="comp" in2="SourceAlpha" result="comp" />
	
	<feComposite operator="in" in="flood-white" in2="SourceAlpha" result="comp2" />
	<feMorphology in="comp2" result="comp2" operator="erode" radius="3" />
	<feGaussianBlur in="comp2" result="comp2" stdDeviation="4">
		<animate attributeName="stdDeviation" values="4;6;4" dur="3s" calcMode="spline"	keySplines=".73 .18 .24 .87; .73 .18 .24 .87;" repeatCount="indefinite" /> 
	</feGaussianBlur>
	<feBlend in="comp" in2="comp2" result="output" mode="screen" />
</filter>

 <filter id="glow" x="-50%" y="-50%" width="200%" height="200%">
  <feGaussianBlur in="SourceGraphic" stdDeviation="12" />
</filter> 
<filter id="glow2" x="-100%" y="-100%" width="300%" height="300%">
  <feGaussianBlur in="SourceGraphic" stdDeviation="50" />
</filter>
<filter id="shadow" x="-50%" y="-50%" width="200%" height="200%">
  <feGaussianBlur in="SourceGraphic" stdDeviation="4" />
</filter>
</defs>
<path d="m296.69 324.21c-0.29 0-0.71 0.02-0.94 0.04-0.23 0.01-0.67 0.07-0.97 0.12-0.31 0.05-0.78 0.14-1.06 0.21-0.27 0.07-0.73 0.2-1.01 0.29-0.29 0.09-0.75 0.26-1.02 0.37-0.28 0.12-0.75 0.33-1.06 0.49-0.3 0.15-0.74 0.39-0.97 0.53-0.23 0.13-0.64 0.4-0.92 0.59-0.27 0.18-0.68 0.47-0.89 0.64-0.22 0.17-0.56 0.44-0.75 0.61-0.2 0.16-0.62 0.54-0.94 0.84s-0.83 0.82-1.14 1.15c-0.3 0.33-0.76 0.85-1 1.14-0.25 0.3-0.7 0.87-1 1.27s-0.77 1.08-1.06 1.5c-0.28 0.43-0.66 1.01-0.84 1.3-0.17 0.29-0.49 0.83-0.71 1.21-0.21 0.37-0.59 1.06-0.84 1.52-0.24 0.47-0.63 1.24-0.86 1.73s-0.58 1.26-0.78 1.7c-0.19 0.45-0.51 1.2-0.7 1.67s-0.49 1.26-0.68 1.76c-0.18 0.49-0.5 1.38-0.69 1.96-0.2 0.58-0.48 1.45-0.63 1.93s-0.4 1.33-0.56 1.88-0.4 1.43-0.54 1.96-0.33 1.28-0.42 1.67-0.26 1.12-0.38 1.62c-0.11 0.51-0.3 1.43-0.43 2.05-0.12 0.62-0.31 1.59-0.42 2.17-0.1 0.57-0.25 1.44-0.33 1.93-0.08 0.5-0.21 1.34-0.29 1.88s-0.21 1.5-0.3 2.13c-0.08 0.63-0.2 1.64-0.27 2.25s-0.18 1.72-0.25 2.48-0.16 1.89-0.21 2.52c-0.04 0.63-0.1 1.46-0.12 1.84s-0.07 1.29-0.1 2.02c-0.04 0.74-0.09 2.12-0.12 3.09-0.03 1.1-0.03 2.92-0.02 4.92 0.01 1.74 0.04 3.62 0.07 4.17 0.02 0.55 0.07 1.56 0.11 2.25 0.03 0.69 0.11 1.9 0.16 2.69 0.06 0.79 0.16 2.06 0.23 2.81 0.07 0.76 0.17 1.79 0.23 2.3 0.05 0.5 0.09 0.92 0.09 0.93-0.01 0-0.4-0.08-0.87-0.18-0.46-0.11-1.38-0.32-2.03-0.48s-1.64-0.42-2.19-0.57-1.41-0.4-1.9-0.54c-0.49-0.15-1.27-0.4-1.73-0.55s-1.26-0.42-1.77-0.6c-0.52-0.19-1.38-0.51-1.92-0.72s-1.25-0.51-1.59-0.65c-0.33-0.14-1.01-0.44-1.5-0.67s-1.3-0.63-1.8-0.9c-0.5-0.26-1.24-0.66-1.63-0.9-0.39-0.23-1.04-0.63-1.44-0.89-0.4-0.27-1-0.69-1.34-0.94-0.33-0.26-0.73-0.57-0.88-0.69-0.15-0.13-0.49-0.44-0.77-0.68-0.27-0.25-0.7-0.68-0.95-0.95-0.24-0.27-0.56-0.64-0.7-0.82-0.14-0.19-0.39-0.53-0.55-0.77-0.16-0.25-0.41-0.68-0.55-0.97-0.14-0.3-0.33-0.74-0.41-1s-0.18-0.64-0.22-0.85c-0.05-0.25-0.08-0.58-0.08-1.02 0-0.45 0.03-0.76 0.08-1.02 0.04-0.2 0.14-0.57 0.22-0.81s0.25-0.67 0.39-0.94c0.13-0.28 0.37-0.7 0.53-0.94s0.4-0.59 0.54-0.77 0.45-0.55 0.7-0.82 0.7-0.72 1.01-1.01c0.31-0.28 0.82-0.72 1.14-0.97 0.32-0.26 0.88-0.67 1.24-0.92s1.01-0.68 1.45-0.95c0.57-0.36 0.88-0.59 1.12-0.81 0.18-0.18 0.42-0.46 0.53-0.63s0.26-0.45 0.33-0.62c0.07-0.18 0.17-0.49 0.21-0.69 0.04-0.21 0.08-0.55 0.08-0.76 0-0.2-0.04-0.54-0.08-0.75s-0.14-0.52-0.21-0.69-0.22-0.46-0.33-0.63c-0.12-0.17-0.37-0.46-0.56-0.64s-0.45-0.39-0.58-0.47-0.38-0.2-0.56-0.28-0.48-0.17-0.68-0.21c-0.26-0.05-0.48-0.06-0.89-0.05-0.31 0.01-0.65 0.05-0.78 0.09-0.13 0.03-0.34 0.1-0.47 0.15s-0.53 0.26-0.88 0.48c-0.35 0.21-0.95 0.59-1.34 0.85s-0.95 0.66-1.25 0.87c-0.3 0.22-0.8 0.61-1.13 0.87-0.32 0.26-0.84 0.7-1.16 0.99-0.33 0.28-0.91 0.84-1.3 1.24s-0.91 0.98-1.15 1.27c-0.24 0.3-0.62 0.78-0.83 1.08-0.21 0.29-0.53 0.77-0.71 1.06-0.17 0.29-0.43 0.74-0.57 1.01-0.14 0.26-0.36 0.74-0.5 1.06s-0.33 0.82-0.42 1.11c-0.1 0.28-0.23 0.73-0.3 1s-0.17 0.76-0.23 1.11c-0.06 0.34-0.13 0.96-0.16 1.38-0.03 0.59-0.03 0.94 0.01 1.53 0.02 0.43 0.09 1.04 0.15 1.37 0.05 0.33 0.15 0.79 0.21 1.03s0.18 0.67 0.28 0.95c0.09 0.28 0.25 0.73 0.37 1 0.11 0.28 0.31 0.73 0.45 1.01 0.14 0.27 0.38 0.71 0.53 0.97 0.16 0.26 0.39 0.64 0.53 0.84 0.14 0.21 0.39 0.57 0.56 0.8 0.18 0.23 0.49 0.62 0.7 0.87 0.21 0.26 0.59 0.69 0.85 0.96 0.26 0.28 0.73 0.75 1.06 1.06 0.32 0.31 0.88 0.8 1.24 1.1 0.35 0.29 0.93 0.76 1.29 1.02 0.36 0.27 1.07 0.77 1.59 1.12 0.51 0.34 1.25 0.82 1.64 1.05s1 0.58 1.36 0.78c0.35 0.2 1.12 0.6 1.71 0.89 0.58 0.3 1.4 0.69 1.81 0.88s1.16 0.52 1.67 0.73c0.5 0.21 1.33 0.55 1.83 0.74 0.51 0.2 1.43 0.54 2.05 0.76 0.62 0.21 1.6 0.54 2.19 0.73 0.58 0.18 1.48 0.45 2 0.6 0.51 0.15 1.42 0.4 2.02 0.56s1.6 0.42 2.23 0.57 1.6 0.37 2.15 0.48c0.55 0.12 1.46 0.31 2.02 0.42l1.02 0.2 0.02 0.1c0 0.05 0.13 0.71 0.28 1.45 0.15 0.75 0.38 1.85 0.52 2.46s0.4 1.69 0.58 2.4 0.44 1.7 0.58 2.21c0.14 0.5 0.38 1.32 0.53 1.81 0.15 0.5 0.44 1.4 0.64 2.01 0.2 0.6 0.49 1.45 0.65 1.87 0.15 0.43 0.49 1.31 0.75 1.96s0.64 1.58 0.85 2.07c0.21 0.48 0.66 1.42 0.99 2.09 0.32 0.68 0.79 1.57 1.02 2 0.24 0.43 0.63 1.12 0.87 1.53 0.25 0.42 0.73 1.18 1.07 1.69 0.35 0.52 0.86 1.24 1.13 1.61 0.28 0.37 0.75 0.96 1.04 1.31 0.3 0.36 0.78 0.9 1.06 1.2s0.76 0.78 1.06 1.06 0.76 0.69 1.02 0.91 0.69 0.55 0.94 0.74 0.65 0.46 0.88 0.61 0.6 0.37 0.83 0.51c0.22 0.13 0.61 0.34 0.86 0.46 0.25 0.13 0.68 0.32 0.96 0.43 0.27 0.12 0.73 0.29 1.02 0.38 0.29 0.1 0.76 0.23 1.04 0.29 0.28 0.07 0.74 0.16 1.02 0.21 0.29 0.05 0.86 0.11 1.28 0.13 0.6 0.04 0.93 0.04 1.53 0 0.43-0.02 1.04-0.09 1.37-0.15 0.33-0.05 0.8-0.15 1.03-0.21 0.24-0.06 0.67-0.18 0.95-0.28 0.28-0.09 0.73-0.25 1.01-0.37 0.27-0.11 0.71-0.31 0.97-0.44s0.67-0.35 0.91-0.48c0.24-0.14 0.63-0.39 0.87-0.55s0.63-0.43 0.86-0.6 0.62-0.49 0.88-0.7c0.25-0.21 0.68-0.59 0.95-0.85 0.28-0.25 0.75-0.73 1.06-1.06 0.31-0.32 0.8-0.88 1.09-1.23s0.76-0.93 1.02-1.29c0.27-0.36 0.74-1.02 1.04-1.47 0.31-0.45 0.73-1.1 0.95-1.46 0.22-0.35 0.6-1 0.84-1.44 0.25-0.43 0.7-1.29 1-1.89 0.31-0.61 0.72-1.45 0.91-1.86 0.18-0.41 0.51-1.16 0.72-1.67 0.22-0.5 0.55-1.33 0.75-1.83 0.19-0.51 0.53-1.43 0.75-2.05s0.54-1.6 0.73-2.18c0.18-0.59 0.5-1.63 0.7-2.32 0.19-0.69 0.52-1.91 0.72-2.71s0.49-2.01 0.64-2.69 0.38-1.75 0.51-2.39 0.23-1.2 0.23-1.24c0-0.05 0.02-0.09 0.05-0.1s0.47-0.09 0.97-0.19c0.51-0.09 1.48-0.29 2.17-0.44s1.82-0.41 2.52-0.58c0.7-0.18 1.76-0.45 2.35-0.61 0.6-0.16 1.59-0.44 2.2-0.63 0.6-0.18 1.66-0.51 2.33-0.74 0.68-0.23 1.64-0.56 2.13-0.74 0.49-0.19 1.27-0.49 1.73-0.67 0.46-0.19 1.12-0.46 1.46-0.61 0.34-0.14 0.92-0.4 1.29-0.57 0.37-0.16 1.1-0.51 1.63-0.78 0.53-0.26 1.29-0.66 1.69-0.88 0.4-0.21 1.05-0.59 1.46-0.83 0.4-0.24 0.96-0.59 1.25-0.78 0.28-0.18 0.73-0.48 1-0.66 0.26-0.18 0.76-0.54 1.1-0.8 0.35-0.26 0.92-0.72 1.27-1.01 0.36-0.3 0.91-0.79 1.22-1.08 0.32-0.3 0.79-0.77 1.06-1.06s0.67-0.74 0.89-1 0.55-0.69 0.74-0.94c0.18-0.25 0.43-0.6 0.54-0.77 0.12-0.17 0.34-0.52 0.49-0.78s0.39-0.7 0.53-0.97c0.14-0.28 0.34-0.73 0.46-1.01 0.11-0.27 0.28-0.73 0.37-1.02 0.1-0.29 0.23-0.75 0.29-1.04 0.07-0.28 0.16-0.74 0.21-1.02 0.04-0.29 0.1-0.77 0.13-1.08 0.02-0.31 0.04-0.75 0.04-0.99 0-0.23-0.02-0.66-0.05-0.96-0.02-0.29-0.08-0.77-0.12-1.07-0.05-0.3-0.14-0.76-0.21-1.03s-0.2-0.73-0.29-1.02c-0.09-0.28-0.26-0.75-0.38-1.03-0.11-0.28-0.36-0.81-0.55-1.18s-0.49-0.89-0.65-1.15c-0.17-0.26-0.43-0.65-0.57-0.86-0.15-0.22-0.43-0.58-0.61-0.82-0.19-0.23-0.46-0.56-0.61-0.73-0.15-0.18-0.48-0.54-0.73-0.81-0.25-0.26-0.74-0.75-1.08-1.07-0.35-0.32-0.88-0.78-1.18-1.03-0.3-0.26-0.88-0.71-1.29-1.02s-1.11-0.79-1.54-1.08c-0.44-0.29-1.04-0.68-1.34-0.86s-0.92-0.55-1.39-0.81c-0.47-0.27-1.26-0.69-1.76-0.94-0.49-0.25-1.14-0.57-1.45-0.72-0.3-0.14-0.95-0.43-1.45-0.65s-1.23-0.53-1.64-0.69c-0.4-0.17-1.14-0.45-1.65-0.64-0.5-0.19-1.34-0.49-1.85-0.67-0.52-0.17-1.35-0.45-1.84-0.6-0.49-0.16-1.25-0.4-1.69-0.52-0.43-0.13-1.25-0.36-1.81-0.51s-1.47-0.38-2.02-0.52c-0.55-0.13-1.56-0.37-2.24-0.52-0.67-0.14-1.6-0.34-2.06-0.43-0.46-0.1-1.25-0.25-1.75-0.34-0.51-0.09-1.31-0.23-1.79-0.31-0.49-0.08-1.32-0.21-1.86-0.29s-1.4-0.21-1.92-0.27c-0.51-0.07-1.41-0.18-2-0.25-0.58-0.07-1.44-0.17-1.9-0.21-0.45-0.05-1.25-0.12-1.77-0.17-0.51-0.05-1.44-0.12-2.06-0.17-0.62-0.04-1.64-0.11-2.28-0.14-0.63-0.04-1.55-0.09-2.04-0.11s-1.67-0.06-2.63-0.09c-0.95-0.02-2.34-0.04-3.08-0.03l-1.36 0.02-0.29 0.09c-0.16 0.05-0.4 0.14-0.54 0.2-0.13 0.06-0.38 0.19-0.54 0.3-0.16 0.1-0.43 0.32-0.59 0.49-0.16 0.16-0.35 0.38-0.43 0.49-0.07 0.1-0.19 0.32-0.27 0.48s-0.2 0.45-0.26 0.66c-0.1 0.33-0.11 0.43-0.11 1 0 0.5 0.01 0.68 0.08 0.94 0.05 0.18 0.16 0.47 0.24 0.64 0.08 0.18 0.23 0.44 0.33 0.58s0.3 0.38 0.45 0.52c0.15 0.15 0.39 0.35 0.55 0.45 0.16 0.11 0.42 0.25 0.57 0.31 0.16 0.07 0.44 0.17 0.62 0.21l0.32 0.09 2.21 0.03c1.22 0.02 2.76 0.06 3.42 0.08 0.66 0.03 1.72 0.08 2.35 0.11 0.64 0.03 1.68 0.1 2.34 0.15 0.65 0.04 1.7 0.13 2.33 0.18 0.64 0.06 1.59 0.15 2.13 0.21s1.44 0.16 2 0.23c0.57 0.07 1.48 0.19 2.05 0.27 0.56 0.09 1.43 0.22 1.94 0.3 0.5 0.08 1.34 0.22 1.85 0.31 0.52 0.09 1.37 0.25 1.9 0.35 0.53 0.11 1.51 0.31 2.19 0.46 0.67 0.15 1.68 0.38 2.23 0.52s1.35 0.34 1.79 0.46 1.18 0.32 1.65 0.46 1.3 0.39 1.85 0.57c0.55 0.17 1.38 0.45 1.85 0.61 0.48 0.17 1.2 0.43 1.62 0.59 0.41 0.16 1.14 0.45 1.62 0.65s1.14 0.48 1.46 0.62 1.03 0.48 1.59 0.75c0.55 0.27 1.26 0.64 1.58 0.82 0.32 0.17 0.91 0.51 1.31 0.75s0.97 0.6 1.27 0.81c0.3 0.2 0.81 0.56 1.13 0.8s0.76 0.58 0.97 0.76c0.22 0.18 0.58 0.5 0.82 0.72 0.23 0.21 0.61 0.59 0.83 0.84 0.23 0.24 0.55 0.61 0.71 0.82s0.42 0.57 0.58 0.81 0.41 0.68 0.56 0.98c0.14 0.29 0.33 0.75 0.41 1s0.18 0.63 0.22 0.84c0.05 0.25 0.07 0.58 0.07 1.02s-0.02 0.77-0.07 1.02c-0.04 0.21-0.14 0.59-0.22 0.85-0.09 0.26-0.27 0.7-0.42 1-0.14 0.29-0.39 0.72-0.55 0.97-0.16 0.24-0.42 0.6-0.58 0.81-0.16 0.2-0.48 0.58-0.71 0.82-0.22 0.25-0.59 0.61-0.81 0.81-0.21 0.21-0.61 0.55-0.87 0.77s-0.71 0.58-1 0.79-0.84 0.6-1.23 0.85c-0.39 0.26-0.97 0.63-1.29 0.82s-0.88 0.5-1.23 0.7c-0.36 0.19-1.04 0.54-1.53 0.78-0.48 0.23-1.28 0.6-1.77 0.82-0.5 0.22-1.32 0.57-1.84 0.78-0.51 0.2-1.37 0.53-1.91 0.72-0.54 0.2-1.44 0.51-2 0.69-0.56 0.19-1.41 0.45-1.88 0.59s-1.26 0.37-1.75 0.51c-0.5 0.13-1.43 0.37-2.07 0.53-0.65 0.16-1.6 0.39-2.13 0.51-0.52 0.11-0.95 0.2-0.96 0.19 0-0.01 0.04-0.44 0.09-0.97 0.06-0.52 0.17-1.54 0.23-2.27 0.07-0.72 0.17-1.98 0.23-2.79 0.06-0.82 0.13-2.02 0.17-2.67 0.03-0.65 0.08-1.74 0.11-2.42 0.02-0.68 0.05-2.27 0.05-3.54l0.01-2.32-0.08-0.27c-0.04-0.15-0.13-0.4-0.2-0.55-0.06-0.16-0.2-0.41-0.3-0.57-0.1-0.15-0.28-0.38-0.4-0.51s-0.34-0.33-0.48-0.44c-0.14-0.1-0.4-0.26-0.58-0.35-0.17-0.09-0.48-0.21-0.68-0.28-0.33-0.09-0.44-0.11-1-0.11-0.5 0-0.68 0.02-0.94 0.09-0.18 0.05-0.47 0.16-0.64 0.24-0.18 0.08-0.44 0.23-0.58 0.33s-0.37 0.3-0.52 0.45c-0.14 0.14-0.35 0.39-0.45 0.55-0.11 0.15-0.25 0.41-0.31 0.57-0.07 0.16-0.16 0.44-0.21 0.61l-0.09 0.33-0.03 2.27c-0.02 1.26-0.05 2.8-0.08 3.42-0.02 0.63-0.08 1.65-0.11 2.27s-0.09 1.53-0.12 2.02c-0.04 0.5-0.11 1.34-0.15 1.88-0.05 0.54-0.13 1.45-0.19 2.02-0.06 0.58-0.17 1.6-0.25 2.28-0.08 0.67-0.17 1.41-0.2 1.63-0.03 0.23-0.07 0.42-0.08 0.44-0.02 0.01-0.21 0.05-0.44 0.08-0.22 0.03-0.96 0.12-1.63 0.2-0.68 0.08-1.8 0.2-2.5 0.27s-1.73 0.16-2.3 0.21c-0.56 0.05-1.61 0.12-2.33 0.17-0.72 0.04-1.76 0.1-2.3 0.12-0.53 0.03-1.57 0.06-2.29 0.09-0.72 0.02-2.46 0.04-3.86 0.04s-3.15-0.02-3.9-0.04c-0.74-0.03-1.77-0.06-2.29-0.09-0.52-0.02-1.4-0.07-1.96-0.1-0.56-0.04-1.27-0.08-1.58-0.11-0.31-0.02-0.91-0.07-1.34-0.1-0.42-0.04-1.33-0.12-2.03-0.19-0.69-0.07-1.8-0.19-2.48-0.27-0.67-0.08-1.41-0.17-1.65-0.2-0.23-0.03-0.44-0.07-0.46-0.08-0.01-0.02-0.05-0.21-0.08-0.44-0.03-0.22-0.12-0.96-0.2-1.63-0.08-0.68-0.19-1.7-0.25-2.28-0.06-0.57-0.15-1.59-0.21-2.27-0.05-0.68-0.14-1.84-0.18-2.59-0.05-0.74-0.11-1.74-0.13-2.23-0.02-0.48-0.06-1.62-0.09-2.54-0.03-1.05-0.04-2.82-0.02-4.75 0.01-1.7 0.04-3.55 0.06-4.11 0.03-0.56 0.08-1.57 0.11-2.23 0.04-0.67 0.1-1.74 0.15-2.38s0.14-1.79 0.21-2.54c0.07-0.76 0.18-1.88 0.25-2.48 0.07-0.61 0.18-1.54 0.25-2.07s0.17-1.29 0.23-1.69 0.18-1.2 0.27-1.77 0.26-1.55 0.37-2.17c0.12-0.62 0.3-1.59 0.42-2.17 0.12-0.57 0.33-1.54 0.46-2.14 0.14-0.61 0.38-1.59 0.53-2.17 0.14-0.59 0.36-1.4 0.47-1.82 0.12-0.41 0.34-1.19 0.51-1.73 0.16-0.54 0.43-1.39 0.59-1.89 0.17-0.51 0.44-1.3 0.61-1.76 0.16-0.45 0.44-1.18 0.6-1.6 0.17-0.43 0.47-1.15 0.66-1.61 0.2-0.46 0.53-1.2 0.74-1.64 0.21-0.45 0.55-1.14 0.75-1.53s0.52-0.98 0.71-1.31 0.47-0.82 0.64-1.08c0.16-0.27 0.45-0.73 0.65-1.02 0.2-0.3 0.56-0.81 0.8-1.13s0.58-0.76 0.76-0.97c0.18-0.22 0.51-0.59 0.73-0.82 0.22-0.24 0.59-0.61 0.81-0.82 0.23-0.2 0.57-0.5 0.75-0.65 0.19-0.15 0.57-0.42 0.84-0.6 0.27-0.19 0.68-0.43 0.92-0.55 0.23-0.11 0.58-0.27 0.78-0.35s0.55-0.19 0.77-0.24c0.23-0.06 0.6-0.13 0.82-0.15 0.25-0.03 0.6-0.04 0.86-0.03 0.24 0.01 0.6 0.06 0.79 0.09 0.19 0.04 0.55 0.14 0.79 0.22 0.25 0.07 0.67 0.25 0.95 0.39 0.27 0.13 0.69 0.37 0.93 0.53s0.59 0.4 0.77 0.54c0.17 0.14 0.53 0.44 0.79 0.67 0.26 0.24 0.66 0.63 0.89 0.88 0.23 0.24 0.58 0.64 0.78 0.88 0.21 0.24 0.55 0.68 0.78 0.98 0.22 0.3 0.56 0.78 0.76 1.07 0.19 0.29 0.53 0.82 0.76 1.18 0.28 0.45 0.51 0.77 0.72 0.99 0.18 0.18 0.46 0.42 0.63 0.54 0.17 0.11 0.45 0.26 0.63 0.33 0.17 0.07 0.48 0.17 0.69 0.21 0.2 0.04 0.54 0.08 0.75 0.08s0.54-0.04 0.75-0.08 0.49-0.13 0.64-0.19 0.4-0.19 0.56-0.28 0.43-0.3 0.6-0.47c0.17-0.16 0.4-0.41 0.5-0.55s0.25-0.42 0.34-0.61 0.2-0.48 0.24-0.64c0.06-0.22 0.08-0.43 0.08-0.94 0-0.47-0.02-0.71-0.07-0.89-0.04-0.14-0.11-0.36-0.16-0.49s-0.27-0.54-0.48-0.89c-0.22-0.36-0.6-0.96-0.85-1.33-0.25-0.38-0.64-0.94-0.86-1.24-0.22-0.31-0.62-0.82-0.88-1.14-0.25-0.32-0.7-0.85-0.99-1.17-0.28-0.32-0.82-0.88-1.2-1.25-0.37-0.36-0.91-0.85-1.18-1.08-0.28-0.23-0.65-0.53-0.84-0.67-0.18-0.14-0.55-0.41-0.83-0.59-0.28-0.19-0.65-0.43-0.83-0.54-0.19-0.11-0.62-0.34-0.97-0.52s-0.88-0.42-1.17-0.53c-0.3-0.12-0.72-0.27-0.93-0.34-0.22-0.07-0.62-0.19-0.89-0.25-0.28-0.07-0.76-0.18-1.09-0.23-0.32-0.06-0.85-0.12-1.17-0.14-0.32-0.03-0.82-0.05-1.1-0.04zm46.13 0.18c-0.57-0.01-1.11-0.01-1.2 0-0.1 0.01-0.42 0.05-0.71 0.08-0.3 0.04-0.72 0.1-0.93 0.15-0.21 0.04-0.56 0.12-0.79 0.18s-0.66 0.19-0.95 0.29c-0.3 0.1-0.71 0.25-0.92 0.34-0.21 0.08-0.63 0.28-0.94 0.44s-0.79 0.43-1.06 0.6c-0.28 0.17-0.72 0.47-0.99 0.68-0.27 0.2-0.7 0.56-0.96 0.8-0.27 0.23-0.67 0.64-0.9 0.89-0.23 0.26-0.55 0.63-0.7 0.82-0.15 0.2-0.44 0.6-0.64 0.9s-0.47 0.76-0.62 1.02c-0.14 0.27-0.35 0.69-0.46 0.94-0.12 0.25-0.3 0.7-0.4 1-0.11 0.3-0.27 0.82-0.36 1.17-0.09 0.34-0.2 0.85-0.24 1.12-0.05 0.28-0.11 0.71-0.14 0.96-0.03 0.26-0.05 0.89-0.05 1.44 0 0.63 0.03 1.17 0.07 1.53 0.04 0.3 0.12 0.79 0.18 1.09 0.05 0.3 0.17 0.81 0.27 1.13 0.09 0.32 0.26 0.84 0.39 1.16 0.12 0.31 0.3 0.73 0.39 0.93 0.09 0.19 0.26 0.53 0.38 0.75s0.37 0.63 0.56 0.92c0.19 0.28 0.51 0.73 0.72 1 0.2 0.26 0.67 0.78 1.04 1.15 0.36 0.37 0.87 0.83 1.12 1.03 0.26 0.2 0.68 0.51 0.94 0.69 0.27 0.18 0.73 0.46 1.02 0.63 0.3 0.17 0.74 0.39 0.98 0.5s0.65 0.28 0.9 0.37 0.68 0.24 0.96 0.32c0.27 0.08 0.77 0.2 1.11 0.27 0.33 0.07 0.85 0.15 1.16 0.19 0.39 0.05 0.88 0.07 1.59 0.07 0.7 0 1.19-0.02 1.58-0.07 0.31-0.04 0.76-0.11 1-0.15 0.24-0.05 0.69-0.15 0.99-0.23 0.31-0.08 0.79-0.23 1.08-0.33 0.28-0.11 0.74-0.29 1.02-0.42 0.27-0.12 0.71-0.34 0.97-0.48s0.7-0.41 0.99-0.6 0.68-0.47 0.87-0.63c0.2-0.15 0.57-0.46 0.82-0.69 0.26-0.23 0.66-0.63 0.89-0.89 0.23-0.25 0.51-0.59 0.64-0.75 0.12-0.17 0.34-0.45 0.48-0.65 0.13-0.19 0.36-0.54 0.5-0.77 0.13-0.23 0.36-0.65 0.5-0.93 0.15-0.28 0.33-0.67 0.41-0.87s0.24-0.61 0.34-0.91 0.24-0.77 0.31-1.04c0.07-0.28 0.17-0.76 0.22-1.09 0.06-0.32 0.12-0.85 0.15-1.18 0.03-0.38 0.04-0.93 0.03-1.48-0.02-0.49-0.06-1.1-0.09-1.36-0.04-0.27-0.11-0.68-0.15-0.92-0.05-0.24-0.16-0.68-0.24-0.98s-0.23-0.77-0.33-1.06c-0.1-0.28-0.31-0.77-0.45-1.08-0.14-0.32-0.38-0.78-0.52-1.03-0.15-0.25-0.41-0.67-0.59-0.94-0.18-0.26-0.47-0.66-0.64-0.87-0.18-0.22-0.52-0.62-0.78-0.89-0.25-0.26-0.65-0.66-0.9-0.87-0.24-0.21-0.65-0.54-0.91-0.72-0.25-0.19-0.67-0.47-0.92-0.63s-0.72-0.42-1.04-0.58-0.83-0.4-1.13-0.51c-0.3-0.12-0.8-0.3-1.11-0.39-0.3-0.09-0.82-0.22-1.15-0.29-0.32-0.07-0.82-0.16-1.1-0.19-0.32-0.05-0.91-0.08-1.56-0.08zm-0.25 7.49c0.28-0.01 0.67 0.01 0.86 0.04 0.19 0.02 0.56 0.09 0.81 0.16 0.25 0.06 0.63 0.19 0.85 0.28 0.21 0.09 0.52 0.25 0.69 0.35 0.17 0.09 0.47 0.29 0.66 0.44 0.19 0.14 0.53 0.44 0.75 0.67s0.51 0.59 0.66 0.81c0.14 0.21 0.32 0.52 0.4 0.68 0.09 0.16 0.21 0.45 0.29 0.65 0.07 0.19 0.19 0.58 0.25 0.85 0.09 0.38 0.12 0.66 0.13 1.13 0.02 0.46 0 0.75-0.05 1.1-0.03 0.25-0.11 0.63-0.17 0.83s-0.17 0.52-0.25 0.72c-0.08 0.19-0.23 0.5-0.33 0.69-0.11 0.18-0.33 0.5-0.49 0.71-0.16 0.22-0.46 0.55-0.66 0.74-0.21 0.19-0.54 0.47-0.75 0.61-0.2 0.13-0.53 0.33-0.73 0.43-0.21 0.11-0.52 0.24-0.71 0.31-0.18 0.07-0.5 0.16-0.71 0.21-0.2 0.05-0.58 0.11-0.83 0.14-0.27 0.03-0.65 0.04-0.91 0.02-0.25-0.02-0.64-0.07-0.87-0.11s-0.58-0.13-0.76-0.19c-0.19-0.06-0.52-0.2-0.75-0.31s-0.55-0.28-0.72-0.38c-0.16-0.11-0.46-0.33-0.67-0.51-0.2-0.17-0.5-0.47-0.67-0.66-0.16-0.19-0.38-0.49-0.5-0.66-0.11-0.17-0.28-0.46-0.37-0.65-0.1-0.19-0.24-0.53-0.32-0.76s-0.19-0.62-0.23-0.86c-0.05-0.24-0.1-0.65-0.11-0.91-0.02-0.26-0.01-0.65 0.02-0.88 0.02-0.23 0.07-0.55 0.11-0.72 0.03-0.17 0.11-0.45 0.17-0.63s0.21-0.55 0.35-0.82c0.13-0.28 0.36-0.67 0.5-0.88 0.15-0.2 0.45-0.55 0.66-0.77 0.22-0.22 0.53-0.5 0.69-0.61 0.16-0.12 0.43-0.3 0.61-0.41s0.51-0.27 0.72-0.36 0.56-0.21 0.76-0.27c0.21-0.06 0.54-0.13 0.75-0.16 0.2-0.03 0.6-0.06 0.87-0.06zm81.32 15.11c-19.87 0-36.03 16.58-36.03 37.07s16.16 37.06 36.03 37.06c17.51 0 32.13-12.86 35.32-29.96 0.2-0.92 0.41-2.36 0.51-3.91 0.11-2.47-1.85-4.53-4.32-4.53-2.26 0-4.12 1.65-4.22 3.91-0.21 1.65-0.41 3.5-0.62 4.53-3.09 12.36-13.9 21.52-26.67 21.52-15.13 0-27.49-12.87-27.49-28.62s12.36-28.52 27.49-28.52c10.09 0 18.85 5.56 23.68 14 0.72 1.34 2.17 2.17 3.71 2.17 3.3 0 5.36-3.51 3.71-6.39-6.28-11.02-17.81-18.33-31.1-18.33zm-53.15 1.03c-2.26 0-4.22 1.96-4.22 4.22v63.64c0 2.26 1.96 4.22 4.22 4.22 2.37 0 4.33-1.96 4.33-4.22v-63.64c0-2.26-1.96-4.22-4.33-4.22zm104.44 0c-2.26 0-4.22 1.96-4.22 4.22v39.95c0 15.96 12.98 28.93 28.93 28.93 15.96 0 28.94-12.97 28.94-28.93v-39.95c0-2.26-1.96-4.22-4.33-4.22-2.26 0-4.22 1.96-4.22 4.22v39.95c0 11.33-9.16 20.39-20.39 20.39-11.22 0-20.38-9.06-20.38-20.39v-39.95c0-2.26-1.96-4.22-4.33-4.22zm91.3 0c-1.85 0-3.4 1.14-4.12 2.78l-25.94 63.22c-1.13 2.68 0.72 5.77 3.7 6.08h0.31 0.11 30.88c2.37 0 4.23-1.96 4.23-4.22 0-2.37-1.86-4.33-4.23-4.33h-24.4l19.26-46.95 1.23-3.09 1.24 3.09 21.72 52.72c0.62 1.64 2.27 2.78 4.12 2.78 3.09 0 5.25-3.2 4.02-6.08l-25.85-63.22c-0.72-1.64-2.37-2.78-4.12-2.78h-2.16zm47.18 0c-2.26 0-4.22 1.96-4.22 4.22v63.64c0 2.26 1.96 4.22 4.22 4.22 2.37 0 4.33-1.96 4.33-4.22v-63.64c0-2.26-1.96-4.22-4.33-4.22zm48.81 0c-2.17 0.21-3.81 2.27-3.81 4.43v53.85l-26.26-37.58c-0.72-1.13-2.06-1.85-3.4-1.85-3.08 0.1-4.94 3.6-3.19 6.17l31.2 44.69c1.03 1.44 2.68 2.37 4.53 2.37 3.09 0 5.66-2.48 5.66-5.56v-62.3c0-2.47-2.16-4.42-4.73-4.22zm18.61 0c-3.2 0-5.05 3.5-3.4 6.18l11.32 17.51c0.72 1.23 2.06 1.85 3.4 1.85 3.19 0 5.15-3.5 3.4-6.18l-11.33-17.5c-0.72-1.14-1.95-1.86-3.29-1.86h-0.1zm43.24 0c-1.34 0-2.68 0.72-3.4 1.96l-22.44 36.45v29.65c0 2.27 1.75 4.02 4.01 4.02h0.52c2.16 0 4.01-1.75 4.01-4.02v-29.65l0.52-0.83 20.18-31.4c1.75-2.68-0.21-6.18-3.4-6.18zm30.18 0c-1.85 0-3.39 1.14-4.11 2.78l-25.95 63.22c-1.13 2.68 0.72 5.77 3.71 6.08h0.31 0.1 30.89c2.37 0 4.22-1.96 4.22-4.22 0-2.37-1.85-4.33-4.22-4.33h-24.41l19.26-46.95 1.24-3.09 1.23 3.09 21.72 52.72c0.62 1.64 2.27 2.78 4.12 2.78 3.09 0 5.25-3.2 4.02-6.08l-25.84-63.22c-0.73-1.64-2.37-2.78-4.12-2.78h-2.17zm-329.06 34.7c-2.37 0-4.33 1.86-4.33 4.22 0 2.37 1.96 4.22 4.33 4.22h14.1c2.37 0 4.23-1.85 4.23-4.22 0-2.36-1.86-4.22-4.23-4.22h-14.1zm-144.98 26.73c0-0.01 0.08-0.01 0.18 0 0.1 0.02 0.62 0.07 1.16 0.13s1.5 0.15 2.13 0.21 1.79 0.15 2.58 0.21c0.79 0.05 2 0.13 2.69 0.17 0.69 0.03 1.7 0.08 2.25 0.1 0.55 0.03 2.44 0.06 4.19 0.07 2.03 0.02 3.83 0.01 4.92-0.02 0.96-0.03 2.33-0.08 3.05-0.11 0.72-0.04 1.75-0.09 2.29-0.13 0.54-0.03 1.47-0.1 2.07-0.14 0.59-0.05 1.59-0.14 2.21-0.19 0.62-0.06 1.53-0.15 2.04-0.21 0.5-0.05 0.92-0.09 0.93-0.09 0 0.01-0.09 0.45-0.2 0.97-0.12 0.53-0.35 1.48-0.51 2.12s-0.4 1.57-0.53 2.07c-0.14 0.49-0.36 1.28-0.5 1.75s-0.41 1.31-0.6 1.88c-0.18 0.56-0.49 1.46-0.68 1.99-0.2 0.54-0.52 1.4-0.73 1.92s-0.56 1.35-0.78 1.84c-0.21 0.49-0.59 1.29-0.82 1.77-0.24 0.48-0.59 1.17-0.78 1.53-0.2 0.35-0.51 0.9-0.7 1.23-0.19 0.32-0.56 0.9-0.81 1.29-0.26 0.39-0.65 0.94-0.86 1.23-0.21 0.28-0.57 0.74-0.79 1s-0.56 0.66-0.76 0.87c-0.21 0.22-0.57 0.59-0.82 0.81-0.24 0.23-0.61 0.55-0.82 0.71s-0.57 0.42-0.81 0.58-0.68 0.41-0.97 0.55c-0.29 0.15-0.74 0.33-1 0.41-0.26 0.09-0.64 0.19-0.85 0.23-0.24 0.04-0.59 0.07-1 0.07-0.44 0-0.75-0.02-1.04-0.08-0.23-0.04-0.61-0.14-0.85-0.22-0.25-0.08-0.65-0.24-0.9-0.36s-0.64-0.33-0.85-0.46-0.57-0.38-0.8-0.55-0.59-0.46-0.8-0.65-0.57-0.53-0.8-0.76-0.62-0.67-0.87-0.96c-0.26-0.3-0.66-0.81-0.9-1.13s-0.65-0.9-0.9-1.29c-0.26-0.39-0.63-0.97-0.82-1.29-0.19-0.33-0.5-0.88-0.69-1.23-0.2-0.36-0.55-1.05-0.79-1.53-0.23-0.48-0.6-1.28-0.82-1.77s-0.57-1.32-0.77-1.83c-0.21-0.52-0.53-1.35-0.71-1.86-0.18-0.5-0.5-1.4-0.69-2-0.2-0.6-0.47-1.46-0.61-1.92-0.13-0.46-0.35-1.21-0.48-1.68-0.13-0.46-0.37-1.4-0.54-2.08-0.17-0.69-0.41-1.67-0.52-2.19-0.12-0.53-0.22-0.97-0.22-0.98z" fill="#bd9698" stroke="#bd9698" stroke-width="5" filter="url(#glow2)" opacity="0.7" mix-blend-mode="screen">
<animate 
             attributeName="fill"
             dur="6s" 
             repeatCount="indefinite"
             keyTimes="0;
                       0.25;
                       0.5;
                       0.75;
                       1"

             values="#568ae0;
                     #788ec8;
                     #9a92b0;
                     #bd9698; #568ae0"/>
					 <animate 
             attributeName="stroke"
             dur="6s" 
             repeatCount="indefinite"
             keyTimes="0;
                       0.25;
                       0.5;
                       0.75;
                       1"

             values="#568ae0;
                     #788ec8;
                     #9a92b0;
                     #bd9698; #568ae0"/>
</path>
<path d="m296.69 324.21c-0.29 0-0.71 0.02-0.94 0.04-0.23 0.01-0.67 0.07-0.97 0.12-0.31 0.05-0.78 0.14-1.06 0.21-0.27 0.07-0.73 0.2-1.01 0.29-0.29 0.09-0.75 0.26-1.02 0.37-0.28 0.12-0.75 0.33-1.06 0.49-0.3 0.15-0.74 0.39-0.97 0.53-0.23 0.13-0.64 0.4-0.92 0.59-0.27 0.18-0.68 0.47-0.89 0.64-0.22 0.17-0.56 0.44-0.75 0.61-0.2 0.16-0.62 0.54-0.94 0.84s-0.83 0.82-1.14 1.15c-0.3 0.33-0.76 0.85-1 1.14-0.25 0.3-0.7 0.87-1 1.27s-0.77 1.08-1.06 1.5c-0.28 0.43-0.66 1.01-0.84 1.3-0.17 0.29-0.49 0.83-0.71 1.21-0.21 0.37-0.59 1.06-0.84 1.52-0.24 0.47-0.63 1.24-0.86 1.73s-0.58 1.26-0.78 1.7c-0.19 0.45-0.51 1.2-0.7 1.67s-0.49 1.26-0.68 1.76c-0.18 0.49-0.5 1.38-0.69 1.96-0.2 0.58-0.48 1.45-0.63 1.93s-0.4 1.33-0.56 1.88-0.4 1.43-0.54 1.96-0.33 1.28-0.42 1.67-0.26 1.12-0.38 1.62c-0.11 0.51-0.3 1.43-0.43 2.05-0.12 0.62-0.31 1.59-0.42 2.17-0.1 0.57-0.25 1.44-0.33 1.93-0.08 0.5-0.21 1.34-0.29 1.88s-0.21 1.5-0.3 2.13c-0.08 0.63-0.2 1.64-0.27 2.25s-0.18 1.72-0.25 2.48-0.16 1.89-0.21 2.52c-0.04 0.63-0.1 1.46-0.12 1.84s-0.07 1.29-0.1 2.02c-0.04 0.74-0.09 2.12-0.12 3.09-0.03 1.1-0.03 2.92-0.02 4.92 0.01 1.74 0.04 3.62 0.07 4.17 0.02 0.55 0.07 1.56 0.11 2.25 0.03 0.69 0.11 1.9 0.16 2.69 0.06 0.79 0.16 2.06 0.23 2.81 0.07 0.76 0.17 1.79 0.23 2.3 0.05 0.5 0.09 0.92 0.09 0.93-0.01 0-0.4-0.08-0.87-0.18-0.46-0.11-1.38-0.32-2.03-0.48s-1.64-0.42-2.19-0.57-1.41-0.4-1.9-0.54c-0.49-0.15-1.27-0.4-1.73-0.55s-1.26-0.42-1.77-0.6c-0.52-0.19-1.38-0.51-1.92-0.72s-1.25-0.51-1.59-0.65c-0.33-0.14-1.01-0.44-1.5-0.67s-1.3-0.63-1.8-0.9c-0.5-0.26-1.24-0.66-1.63-0.9-0.39-0.23-1.04-0.63-1.44-0.89-0.4-0.27-1-0.69-1.34-0.94-0.33-0.26-0.73-0.57-0.88-0.69-0.15-0.13-0.49-0.44-0.77-0.68-0.27-0.25-0.7-0.68-0.95-0.95-0.24-0.27-0.56-0.64-0.7-0.82-0.14-0.19-0.39-0.53-0.55-0.77-0.16-0.25-0.41-0.68-0.55-0.97-0.14-0.3-0.33-0.74-0.41-1s-0.18-0.64-0.22-0.85c-0.05-0.25-0.08-0.58-0.08-1.02 0-0.45 0.03-0.76 0.08-1.02 0.04-0.2 0.14-0.57 0.22-0.81s0.25-0.67 0.39-0.94c0.13-0.28 0.37-0.7 0.53-0.94s0.4-0.59 0.54-0.77 0.45-0.55 0.7-0.82 0.7-0.72 1.01-1.01c0.31-0.28 0.82-0.72 1.14-0.97 0.32-0.26 0.88-0.67 1.24-0.92s1.01-0.68 1.45-0.95c0.57-0.36 0.88-0.59 1.12-0.81 0.18-0.18 0.42-0.46 0.53-0.63s0.26-0.45 0.33-0.62c0.07-0.18 0.17-0.49 0.21-0.69 0.04-0.21 0.08-0.55 0.08-0.76 0-0.2-0.04-0.54-0.08-0.75s-0.14-0.52-0.21-0.69-0.22-0.46-0.33-0.63c-0.12-0.17-0.37-0.46-0.56-0.64s-0.45-0.39-0.58-0.47-0.38-0.2-0.56-0.28-0.48-0.17-0.68-0.21c-0.26-0.05-0.48-0.06-0.89-0.05-0.31 0.01-0.65 0.05-0.78 0.09-0.13 0.03-0.34 0.1-0.47 0.15s-0.53 0.26-0.88 0.48c-0.35 0.21-0.95 0.59-1.34 0.85s-0.95 0.66-1.25 0.87c-0.3 0.22-0.8 0.61-1.13 0.87-0.32 0.26-0.84 0.7-1.16 0.99-0.33 0.28-0.91 0.84-1.3 1.24s-0.91 0.98-1.15 1.27c-0.24 0.3-0.62 0.78-0.83 1.08-0.21 0.29-0.53 0.77-0.71 1.06-0.17 0.29-0.43 0.74-0.57 1.01-0.14 0.26-0.36 0.74-0.5 1.06s-0.33 0.82-0.42 1.11c-0.1 0.28-0.23 0.73-0.3 1s-0.17 0.76-0.23 1.11c-0.06 0.34-0.13 0.96-0.16 1.38-0.03 0.59-0.03 0.94 0.01 1.53 0.02 0.43 0.09 1.04 0.15 1.37 0.05 0.33 0.15 0.79 0.21 1.03s0.18 0.67 0.28 0.95c0.09 0.28 0.25 0.73 0.37 1 0.11 0.28 0.31 0.73 0.45 1.01 0.14 0.27 0.38 0.71 0.53 0.97 0.16 0.26 0.39 0.64 0.53 0.84 0.14 0.21 0.39 0.57 0.56 0.8 0.18 0.23 0.49 0.62 0.7 0.87 0.21 0.26 0.59 0.69 0.85 0.96 0.26 0.28 0.73 0.75 1.06 1.06 0.32 0.31 0.88 0.8 1.24 1.1 0.35 0.29 0.93 0.76 1.29 1.02 0.36 0.27 1.07 0.77 1.59 1.12 0.51 0.34 1.25 0.82 1.64 1.05s1 0.58 1.36 0.78c0.35 0.2 1.12 0.6 1.71 0.89 0.58 0.3 1.4 0.69 1.81 0.88s1.16 0.52 1.67 0.73c0.5 0.21 1.33 0.55 1.83 0.74 0.51 0.2 1.43 0.54 2.05 0.76 0.62 0.21 1.6 0.54 2.19 0.73 0.58 0.18 1.48 0.45 2 0.6 0.51 0.15 1.42 0.4 2.02 0.56s1.6 0.42 2.23 0.57 1.6 0.37 2.15 0.48c0.55 0.12 1.46 0.31 2.02 0.42l1.02 0.2 0.02 0.1c0 0.05 0.13 0.71 0.28 1.45 0.15 0.75 0.38 1.85 0.52 2.46s0.4 1.69 0.58 2.4 0.44 1.7 0.58 2.21c0.14 0.5 0.38 1.32 0.53 1.81 0.15 0.5 0.44 1.4 0.64 2.01 0.2 0.6 0.49 1.45 0.65 1.87 0.15 0.43 0.49 1.31 0.75 1.96s0.64 1.58 0.85 2.07c0.21 0.48 0.66 1.42 0.99 2.09 0.32 0.68 0.79 1.57 1.02 2 0.24 0.43 0.63 1.12 0.87 1.53 0.25 0.42 0.73 1.18 1.07 1.69 0.35 0.52 0.86 1.24 1.13 1.61 0.28 0.37 0.75 0.96 1.04 1.31 0.3 0.36 0.78 0.9 1.06 1.2s0.76 0.78 1.06 1.06 0.76 0.69 1.02 0.91 0.69 0.55 0.94 0.74 0.65 0.46 0.88 0.61 0.6 0.37 0.83 0.51c0.22 0.13 0.61 0.34 0.86 0.46 0.25 0.13 0.68 0.32 0.96 0.43 0.27 0.12 0.73 0.29 1.02 0.38 0.29 0.1 0.76 0.23 1.04 0.29 0.28 0.07 0.74 0.16 1.02 0.21 0.29 0.05 0.86 0.11 1.28 0.13 0.6 0.04 0.93 0.04 1.53 0 0.43-0.02 1.04-0.09 1.37-0.15 0.33-0.05 0.8-0.15 1.03-0.21 0.24-0.06 0.67-0.18 0.95-0.28 0.28-0.09 0.73-0.25 1.01-0.37 0.27-0.11 0.71-0.31 0.97-0.44s0.67-0.35 0.91-0.48c0.24-0.14 0.63-0.39 0.87-0.55s0.63-0.43 0.86-0.6 0.62-0.49 0.88-0.7c0.25-0.21 0.68-0.59 0.95-0.85 0.28-0.25 0.75-0.73 1.06-1.06 0.31-0.32 0.8-0.88 1.09-1.23s0.76-0.93 1.02-1.29c0.27-0.36 0.74-1.02 1.04-1.47 0.31-0.45 0.73-1.1 0.95-1.46 0.22-0.35 0.6-1 0.84-1.44 0.25-0.43 0.7-1.29 1-1.89 0.31-0.61 0.72-1.45 0.91-1.86 0.18-0.41 0.51-1.16 0.72-1.67 0.22-0.5 0.55-1.33 0.75-1.83 0.19-0.51 0.53-1.43 0.75-2.05s0.54-1.6 0.73-2.18c0.18-0.59 0.5-1.63 0.7-2.32 0.19-0.69 0.52-1.91 0.72-2.71s0.49-2.01 0.64-2.69 0.38-1.75 0.51-2.39 0.23-1.2 0.23-1.24c0-0.05 0.02-0.09 0.05-0.1s0.47-0.09 0.97-0.19c0.51-0.09 1.48-0.29 2.17-0.44s1.82-0.41 2.52-0.58c0.7-0.18 1.76-0.45 2.35-0.61 0.6-0.16 1.59-0.44 2.2-0.63 0.6-0.18 1.66-0.51 2.33-0.74 0.68-0.23 1.64-0.56 2.13-0.74 0.49-0.19 1.27-0.49 1.73-0.67 0.46-0.19 1.12-0.46 1.46-0.61 0.34-0.14 0.92-0.4 1.29-0.57 0.37-0.16 1.1-0.51 1.63-0.78 0.53-0.26 1.29-0.66 1.69-0.88 0.4-0.21 1.05-0.59 1.46-0.83 0.4-0.24 0.96-0.59 1.25-0.78 0.28-0.18 0.73-0.48 1-0.66 0.26-0.18 0.76-0.54 1.1-0.8 0.35-0.26 0.92-0.72 1.27-1.01 0.36-0.3 0.91-0.79 1.22-1.08 0.32-0.3 0.79-0.77 1.06-1.06s0.67-0.74 0.89-1 0.55-0.69 0.74-0.94c0.18-0.25 0.43-0.6 0.54-0.77 0.12-0.17 0.34-0.52 0.49-0.78s0.39-0.7 0.53-0.97c0.14-0.28 0.34-0.73 0.46-1.01 0.11-0.27 0.28-0.73 0.37-1.02 0.1-0.29 0.23-0.75 0.29-1.04 0.07-0.28 0.16-0.74 0.21-1.02 0.04-0.29 0.1-0.77 0.13-1.08 0.02-0.31 0.04-0.75 0.04-0.99 0-0.23-0.02-0.66-0.05-0.96-0.02-0.29-0.08-0.77-0.12-1.07-0.05-0.3-0.14-0.76-0.21-1.03s-0.2-0.73-0.29-1.02c-0.09-0.28-0.26-0.75-0.38-1.03-0.11-0.28-0.36-0.81-0.55-1.18s-0.49-0.89-0.65-1.15c-0.17-0.26-0.43-0.65-0.57-0.86-0.15-0.22-0.43-0.58-0.61-0.82-0.19-0.23-0.46-0.56-0.61-0.73-0.15-0.18-0.48-0.54-0.73-0.81-0.25-0.26-0.74-0.75-1.08-1.07-0.35-0.32-0.88-0.78-1.18-1.03-0.3-0.26-0.88-0.71-1.29-1.02s-1.11-0.79-1.54-1.08c-0.44-0.29-1.04-0.68-1.34-0.86s-0.92-0.55-1.39-0.81c-0.47-0.27-1.26-0.69-1.76-0.94-0.49-0.25-1.14-0.57-1.45-0.72-0.3-0.14-0.95-0.43-1.45-0.65s-1.23-0.53-1.64-0.69c-0.4-0.17-1.14-0.45-1.65-0.64-0.5-0.19-1.34-0.49-1.85-0.67-0.52-0.17-1.35-0.45-1.84-0.6-0.49-0.16-1.25-0.4-1.69-0.52-0.43-0.13-1.25-0.36-1.81-0.51s-1.47-0.38-2.02-0.52c-0.55-0.13-1.56-0.37-2.24-0.52-0.67-0.14-1.6-0.34-2.06-0.43-0.46-0.1-1.25-0.25-1.75-0.34-0.51-0.09-1.31-0.23-1.79-0.31-0.49-0.08-1.32-0.21-1.86-0.29s-1.4-0.21-1.92-0.27c-0.51-0.07-1.41-0.18-2-0.25-0.58-0.07-1.44-0.17-1.9-0.21-0.45-0.05-1.25-0.12-1.77-0.17-0.51-0.05-1.44-0.12-2.06-0.17-0.62-0.04-1.64-0.11-2.28-0.14-0.63-0.04-1.55-0.09-2.04-0.11s-1.67-0.06-2.63-0.09c-0.95-0.02-2.34-0.04-3.08-0.03l-1.36 0.02-0.29 0.09c-0.16 0.05-0.4 0.14-0.54 0.2-0.13 0.06-0.38 0.19-0.54 0.3-0.16 0.1-0.43 0.32-0.59 0.49-0.16 0.16-0.35 0.38-0.43 0.49-0.07 0.1-0.19 0.32-0.27 0.48s-0.2 0.45-0.26 0.66c-0.1 0.33-0.11 0.43-0.11 1 0 0.5 0.01 0.68 0.08 0.94 0.05 0.18 0.16 0.47 0.24 0.64 0.08 0.18 0.23 0.44 0.33 0.58s0.3 0.38 0.45 0.52c0.15 0.15 0.39 0.35 0.55 0.45 0.16 0.11 0.42 0.25 0.57 0.31 0.16 0.07 0.44 0.17 0.62 0.21l0.32 0.09 2.21 0.03c1.22 0.02 2.76 0.06 3.42 0.08 0.66 0.03 1.72 0.08 2.35 0.11 0.64 0.03 1.68 0.1 2.34 0.15 0.65 0.04 1.7 0.13 2.33 0.18 0.64 0.06 1.59 0.15 2.13 0.21s1.44 0.16 2 0.23c0.57 0.07 1.48 0.19 2.05 0.27 0.56 0.09 1.43 0.22 1.94 0.3 0.5 0.08 1.34 0.22 1.85 0.31 0.52 0.09 1.37 0.25 1.9 0.35 0.53 0.11 1.51 0.31 2.19 0.46 0.67 0.15 1.68 0.38 2.23 0.52s1.35 0.34 1.79 0.46 1.18 0.32 1.65 0.46 1.3 0.39 1.85 0.57c0.55 0.17 1.38 0.45 1.85 0.61 0.48 0.17 1.2 0.43 1.62 0.59 0.41 0.16 1.14 0.45 1.62 0.65s1.14 0.48 1.46 0.62 1.03 0.48 1.59 0.75c0.55 0.27 1.26 0.64 1.58 0.82 0.32 0.17 0.91 0.51 1.31 0.75s0.97 0.6 1.27 0.81c0.3 0.2 0.81 0.56 1.13 0.8s0.76 0.58 0.97 0.76c0.22 0.18 0.58 0.5 0.82 0.72 0.23 0.21 0.61 0.59 0.83 0.84 0.23 0.24 0.55 0.61 0.71 0.82s0.42 0.57 0.58 0.81 0.41 0.68 0.56 0.98c0.14 0.29 0.33 0.75 0.41 1s0.18 0.63 0.22 0.84c0.05 0.25 0.07 0.58 0.07 1.02s-0.02 0.77-0.07 1.02c-0.04 0.21-0.14 0.59-0.22 0.85-0.09 0.26-0.27 0.7-0.42 1-0.14 0.29-0.39 0.72-0.55 0.97-0.16 0.24-0.42 0.6-0.58 0.81-0.16 0.2-0.48 0.58-0.71 0.82-0.22 0.25-0.59 0.61-0.81 0.81-0.21 0.21-0.61 0.55-0.87 0.77s-0.71 0.58-1 0.79-0.84 0.6-1.23 0.85c-0.39 0.26-0.97 0.63-1.29 0.82s-0.88 0.5-1.23 0.7c-0.36 0.19-1.04 0.54-1.53 0.78-0.48 0.23-1.28 0.6-1.77 0.82-0.5 0.22-1.32 0.57-1.84 0.78-0.51 0.2-1.37 0.53-1.91 0.72-0.54 0.2-1.44 0.51-2 0.69-0.56 0.19-1.41 0.45-1.88 0.59s-1.26 0.37-1.75 0.51c-0.5 0.13-1.43 0.37-2.07 0.53-0.65 0.16-1.6 0.39-2.13 0.51-0.52 0.11-0.95 0.2-0.96 0.19 0-0.01 0.04-0.44 0.09-0.97 0.06-0.52 0.17-1.54 0.23-2.27 0.07-0.72 0.17-1.98 0.23-2.79 0.06-0.82 0.13-2.02 0.17-2.67 0.03-0.65 0.08-1.74 0.11-2.42 0.02-0.68 0.05-2.27 0.05-3.54l0.01-2.32-0.08-0.27c-0.04-0.15-0.13-0.4-0.2-0.55-0.06-0.16-0.2-0.41-0.3-0.57-0.1-0.15-0.28-0.38-0.4-0.51s-0.34-0.33-0.48-0.44c-0.14-0.1-0.4-0.26-0.58-0.35-0.17-0.09-0.48-0.21-0.68-0.28-0.33-0.09-0.44-0.11-1-0.11-0.5 0-0.68 0.02-0.94 0.09-0.18 0.05-0.47 0.16-0.64 0.24-0.18 0.08-0.44 0.23-0.58 0.33s-0.37 0.3-0.52 0.45c-0.14 0.14-0.35 0.39-0.45 0.55-0.11 0.15-0.25 0.41-0.31 0.57-0.07 0.16-0.16 0.44-0.21 0.61l-0.09 0.33-0.03 2.27c-0.02 1.26-0.05 2.8-0.08 3.42-0.02 0.63-0.08 1.65-0.11 2.27s-0.09 1.53-0.12 2.02c-0.04 0.5-0.11 1.34-0.15 1.88-0.05 0.54-0.13 1.45-0.19 2.02-0.06 0.58-0.17 1.6-0.25 2.28-0.08 0.67-0.17 1.41-0.2 1.63-0.03 0.23-0.07 0.42-0.08 0.44-0.02 0.01-0.21 0.05-0.44 0.08-0.22 0.03-0.96 0.12-1.63 0.2-0.68 0.08-1.8 0.2-2.5 0.27s-1.73 0.16-2.3 0.21c-0.56 0.05-1.61 0.12-2.33 0.17-0.72 0.04-1.76 0.1-2.3 0.12-0.53 0.03-1.57 0.06-2.29 0.09-0.72 0.02-2.46 0.04-3.86 0.04s-3.15-0.02-3.9-0.04c-0.74-0.03-1.77-0.06-2.29-0.09-0.52-0.02-1.4-0.07-1.96-0.1-0.56-0.04-1.27-0.08-1.58-0.11-0.31-0.02-0.91-0.07-1.34-0.1-0.42-0.04-1.33-0.12-2.03-0.19-0.69-0.07-1.8-0.19-2.48-0.27-0.67-0.08-1.41-0.17-1.65-0.2-0.23-0.03-0.44-0.07-0.46-0.08-0.01-0.02-0.05-0.21-0.08-0.44-0.03-0.22-0.12-0.96-0.2-1.63-0.08-0.68-0.19-1.7-0.25-2.28-0.06-0.57-0.15-1.59-0.21-2.27-0.05-0.68-0.14-1.84-0.18-2.59-0.05-0.74-0.11-1.74-0.13-2.23-0.02-0.48-0.06-1.62-0.09-2.54-0.03-1.05-0.04-2.82-0.02-4.75 0.01-1.7 0.04-3.55 0.06-4.11 0.03-0.56 0.08-1.57 0.11-2.23 0.04-0.67 0.1-1.74 0.15-2.38s0.14-1.79 0.21-2.54c0.07-0.76 0.18-1.88 0.25-2.48 0.07-0.61 0.18-1.54 0.25-2.07s0.17-1.29 0.23-1.69 0.18-1.2 0.27-1.77 0.26-1.55 0.37-2.17c0.12-0.62 0.3-1.59 0.42-2.17 0.12-0.57 0.33-1.54 0.46-2.14 0.14-0.61 0.38-1.59 0.53-2.17 0.14-0.59 0.36-1.4 0.47-1.82 0.12-0.41 0.34-1.19 0.51-1.73 0.16-0.54 0.43-1.39 0.59-1.89 0.17-0.51 0.44-1.3 0.61-1.76 0.16-0.45 0.44-1.18 0.6-1.6 0.17-0.43 0.47-1.15 0.66-1.61 0.2-0.46 0.53-1.2 0.74-1.64 0.21-0.45 0.55-1.14 0.75-1.53s0.52-0.98 0.71-1.31 0.47-0.82 0.64-1.08c0.16-0.27 0.45-0.73 0.65-1.02 0.2-0.3 0.56-0.81 0.8-1.13s0.58-0.76 0.76-0.97c0.18-0.22 0.51-0.59 0.73-0.82 0.22-0.24 0.59-0.61 0.81-0.82 0.23-0.2 0.57-0.5 0.75-0.65 0.19-0.15 0.57-0.42 0.84-0.6 0.27-0.19 0.68-0.43 0.92-0.55 0.23-0.11 0.58-0.27 0.78-0.35s0.55-0.19 0.77-0.24c0.23-0.06 0.6-0.13 0.82-0.15 0.25-0.03 0.6-0.04 0.86-0.03 0.24 0.01 0.6 0.06 0.79 0.09 0.19 0.04 0.55 0.14 0.79 0.22 0.25 0.07 0.67 0.25 0.95 0.39 0.27 0.13 0.69 0.37 0.93 0.53s0.59 0.4 0.77 0.54c0.17 0.14 0.53 0.44 0.79 0.67 0.26 0.24 0.66 0.63 0.89 0.88 0.23 0.24 0.58 0.64 0.78 0.88 0.21 0.24 0.55 0.68 0.78 0.98 0.22 0.3 0.56 0.78 0.76 1.07 0.19 0.29 0.53 0.82 0.76 1.18 0.28 0.45 0.51 0.77 0.72 0.99 0.18 0.18 0.46 0.42 0.63 0.54 0.17 0.11 0.45 0.26 0.63 0.33 0.17 0.07 0.48 0.17 0.69 0.21 0.2 0.04 0.54 0.08 0.75 0.08s0.54-0.04 0.75-0.08 0.49-0.13 0.64-0.19 0.4-0.19 0.56-0.28 0.43-0.3 0.6-0.47c0.17-0.16 0.4-0.41 0.5-0.55s0.25-0.42 0.34-0.61 0.2-0.48 0.24-0.64c0.06-0.22 0.08-0.43 0.08-0.94 0-0.47-0.02-0.71-0.07-0.89-0.04-0.14-0.11-0.36-0.16-0.49s-0.27-0.54-0.48-0.89c-0.22-0.36-0.6-0.96-0.85-1.33-0.25-0.38-0.64-0.94-0.86-1.24-0.22-0.31-0.62-0.82-0.88-1.14-0.25-0.32-0.7-0.85-0.99-1.17-0.28-0.32-0.82-0.88-1.2-1.25-0.37-0.36-0.91-0.85-1.18-1.08-0.28-0.23-0.65-0.53-0.84-0.67-0.18-0.14-0.55-0.41-0.83-0.59-0.28-0.19-0.65-0.43-0.83-0.54-0.19-0.11-0.62-0.34-0.97-0.52s-0.88-0.42-1.17-0.53c-0.3-0.12-0.72-0.27-0.93-0.34-0.22-0.07-0.62-0.19-0.89-0.25-0.28-0.07-0.76-0.18-1.09-0.23-0.32-0.06-0.85-0.12-1.17-0.14-0.32-0.03-0.82-0.05-1.1-0.04zm46.13 0.18c-0.57-0.01-1.11-0.01-1.2 0-0.1 0.01-0.42 0.05-0.71 0.08-0.3 0.04-0.72 0.1-0.93 0.15-0.21 0.04-0.56 0.12-0.79 0.18s-0.66 0.19-0.95 0.29c-0.3 0.1-0.71 0.25-0.92 0.34-0.21 0.08-0.63 0.28-0.94 0.44s-0.79 0.43-1.06 0.6c-0.28 0.17-0.72 0.47-0.99 0.68-0.27 0.2-0.7 0.56-0.96 0.8-0.27 0.23-0.67 0.64-0.9 0.89-0.23 0.26-0.55 0.63-0.7 0.82-0.15 0.2-0.44 0.6-0.64 0.9s-0.47 0.76-0.62 1.02c-0.14 0.27-0.35 0.69-0.46 0.94-0.12 0.25-0.3 0.7-0.4 1-0.11 0.3-0.27 0.82-0.36 1.17-0.09 0.34-0.2 0.85-0.24 1.12-0.05 0.28-0.11 0.71-0.14 0.96-0.03 0.26-0.05 0.89-0.05 1.44 0 0.63 0.03 1.17 0.07 1.53 0.04 0.3 0.12 0.79 0.18 1.09 0.05 0.3 0.17 0.81 0.27 1.13 0.09 0.32 0.26 0.84 0.39 1.16 0.12 0.31 0.3 0.73 0.39 0.93 0.09 0.19 0.26 0.53 0.38 0.75s0.37 0.63 0.56 0.92c0.19 0.28 0.51 0.73 0.72 1 0.2 0.26 0.67 0.78 1.04 1.15 0.36 0.37 0.87 0.83 1.12 1.03 0.26 0.2 0.68 0.51 0.94 0.69 0.27 0.18 0.73 0.46 1.02 0.63 0.3 0.17 0.74 0.39 0.98 0.5s0.65 0.28 0.9 0.37 0.68 0.24 0.96 0.32c0.27 0.08 0.77 0.2 1.11 0.27 0.33 0.07 0.85 0.15 1.16 0.19 0.39 0.05 0.88 0.07 1.59 0.07 0.7 0 1.19-0.02 1.58-0.07 0.31-0.04 0.76-0.11 1-0.15 0.24-0.05 0.69-0.15 0.99-0.23 0.31-0.08 0.79-0.23 1.08-0.33 0.28-0.11 0.74-0.29 1.02-0.42 0.27-0.12 0.71-0.34 0.97-0.48s0.7-0.41 0.99-0.6 0.68-0.47 0.87-0.63c0.2-0.15 0.57-0.46 0.82-0.69 0.26-0.23 0.66-0.63 0.89-0.89 0.23-0.25 0.51-0.59 0.64-0.75 0.12-0.17 0.34-0.45 0.48-0.65 0.13-0.19 0.36-0.54 0.5-0.77 0.13-0.23 0.36-0.65 0.5-0.93 0.15-0.28 0.33-0.67 0.41-0.87s0.24-0.61 0.34-0.91 0.24-0.77 0.31-1.04c0.07-0.28 0.17-0.76 0.22-1.09 0.06-0.32 0.12-0.85 0.15-1.18 0.03-0.38 0.04-0.93 0.03-1.48-0.02-0.49-0.06-1.1-0.09-1.36-0.04-0.27-0.11-0.68-0.15-0.92-0.05-0.24-0.16-0.68-0.24-0.98s-0.23-0.77-0.33-1.06c-0.1-0.28-0.31-0.77-0.45-1.08-0.14-0.32-0.38-0.78-0.52-1.03-0.15-0.25-0.41-0.67-0.59-0.94-0.18-0.26-0.47-0.66-0.64-0.87-0.18-0.22-0.52-0.62-0.78-0.89-0.25-0.26-0.65-0.66-0.9-0.87-0.24-0.21-0.65-0.54-0.91-0.72-0.25-0.19-0.67-0.47-0.92-0.63s-0.72-0.42-1.04-0.58-0.83-0.4-1.13-0.51c-0.3-0.12-0.8-0.3-1.11-0.39-0.3-0.09-0.82-0.22-1.15-0.29-0.32-0.07-0.82-0.16-1.1-0.19-0.32-0.05-0.91-0.08-1.56-0.08zm-0.25 7.49c0.28-0.01 0.67 0.01 0.86 0.04 0.19 0.02 0.56 0.09 0.81 0.16 0.25 0.06 0.63 0.19 0.85 0.28 0.21 0.09 0.52 0.25 0.69 0.35 0.17 0.09 0.47 0.29 0.66 0.44 0.19 0.14 0.53 0.44 0.75 0.67s0.51 0.59 0.66 0.81c0.14 0.21 0.32 0.52 0.4 0.68 0.09 0.16 0.21 0.45 0.29 0.65 0.07 0.19 0.19 0.58 0.25 0.85 0.09 0.38 0.12 0.66 0.13 1.13 0.02 0.46 0 0.75-0.05 1.1-0.03 0.25-0.11 0.63-0.17 0.83s-0.17 0.52-0.25 0.72c-0.08 0.19-0.23 0.5-0.33 0.69-0.11 0.18-0.33 0.5-0.49 0.71-0.16 0.22-0.46 0.55-0.66 0.74-0.21 0.19-0.54 0.47-0.75 0.61-0.2 0.13-0.53 0.33-0.73 0.43-0.21 0.11-0.52 0.24-0.71 0.31-0.18 0.07-0.5 0.16-0.71 0.21-0.2 0.05-0.58 0.11-0.83 0.14-0.27 0.03-0.65 0.04-0.91 0.02-0.25-0.02-0.64-0.07-0.87-0.11s-0.58-0.13-0.76-0.19c-0.19-0.06-0.52-0.2-0.75-0.31s-0.55-0.28-0.72-0.38c-0.16-0.11-0.46-0.33-0.67-0.51-0.2-0.17-0.5-0.47-0.67-0.66-0.16-0.19-0.38-0.49-0.5-0.66-0.11-0.17-0.28-0.46-0.37-0.65-0.1-0.19-0.24-0.53-0.32-0.76s-0.19-0.62-0.23-0.86c-0.05-0.24-0.1-0.65-0.11-0.91-0.02-0.26-0.01-0.65 0.02-0.88 0.02-0.23 0.07-0.55 0.11-0.72 0.03-0.17 0.11-0.45 0.17-0.63s0.21-0.55 0.35-0.82c0.13-0.28 0.36-0.67 0.5-0.88 0.15-0.2 0.45-0.55 0.66-0.77 0.22-0.22 0.53-0.5 0.69-0.61 0.16-0.12 0.43-0.3 0.61-0.41s0.51-0.27 0.72-0.36 0.56-0.21 0.76-0.27c0.21-0.06 0.54-0.13 0.75-0.16 0.2-0.03 0.6-0.06 0.87-0.06zm81.32 15.11c-19.87 0-36.03 16.58-36.03 37.07s16.16 37.06 36.03 37.06c17.51 0 32.13-12.86 35.32-29.96 0.2-0.92 0.41-2.36 0.51-3.91 0.11-2.47-1.85-4.53-4.32-4.53-2.26 0-4.12 1.65-4.22 3.91-0.21 1.65-0.41 3.5-0.62 4.53-3.09 12.36-13.9 21.52-26.67 21.52-15.13 0-27.49-12.87-27.49-28.62s12.36-28.52 27.49-28.52c10.09 0 18.85 5.56 23.68 14 0.72 1.34 2.17 2.17 3.71 2.17 3.3 0 5.36-3.51 3.71-6.39-6.28-11.02-17.81-18.33-31.1-18.33zm-53.15 1.03c-2.26 0-4.22 1.96-4.22 4.22v63.64c0 2.26 1.96 4.22 4.22 4.22 2.37 0 4.33-1.96 4.33-4.22v-63.64c0-2.26-1.96-4.22-4.33-4.22zm104.44 0c-2.26 0-4.22 1.96-4.22 4.22v39.95c0 15.96 12.98 28.93 28.93 28.93 15.96 0 28.94-12.97 28.94-28.93v-39.95c0-2.26-1.96-4.22-4.33-4.22-2.26 0-4.22 1.96-4.22 4.22v39.95c0 11.33-9.16 20.39-20.39 20.39-11.22 0-20.38-9.06-20.38-20.39v-39.95c0-2.26-1.96-4.22-4.33-4.22zm91.3 0c-1.85 0-3.4 1.14-4.12 2.78l-25.94 63.22c-1.13 2.68 0.72 5.77 3.7 6.08h0.31 0.11 30.88c2.37 0 4.23-1.96 4.23-4.22 0-2.37-1.86-4.33-4.23-4.33h-24.4l19.26-46.95 1.23-3.09 1.24 3.09 21.72 52.72c0.62 1.64 2.27 2.78 4.12 2.78 3.09 0 5.25-3.2 4.02-6.08l-25.85-63.22c-0.72-1.64-2.37-2.78-4.12-2.78h-2.16zm47.18 0c-2.26 0-4.22 1.96-4.22 4.22v63.64c0 2.26 1.96 4.22 4.22 4.22 2.37 0 4.33-1.96 4.33-4.22v-63.64c0-2.26-1.96-4.22-4.33-4.22zm48.81 0c-2.17 0.21-3.81 2.27-3.81 4.43v53.85l-26.26-37.58c-0.72-1.13-2.06-1.85-3.4-1.85-3.08 0.1-4.94 3.6-3.19 6.17l31.2 44.69c1.03 1.44 2.68 2.37 4.53 2.37 3.09 0 5.66-2.48 5.66-5.56v-62.3c0-2.47-2.16-4.42-4.73-4.22zm18.61 0c-3.2 0-5.05 3.5-3.4 6.18l11.32 17.51c0.72 1.23 2.06 1.85 3.4 1.85 3.19 0 5.15-3.5 3.4-6.18l-11.33-17.5c-0.72-1.14-1.95-1.86-3.29-1.86h-0.1zm43.24 0c-1.34 0-2.68 0.72-3.4 1.96l-22.44 36.45v29.65c0 2.27 1.75 4.02 4.01 4.02h0.52c2.16 0 4.01-1.75 4.01-4.02v-29.65l0.52-0.83 20.18-31.4c1.75-2.68-0.21-6.18-3.4-6.18zm30.18 0c-1.85 0-3.39 1.14-4.11 2.78l-25.95 63.22c-1.13 2.68 0.72 5.77 3.71 6.08h0.31 0.1 30.89c2.37 0 4.22-1.96 4.22-4.22 0-2.37-1.85-4.33-4.22-4.33h-24.41l19.26-46.95 1.24-3.09 1.23 3.09 21.72 52.72c0.62 1.64 2.27 2.78 4.12 2.78 3.09 0 5.25-3.2 4.02-6.08l-25.84-63.22c-0.73-1.64-2.37-2.78-4.12-2.78h-2.17zm-329.06 34.7c-2.37 0-4.33 1.86-4.33 4.22 0 2.37 1.96 4.22 4.33 4.22h14.1c2.37 0 4.23-1.85 4.23-4.22 0-2.36-1.86-4.22-4.23-4.22h-14.1zm-144.98 26.73c0-0.01 0.08-0.01 0.18 0 0.1 0.02 0.62 0.07 1.16 0.13s1.5 0.15 2.13 0.21 1.79 0.15 2.58 0.21c0.79 0.05 2 0.13 2.69 0.17 0.69 0.03 1.7 0.08 2.25 0.1 0.55 0.03 2.44 0.06 4.19 0.07 2.03 0.02 3.83 0.01 4.92-0.02 0.96-0.03 2.33-0.08 3.05-0.11 0.72-0.04 1.75-0.09 2.29-0.13 0.54-0.03 1.47-0.1 2.07-0.14 0.59-0.05 1.59-0.14 2.21-0.19 0.62-0.06 1.53-0.15 2.04-0.21 0.5-0.05 0.92-0.09 0.93-0.09 0 0.01-0.09 0.45-0.2 0.97-0.12 0.53-0.35 1.48-0.51 2.12s-0.4 1.57-0.53 2.07c-0.14 0.49-0.36 1.28-0.5 1.75s-0.41 1.31-0.6 1.88c-0.18 0.56-0.49 1.46-0.68 1.99-0.2 0.54-0.52 1.4-0.73 1.92s-0.56 1.35-0.78 1.84c-0.21 0.49-0.59 1.29-0.82 1.77-0.24 0.48-0.59 1.17-0.78 1.53-0.2 0.35-0.51 0.9-0.7 1.23-0.19 0.32-0.56 0.9-0.81 1.29-0.26 0.39-0.65 0.94-0.86 1.23-0.21 0.28-0.57 0.74-0.79 1s-0.56 0.66-0.76 0.87c-0.21 0.22-0.57 0.59-0.82 0.81-0.24 0.23-0.61 0.55-0.82 0.71s-0.57 0.42-0.81 0.58-0.68 0.41-0.97 0.55c-0.29 0.15-0.74 0.33-1 0.41-0.26 0.09-0.64 0.19-0.85 0.23-0.24 0.04-0.59 0.07-1 0.07-0.44 0-0.75-0.02-1.04-0.08-0.23-0.04-0.61-0.14-0.85-0.22-0.25-0.08-0.65-0.24-0.9-0.36s-0.64-0.33-0.85-0.46-0.57-0.38-0.8-0.55-0.59-0.46-0.8-0.65-0.57-0.53-0.8-0.76-0.62-0.67-0.87-0.96c-0.26-0.3-0.66-0.81-0.9-1.13s-0.65-0.9-0.9-1.29c-0.26-0.39-0.63-0.97-0.82-1.29-0.19-0.33-0.5-0.88-0.69-1.23-0.2-0.36-0.55-1.05-0.79-1.53-0.23-0.48-0.6-1.28-0.82-1.77s-0.57-1.32-0.77-1.83c-0.21-0.52-0.53-1.35-0.71-1.86-0.18-0.5-0.5-1.4-0.69-2-0.2-0.6-0.47-1.46-0.61-1.92-0.13-0.46-0.35-1.21-0.48-1.68-0.13-0.46-0.37-1.4-0.54-2.08-0.17-0.69-0.41-1.67-0.52-2.19-0.12-0.53-0.22-0.97-0.22-0.98z" fill="#bd9698" stroke="#bd9698" stroke-width="5" filter="url(#glow)" opacity="1" mix-blend-mode="screen">
<animate 
             attributeName="fill"
             dur="6s" 
             repeatCount="indefinite"
             keyTimes="0;
                       0.25;
                       0.5;
                       0.75;
                       1"

             values="#568ae0;
                     #788ec8;
                     #9a92b0;
                     #bd9698; #568ae0"/>
					 <animate 
             attributeName="stroke"
             dur="6s" 
             repeatCount="indefinite"
             keyTimes="0;
                       0.25;
                       0.5;
                       0.75;
                       1"

             values="#568ae0;
                     #788ec8;
                     #9a92b0;
                     #bd9698; #568ae0"/>
</path>
<path d="m296.69 324.21c-0.29 0-0.71 0.02-0.94 0.04-0.23 0.01-0.67 0.07-0.97 0.12-0.31 0.05-0.78 0.14-1.06 0.21-0.27 0.07-0.73 0.2-1.01 0.29-0.29 0.09-0.75 0.26-1.02 0.37-0.28 0.12-0.75 0.33-1.06 0.49-0.3 0.15-0.74 0.39-0.97 0.53-0.23 0.13-0.64 0.4-0.92 0.59-0.27 0.18-0.68 0.47-0.89 0.64-0.22 0.17-0.56 0.44-0.75 0.61-0.2 0.16-0.62 0.54-0.94 0.84s-0.83 0.82-1.14 1.15c-0.3 0.33-0.76 0.85-1 1.14-0.25 0.3-0.7 0.87-1 1.27s-0.77 1.08-1.06 1.5c-0.28 0.43-0.66 1.01-0.84 1.3-0.17 0.29-0.49 0.83-0.71 1.21-0.21 0.37-0.59 1.06-0.84 1.52-0.24 0.47-0.63 1.24-0.86 1.73s-0.58 1.26-0.78 1.7c-0.19 0.45-0.51 1.2-0.7 1.67s-0.49 1.26-0.68 1.76c-0.18 0.49-0.5 1.38-0.69 1.96-0.2 0.58-0.48 1.45-0.63 1.93s-0.4 1.33-0.56 1.88-0.4 1.43-0.54 1.96-0.33 1.28-0.42 1.67-0.26 1.12-0.38 1.62c-0.11 0.51-0.3 1.43-0.43 2.05-0.12 0.62-0.31 1.59-0.42 2.17-0.1 0.57-0.25 1.44-0.33 1.93-0.08 0.5-0.21 1.34-0.29 1.88s-0.21 1.5-0.3 2.13c-0.08 0.63-0.2 1.64-0.27 2.25s-0.18 1.72-0.25 2.48-0.16 1.89-0.21 2.52c-0.04 0.63-0.1 1.46-0.12 1.84s-0.07 1.29-0.1 2.02c-0.04 0.74-0.09 2.12-0.12 3.09-0.03 1.1-0.03 2.92-0.02 4.92 0.01 1.74 0.04 3.62 0.07 4.17 0.02 0.55 0.07 1.56 0.11 2.25 0.03 0.69 0.11 1.9 0.16 2.69 0.06 0.79 0.16 2.06 0.23 2.81 0.07 0.76 0.17 1.79 0.23 2.3 0.05 0.5 0.09 0.92 0.09 0.93-0.01 0-0.4-0.08-0.87-0.18-0.46-0.11-1.38-0.32-2.03-0.48s-1.64-0.42-2.19-0.57-1.41-0.4-1.9-0.54c-0.49-0.15-1.27-0.4-1.73-0.55s-1.26-0.42-1.77-0.6c-0.52-0.19-1.38-0.51-1.92-0.72s-1.25-0.51-1.59-0.65c-0.33-0.14-1.01-0.44-1.5-0.67s-1.3-0.63-1.8-0.9c-0.5-0.26-1.24-0.66-1.63-0.9-0.39-0.23-1.04-0.63-1.44-0.89-0.4-0.27-1-0.69-1.34-0.94-0.33-0.26-0.73-0.57-0.88-0.69-0.15-0.13-0.49-0.44-0.77-0.68-0.27-0.25-0.7-0.68-0.95-0.95-0.24-0.27-0.56-0.64-0.7-0.82-0.14-0.19-0.39-0.53-0.55-0.77-0.16-0.25-0.41-0.68-0.55-0.97-0.14-0.3-0.33-0.74-0.41-1s-0.18-0.64-0.22-0.85c-0.05-0.25-0.08-0.58-0.08-1.02 0-0.45 0.03-0.76 0.08-1.02 0.04-0.2 0.14-0.57 0.22-0.81s0.25-0.67 0.39-0.94c0.13-0.28 0.37-0.7 0.53-0.94s0.4-0.59 0.54-0.77 0.45-0.55 0.7-0.82 0.7-0.72 1.01-1.01c0.31-0.28 0.82-0.72 1.14-0.97 0.32-0.26 0.88-0.67 1.24-0.92s1.01-0.68 1.45-0.95c0.57-0.36 0.88-0.59 1.12-0.81 0.18-0.18 0.42-0.46 0.53-0.63s0.26-0.45 0.33-0.62c0.07-0.18 0.17-0.49 0.21-0.69 0.04-0.21 0.08-0.55 0.08-0.76 0-0.2-0.04-0.54-0.08-0.75s-0.14-0.52-0.21-0.69-0.22-0.46-0.33-0.63c-0.12-0.17-0.37-0.46-0.56-0.64s-0.45-0.39-0.58-0.47-0.38-0.2-0.56-0.28-0.48-0.17-0.68-0.21c-0.26-0.05-0.48-0.06-0.89-0.05-0.31 0.01-0.65 0.05-0.78 0.09-0.13 0.03-0.34 0.1-0.47 0.15s-0.53 0.26-0.88 0.48c-0.35 0.21-0.95 0.59-1.34 0.85s-0.95 0.66-1.25 0.87c-0.3 0.22-0.8 0.61-1.13 0.87-0.32 0.26-0.84 0.7-1.16 0.99-0.33 0.28-0.91 0.84-1.3 1.24s-0.91 0.98-1.15 1.27c-0.24 0.3-0.62 0.78-0.83 1.08-0.21 0.29-0.53 0.77-0.71 1.06-0.17 0.29-0.43 0.74-0.57 1.01-0.14 0.26-0.36 0.74-0.5 1.06s-0.33 0.82-0.42 1.11c-0.1 0.28-0.23 0.73-0.3 1s-0.17 0.76-0.23 1.11c-0.06 0.34-0.13 0.96-0.16 1.38-0.03 0.59-0.03 0.94 0.01 1.53 0.02 0.43 0.09 1.04 0.15 1.37 0.05 0.33 0.15 0.79 0.21 1.03s0.18 0.67 0.28 0.95c0.09 0.28 0.25 0.73 0.37 1 0.11 0.28 0.31 0.73 0.45 1.01 0.14 0.27 0.38 0.71 0.53 0.97 0.16 0.26 0.39 0.64 0.53 0.84 0.14 0.21 0.39 0.57 0.56 0.8 0.18 0.23 0.49 0.62 0.7 0.87 0.21 0.26 0.59 0.69 0.85 0.96 0.26 0.28 0.73 0.75 1.06 1.06 0.32 0.31 0.88 0.8 1.24 1.1 0.35 0.29 0.93 0.76 1.29 1.02 0.36 0.27 1.07 0.77 1.59 1.12 0.51 0.34 1.25 0.82 1.64 1.05s1 0.58 1.36 0.78c0.35 0.2 1.12 0.6 1.71 0.89 0.58 0.3 1.4 0.69 1.81 0.88s1.16 0.52 1.67 0.73c0.5 0.21 1.33 0.55 1.83 0.74 0.51 0.2 1.43 0.54 2.05 0.76 0.62 0.21 1.6 0.54 2.19 0.73 0.58 0.18 1.48 0.45 2 0.6 0.51 0.15 1.42 0.4 2.02 0.56s1.6 0.42 2.23 0.57 1.6 0.37 2.15 0.48c0.55 0.12 1.46 0.31 2.02 0.42l1.02 0.2 0.02 0.1c0 0.05 0.13 0.71 0.28 1.45 0.15 0.75 0.38 1.85 0.52 2.46s0.4 1.69 0.58 2.4 0.44 1.7 0.58 2.21c0.14 0.5 0.38 1.32 0.53 1.81 0.15 0.5 0.44 1.4 0.64 2.01 0.2 0.6 0.49 1.45 0.65 1.87 0.15 0.43 0.49 1.31 0.75 1.96s0.64 1.58 0.85 2.07c0.21 0.48 0.66 1.42 0.99 2.09 0.32 0.68 0.79 1.57 1.02 2 0.24 0.43 0.63 1.12 0.87 1.53 0.25 0.42 0.73 1.18 1.07 1.69 0.35 0.52 0.86 1.24 1.13 1.61 0.28 0.37 0.75 0.96 1.04 1.31 0.3 0.36 0.78 0.9 1.06 1.2s0.76 0.78 1.06 1.06 0.76 0.69 1.02 0.91 0.69 0.55 0.94 0.74 0.65 0.46 0.88 0.61 0.6 0.37 0.83 0.51c0.22 0.13 0.61 0.34 0.86 0.46 0.25 0.13 0.68 0.32 0.96 0.43 0.27 0.12 0.73 0.29 1.02 0.38 0.29 0.1 0.76 0.23 1.04 0.29 0.28 0.07 0.74 0.16 1.02 0.21 0.29 0.05 0.86 0.11 1.28 0.13 0.6 0.04 0.93 0.04 1.53 0 0.43-0.02 1.04-0.09 1.37-0.15 0.33-0.05 0.8-0.15 1.03-0.21 0.24-0.06 0.67-0.18 0.95-0.28 0.28-0.09 0.73-0.25 1.01-0.37 0.27-0.11 0.71-0.31 0.97-0.44s0.67-0.35 0.91-0.48c0.24-0.14 0.63-0.39 0.87-0.55s0.63-0.43 0.86-0.6 0.62-0.49 0.88-0.7c0.25-0.21 0.68-0.59 0.95-0.85 0.28-0.25 0.75-0.73 1.06-1.06 0.31-0.32 0.8-0.88 1.09-1.23s0.76-0.93 1.02-1.29c0.27-0.36 0.74-1.02 1.04-1.47 0.31-0.45 0.73-1.1 0.95-1.46 0.22-0.35 0.6-1 0.84-1.44 0.25-0.43 0.7-1.29 1-1.89 0.31-0.61 0.72-1.45 0.91-1.86 0.18-0.41 0.51-1.16 0.72-1.67 0.22-0.5 0.55-1.33 0.75-1.83 0.19-0.51 0.53-1.43 0.75-2.05s0.54-1.6 0.73-2.18c0.18-0.59 0.5-1.63 0.7-2.32 0.19-0.69 0.52-1.91 0.72-2.71s0.49-2.01 0.64-2.69 0.38-1.75 0.51-2.39 0.23-1.2 0.23-1.24c0-0.05 0.02-0.09 0.05-0.1s0.47-0.09 0.97-0.19c0.51-0.09 1.48-0.29 2.17-0.44s1.82-0.41 2.52-0.58c0.7-0.18 1.76-0.45 2.35-0.61 0.6-0.16 1.59-0.44 2.2-0.63 0.6-0.18 1.66-0.51 2.33-0.74 0.68-0.23 1.64-0.56 2.13-0.74 0.49-0.19 1.27-0.49 1.73-0.67 0.46-0.19 1.12-0.46 1.46-0.61 0.34-0.14 0.92-0.4 1.29-0.57 0.37-0.16 1.1-0.51 1.63-0.78 0.53-0.26 1.29-0.66 1.69-0.88 0.4-0.21 1.05-0.59 1.46-0.83 0.4-0.24 0.96-0.59 1.25-0.78 0.28-0.18 0.73-0.48 1-0.66 0.26-0.18 0.76-0.54 1.1-0.8 0.35-0.26 0.92-0.72 1.27-1.01 0.36-0.3 0.91-0.79 1.22-1.08 0.32-0.3 0.79-0.77 1.06-1.06s0.67-0.74 0.89-1 0.55-0.69 0.74-0.94c0.18-0.25 0.43-0.6 0.54-0.77 0.12-0.17 0.34-0.52 0.49-0.78s0.39-0.7 0.53-0.97c0.14-0.28 0.34-0.73 0.46-1.01 0.11-0.27 0.28-0.73 0.37-1.02 0.1-0.29 0.23-0.75 0.29-1.04 0.07-0.28 0.16-0.74 0.21-1.02 0.04-0.29 0.1-0.77 0.13-1.08 0.02-0.31 0.04-0.75 0.04-0.99 0-0.23-0.02-0.66-0.05-0.96-0.02-0.29-0.08-0.77-0.12-1.07-0.05-0.3-0.14-0.76-0.21-1.03s-0.2-0.73-0.29-1.02c-0.09-0.28-0.26-0.75-0.38-1.03-0.11-0.28-0.36-0.81-0.55-1.18s-0.49-0.89-0.65-1.15c-0.17-0.26-0.43-0.65-0.57-0.86-0.15-0.22-0.43-0.58-0.61-0.82-0.19-0.23-0.46-0.56-0.61-0.73-0.15-0.18-0.48-0.54-0.73-0.81-0.25-0.26-0.74-0.75-1.08-1.07-0.35-0.32-0.88-0.78-1.18-1.03-0.3-0.26-0.88-0.71-1.29-1.02s-1.11-0.79-1.54-1.08c-0.44-0.29-1.04-0.68-1.34-0.86s-0.92-0.55-1.39-0.81c-0.47-0.27-1.26-0.69-1.76-0.94-0.49-0.25-1.14-0.57-1.45-0.72-0.3-0.14-0.95-0.43-1.45-0.65s-1.23-0.53-1.64-0.69c-0.4-0.17-1.14-0.45-1.65-0.64-0.5-0.19-1.34-0.49-1.85-0.67-0.52-0.17-1.35-0.45-1.84-0.6-0.49-0.16-1.25-0.4-1.69-0.52-0.43-0.13-1.25-0.36-1.81-0.51s-1.47-0.38-2.02-0.52c-0.55-0.13-1.56-0.37-2.24-0.52-0.67-0.14-1.6-0.34-2.06-0.43-0.46-0.1-1.25-0.25-1.75-0.34-0.51-0.09-1.31-0.23-1.79-0.31-0.49-0.08-1.32-0.21-1.86-0.29s-1.4-0.21-1.92-0.27c-0.51-0.07-1.41-0.18-2-0.25-0.58-0.07-1.44-0.17-1.9-0.21-0.45-0.05-1.25-0.12-1.77-0.17-0.51-0.05-1.44-0.12-2.06-0.17-0.62-0.04-1.64-0.11-2.28-0.14-0.63-0.04-1.55-0.09-2.04-0.11s-1.67-0.06-2.63-0.09c-0.95-0.02-2.34-0.04-3.08-0.03l-1.36 0.02-0.29 0.09c-0.16 0.05-0.4 0.14-0.54 0.2-0.13 0.06-0.38 0.19-0.54 0.3-0.16 0.1-0.43 0.32-0.59 0.49-0.16 0.16-0.35 0.38-0.43 0.49-0.07 0.1-0.19 0.32-0.27 0.48s-0.2 0.45-0.26 0.66c-0.1 0.33-0.11 0.43-0.11 1 0 0.5 0.01 0.68 0.08 0.94 0.05 0.18 0.16 0.47 0.24 0.64 0.08 0.18 0.23 0.44 0.33 0.58s0.3 0.38 0.45 0.52c0.15 0.15 0.39 0.35 0.55 0.45 0.16 0.11 0.42 0.25 0.57 0.31 0.16 0.07 0.44 0.17 0.62 0.21l0.32 0.09 2.21 0.03c1.22 0.02 2.76 0.06 3.42 0.08 0.66 0.03 1.72 0.08 2.35 0.11 0.64 0.03 1.68 0.1 2.34 0.15 0.65 0.04 1.7 0.13 2.33 0.18 0.64 0.06 1.59 0.15 2.13 0.21s1.44 0.16 2 0.23c0.57 0.07 1.48 0.19 2.05 0.27 0.56 0.09 1.43 0.22 1.94 0.3 0.5 0.08 1.34 0.22 1.85 0.31 0.52 0.09 1.37 0.25 1.9 0.35 0.53 0.11 1.51 0.31 2.19 0.46 0.67 0.15 1.68 0.38 2.23 0.52s1.35 0.34 1.79 0.46 1.18 0.32 1.65 0.46 1.3 0.39 1.85 0.57c0.55 0.17 1.38 0.45 1.85 0.61 0.48 0.17 1.2 0.43 1.62 0.59 0.41 0.16 1.14 0.45 1.62 0.65s1.14 0.48 1.46 0.62 1.03 0.48 1.59 0.75c0.55 0.27 1.26 0.64 1.58 0.82 0.32 0.17 0.91 0.51 1.31 0.75s0.97 0.6 1.27 0.81c0.3 0.2 0.81 0.56 1.13 0.8s0.76 0.58 0.97 0.76c0.22 0.18 0.58 0.5 0.82 0.72 0.23 0.21 0.61 0.59 0.83 0.84 0.23 0.24 0.55 0.61 0.71 0.82s0.42 0.57 0.58 0.81 0.41 0.68 0.56 0.98c0.14 0.29 0.33 0.75 0.41 1s0.18 0.63 0.22 0.84c0.05 0.25 0.07 0.58 0.07 1.02s-0.02 0.77-0.07 1.02c-0.04 0.21-0.14 0.59-0.22 0.85-0.09 0.26-0.27 0.7-0.42 1-0.14 0.29-0.39 0.72-0.55 0.97-0.16 0.24-0.42 0.6-0.58 0.81-0.16 0.2-0.48 0.58-0.71 0.82-0.22 0.25-0.59 0.61-0.81 0.81-0.21 0.21-0.61 0.55-0.87 0.77s-0.71 0.58-1 0.79-0.84 0.6-1.23 0.85c-0.39 0.26-0.97 0.63-1.29 0.82s-0.88 0.5-1.23 0.7c-0.36 0.19-1.04 0.54-1.53 0.78-0.48 0.23-1.28 0.6-1.77 0.82-0.5 0.22-1.32 0.57-1.84 0.78-0.51 0.2-1.37 0.53-1.91 0.72-0.54 0.2-1.44 0.51-2 0.69-0.56 0.19-1.41 0.45-1.88 0.59s-1.26 0.37-1.75 0.51c-0.5 0.13-1.43 0.37-2.07 0.53-0.65 0.16-1.6 0.39-2.13 0.51-0.52 0.11-0.95 0.2-0.96 0.19 0-0.01 0.04-0.44 0.09-0.97 0.06-0.52 0.17-1.54 0.23-2.27 0.07-0.72 0.17-1.98 0.23-2.79 0.06-0.82 0.13-2.02 0.17-2.67 0.03-0.65 0.08-1.74 0.11-2.42 0.02-0.68 0.05-2.27 0.05-3.54l0.01-2.32-0.08-0.27c-0.04-0.15-0.13-0.4-0.2-0.55-0.06-0.16-0.2-0.41-0.3-0.57-0.1-0.15-0.28-0.38-0.4-0.51s-0.34-0.33-0.48-0.44c-0.14-0.1-0.4-0.26-0.58-0.35-0.17-0.09-0.48-0.21-0.68-0.28-0.33-0.09-0.44-0.11-1-0.11-0.5 0-0.68 0.02-0.94 0.09-0.18 0.05-0.47 0.16-0.64 0.24-0.18 0.08-0.44 0.23-0.58 0.33s-0.37 0.3-0.52 0.45c-0.14 0.14-0.35 0.39-0.45 0.55-0.11 0.15-0.25 0.41-0.31 0.57-0.07 0.16-0.16 0.44-0.21 0.61l-0.09 0.33-0.03 2.27c-0.02 1.26-0.05 2.8-0.08 3.42-0.02 0.63-0.08 1.65-0.11 2.27s-0.09 1.53-0.12 2.02c-0.04 0.5-0.11 1.34-0.15 1.88-0.05 0.54-0.13 1.45-0.19 2.02-0.06 0.58-0.17 1.6-0.25 2.28-0.08 0.67-0.17 1.41-0.2 1.63-0.03 0.23-0.07 0.42-0.08 0.44-0.02 0.01-0.21 0.05-0.44 0.08-0.22 0.03-0.96 0.12-1.63 0.2-0.68 0.08-1.8 0.2-2.5 0.27s-1.73 0.16-2.3 0.21c-0.56 0.05-1.61 0.12-2.33 0.17-0.72 0.04-1.76 0.1-2.3 0.12-0.53 0.03-1.57 0.06-2.29 0.09-0.72 0.02-2.46 0.04-3.86 0.04s-3.15-0.02-3.9-0.04c-0.74-0.03-1.77-0.06-2.29-0.09-0.52-0.02-1.4-0.07-1.96-0.1-0.56-0.04-1.27-0.08-1.58-0.11-0.31-0.02-0.91-0.07-1.34-0.1-0.42-0.04-1.33-0.12-2.03-0.19-0.69-0.07-1.8-0.19-2.48-0.27-0.67-0.08-1.41-0.17-1.65-0.2-0.23-0.03-0.44-0.07-0.46-0.08-0.01-0.02-0.05-0.21-0.08-0.44-0.03-0.22-0.12-0.96-0.2-1.63-0.08-0.68-0.19-1.7-0.25-2.28-0.06-0.57-0.15-1.59-0.21-2.27-0.05-0.68-0.14-1.84-0.18-2.59-0.05-0.74-0.11-1.74-0.13-2.23-0.02-0.48-0.06-1.62-0.09-2.54-0.03-1.05-0.04-2.82-0.02-4.75 0.01-1.7 0.04-3.55 0.06-4.11 0.03-0.56 0.08-1.57 0.11-2.23 0.04-0.67 0.1-1.74 0.15-2.38s0.14-1.79 0.21-2.54c0.07-0.76 0.18-1.88 0.25-2.48 0.07-0.61 0.18-1.54 0.25-2.07s0.17-1.29 0.23-1.69 0.18-1.2 0.27-1.77 0.26-1.55 0.37-2.17c0.12-0.62 0.3-1.59 0.42-2.17 0.12-0.57 0.33-1.54 0.46-2.14 0.14-0.61 0.38-1.59 0.53-2.17 0.14-0.59 0.36-1.4 0.47-1.82 0.12-0.41 0.34-1.19 0.51-1.73 0.16-0.54 0.43-1.39 0.59-1.89 0.17-0.51 0.44-1.3 0.61-1.76 0.16-0.45 0.44-1.18 0.6-1.6 0.17-0.43 0.47-1.15 0.66-1.61 0.2-0.46 0.53-1.2 0.74-1.64 0.21-0.45 0.55-1.14 0.75-1.53s0.52-0.98 0.71-1.31 0.47-0.82 0.64-1.08c0.16-0.27 0.45-0.73 0.65-1.02 0.2-0.3 0.56-0.81 0.8-1.13s0.58-0.76 0.76-0.97c0.18-0.22 0.51-0.59 0.73-0.82 0.22-0.24 0.59-0.61 0.81-0.82 0.23-0.2 0.57-0.5 0.75-0.65 0.19-0.15 0.57-0.42 0.84-0.6 0.27-0.19 0.68-0.43 0.92-0.55 0.23-0.11 0.58-0.27 0.78-0.35s0.55-0.19 0.77-0.24c0.23-0.06 0.6-0.13 0.82-0.15 0.25-0.03 0.6-0.04 0.86-0.03 0.24 0.01 0.6 0.06 0.79 0.09 0.19 0.04 0.55 0.14 0.79 0.22 0.25 0.07 0.67 0.25 0.95 0.39 0.27 0.13 0.69 0.37 0.93 0.53s0.59 0.4 0.77 0.54c0.17 0.14 0.53 0.44 0.79 0.67 0.26 0.24 0.66 0.63 0.89 0.88 0.23 0.24 0.58 0.64 0.78 0.88 0.21 0.24 0.55 0.68 0.78 0.98 0.22 0.3 0.56 0.78 0.76 1.07 0.19 0.29 0.53 0.82 0.76 1.18 0.28 0.45 0.51 0.77 0.72 0.99 0.18 0.18 0.46 0.42 0.63 0.54 0.17 0.11 0.45 0.26 0.63 0.33 0.17 0.07 0.48 0.17 0.69 0.21 0.2 0.04 0.54 0.08 0.75 0.08s0.54-0.04 0.75-0.08 0.49-0.13 0.64-0.19 0.4-0.19 0.56-0.28 0.43-0.3 0.6-0.47c0.17-0.16 0.4-0.41 0.5-0.55s0.25-0.42 0.34-0.61 0.2-0.48 0.24-0.64c0.06-0.22 0.08-0.43 0.08-0.94 0-0.47-0.02-0.71-0.07-0.89-0.04-0.14-0.11-0.36-0.16-0.49s-0.27-0.54-0.48-0.89c-0.22-0.36-0.6-0.96-0.85-1.33-0.25-0.38-0.64-0.94-0.86-1.24-0.22-0.31-0.62-0.82-0.88-1.14-0.25-0.32-0.7-0.85-0.99-1.17-0.28-0.32-0.82-0.88-1.2-1.25-0.37-0.36-0.91-0.85-1.18-1.08-0.28-0.23-0.65-0.53-0.84-0.67-0.18-0.14-0.55-0.41-0.83-0.59-0.28-0.19-0.65-0.43-0.83-0.54-0.19-0.11-0.62-0.34-0.97-0.52s-0.88-0.42-1.17-0.53c-0.3-0.12-0.72-0.27-0.93-0.34-0.22-0.07-0.62-0.19-0.89-0.25-0.28-0.07-0.76-0.18-1.09-0.23-0.32-0.06-0.85-0.12-1.17-0.14-0.32-0.03-0.82-0.05-1.1-0.04zm46.13 0.18c-0.57-0.01-1.11-0.01-1.2 0-0.1 0.01-0.42 0.05-0.71 0.08-0.3 0.04-0.72 0.1-0.93 0.15-0.21 0.04-0.56 0.12-0.79 0.18s-0.66 0.19-0.95 0.29c-0.3 0.1-0.71 0.25-0.92 0.34-0.21 0.08-0.63 0.28-0.94 0.44s-0.79 0.43-1.06 0.6c-0.28 0.17-0.72 0.47-0.99 0.68-0.27 0.2-0.7 0.56-0.96 0.8-0.27 0.23-0.67 0.64-0.9 0.89-0.23 0.26-0.55 0.63-0.7 0.82-0.15 0.2-0.44 0.6-0.64 0.9s-0.47 0.76-0.62 1.02c-0.14 0.27-0.35 0.69-0.46 0.94-0.12 0.25-0.3 0.7-0.4 1-0.11 0.3-0.27 0.82-0.36 1.17-0.09 0.34-0.2 0.85-0.24 1.12-0.05 0.28-0.11 0.71-0.14 0.96-0.03 0.26-0.05 0.89-0.05 1.44 0 0.63 0.03 1.17 0.07 1.53 0.04 0.3 0.12 0.79 0.18 1.09 0.05 0.3 0.17 0.81 0.27 1.13 0.09 0.32 0.26 0.84 0.39 1.16 0.12 0.31 0.3 0.73 0.39 0.93 0.09 0.19 0.26 0.53 0.38 0.75s0.37 0.63 0.56 0.92c0.19 0.28 0.51 0.73 0.72 1 0.2 0.26 0.67 0.78 1.04 1.15 0.36 0.37 0.87 0.83 1.12 1.03 0.26 0.2 0.68 0.51 0.94 0.69 0.27 0.18 0.73 0.46 1.02 0.63 0.3 0.17 0.74 0.39 0.98 0.5s0.65 0.28 0.9 0.37 0.68 0.24 0.96 0.32c0.27 0.08 0.77 0.2 1.11 0.27 0.33 0.07 0.85 0.15 1.16 0.19 0.39 0.05 0.88 0.07 1.59 0.07 0.7 0 1.19-0.02 1.58-0.07 0.31-0.04 0.76-0.11 1-0.15 0.24-0.05 0.69-0.15 0.99-0.23 0.31-0.08 0.79-0.23 1.08-0.33 0.28-0.11 0.74-0.29 1.02-0.42 0.27-0.12 0.71-0.34 0.97-0.48s0.7-0.41 0.99-0.6 0.68-0.47 0.87-0.63c0.2-0.15 0.57-0.46 0.82-0.69 0.26-0.23 0.66-0.63 0.89-0.89 0.23-0.25 0.51-0.59 0.64-0.75 0.12-0.17 0.34-0.45 0.48-0.65 0.13-0.19 0.36-0.54 0.5-0.77 0.13-0.23 0.36-0.65 0.5-0.93 0.15-0.28 0.33-0.67 0.41-0.87s0.24-0.61 0.34-0.91 0.24-0.77 0.31-1.04c0.07-0.28 0.17-0.76 0.22-1.09 0.06-0.32 0.12-0.85 0.15-1.18 0.03-0.38 0.04-0.93 0.03-1.48-0.02-0.49-0.06-1.1-0.09-1.36-0.04-0.27-0.11-0.68-0.15-0.92-0.05-0.24-0.16-0.68-0.24-0.98s-0.23-0.77-0.33-1.06c-0.1-0.28-0.31-0.77-0.45-1.08-0.14-0.32-0.38-0.78-0.52-1.03-0.15-0.25-0.41-0.67-0.59-0.94-0.18-0.26-0.47-0.66-0.64-0.87-0.18-0.22-0.52-0.62-0.78-0.89-0.25-0.26-0.65-0.66-0.9-0.87-0.24-0.21-0.65-0.54-0.91-0.72-0.25-0.19-0.67-0.47-0.92-0.63s-0.72-0.42-1.04-0.58-0.83-0.4-1.13-0.51c-0.3-0.12-0.8-0.3-1.11-0.39-0.3-0.09-0.82-0.22-1.15-0.29-0.32-0.07-0.82-0.16-1.1-0.19-0.32-0.05-0.91-0.08-1.56-0.08zm-0.25 7.49c0.28-0.01 0.67 0.01 0.86 0.04 0.19 0.02 0.56 0.09 0.81 0.16 0.25 0.06 0.63 0.19 0.85 0.28 0.21 0.09 0.52 0.25 0.69 0.35 0.17 0.09 0.47 0.29 0.66 0.44 0.19 0.14 0.53 0.44 0.75 0.67s0.51 0.59 0.66 0.81c0.14 0.21 0.32 0.52 0.4 0.68 0.09 0.16 0.21 0.45 0.29 0.65 0.07 0.19 0.19 0.58 0.25 0.85 0.09 0.38 0.12 0.66 0.13 1.13 0.02 0.46 0 0.75-0.05 1.1-0.03 0.25-0.11 0.63-0.17 0.83s-0.17 0.52-0.25 0.72c-0.08 0.19-0.23 0.5-0.33 0.69-0.11 0.18-0.33 0.5-0.49 0.71-0.16 0.22-0.46 0.55-0.66 0.74-0.21 0.19-0.54 0.47-0.75 0.61-0.2 0.13-0.53 0.33-0.73 0.43-0.21 0.11-0.52 0.24-0.71 0.31-0.18 0.07-0.5 0.16-0.71 0.21-0.2 0.05-0.58 0.11-0.83 0.14-0.27 0.03-0.65 0.04-0.91 0.02-0.25-0.02-0.64-0.07-0.87-0.11s-0.58-0.13-0.76-0.19c-0.19-0.06-0.52-0.2-0.75-0.31s-0.55-0.28-0.72-0.38c-0.16-0.11-0.46-0.33-0.67-0.51-0.2-0.17-0.5-0.47-0.67-0.66-0.16-0.19-0.38-0.49-0.5-0.66-0.11-0.17-0.28-0.46-0.37-0.65-0.1-0.19-0.24-0.53-0.32-0.76s-0.19-0.62-0.23-0.86c-0.05-0.24-0.1-0.65-0.11-0.91-0.02-0.26-0.01-0.65 0.02-0.88 0.02-0.23 0.07-0.55 0.11-0.72 0.03-0.17 0.11-0.45 0.17-0.63s0.21-0.55 0.35-0.82c0.13-0.28 0.36-0.67 0.5-0.88 0.15-0.2 0.45-0.55 0.66-0.77 0.22-0.22 0.53-0.5 0.69-0.61 0.16-0.12 0.43-0.3 0.61-0.41s0.51-0.27 0.72-0.36 0.56-0.21 0.76-0.27c0.21-0.06 0.54-0.13 0.75-0.16 0.2-0.03 0.6-0.06 0.87-0.06zm81.32 15.11c-19.87 0-36.03 16.58-36.03 37.07s16.16 37.06 36.03 37.06c17.51 0 32.13-12.86 35.32-29.96 0.2-0.92 0.41-2.36 0.51-3.91 0.11-2.47-1.85-4.53-4.32-4.53-2.26 0-4.12 1.65-4.22 3.91-0.21 1.65-0.41 3.5-0.62 4.53-3.09 12.36-13.9 21.52-26.67 21.52-15.13 0-27.49-12.87-27.49-28.62s12.36-28.52 27.49-28.52c10.09 0 18.85 5.56 23.68 14 0.72 1.34 2.17 2.17 3.71 2.17 3.3 0 5.36-3.51 3.71-6.39-6.28-11.02-17.81-18.33-31.1-18.33zm-53.15 1.03c-2.26 0-4.22 1.96-4.22 4.22v63.64c0 2.26 1.96 4.22 4.22 4.22 2.37 0 4.33-1.96 4.33-4.22v-63.64c0-2.26-1.96-4.22-4.33-4.22zm104.44 0c-2.26 0-4.22 1.96-4.22 4.22v39.95c0 15.96 12.98 28.93 28.93 28.93 15.96 0 28.94-12.97 28.94-28.93v-39.95c0-2.26-1.96-4.22-4.33-4.22-2.26 0-4.22 1.96-4.22 4.22v39.95c0 11.33-9.16 20.39-20.39 20.39-11.22 0-20.38-9.06-20.38-20.39v-39.95c0-2.26-1.96-4.22-4.33-4.22zm91.3 0c-1.85 0-3.4 1.14-4.12 2.78l-25.94 63.22c-1.13 2.68 0.72 5.77 3.7 6.08h0.31 0.11 30.88c2.37 0 4.23-1.96 4.23-4.22 0-2.37-1.86-4.33-4.23-4.33h-24.4l19.26-46.95 1.23-3.09 1.24 3.09 21.72 52.72c0.62 1.64 2.27 2.78 4.12 2.78 3.09 0 5.25-3.2 4.02-6.08l-25.85-63.22c-0.72-1.64-2.37-2.78-4.12-2.78h-2.16zm47.18 0c-2.26 0-4.22 1.96-4.22 4.22v63.64c0 2.26 1.96 4.22 4.22 4.22 2.37 0 4.33-1.96 4.33-4.22v-63.64c0-2.26-1.96-4.22-4.33-4.22zm48.81 0c-2.17 0.21-3.81 2.27-3.81 4.43v53.85l-26.26-37.58c-0.72-1.13-2.06-1.85-3.4-1.85-3.08 0.1-4.94 3.6-3.19 6.17l31.2 44.69c1.03 1.44 2.68 2.37 4.53 2.37 3.09 0 5.66-2.48 5.66-5.56v-62.3c0-2.47-2.16-4.42-4.73-4.22zm18.61 0c-3.2 0-5.05 3.5-3.4 6.18l11.32 17.51c0.72 1.23 2.06 1.85 3.4 1.85 3.19 0 5.15-3.5 3.4-6.18l-11.33-17.5c-0.72-1.14-1.95-1.86-3.29-1.86h-0.1zm43.24 0c-1.34 0-2.68 0.72-3.4 1.96l-22.44 36.45v29.65c0 2.27 1.75 4.02 4.01 4.02h0.52c2.16 0 4.01-1.75 4.01-4.02v-29.65l0.52-0.83 20.18-31.4c1.75-2.68-0.21-6.18-3.4-6.18zm30.18 0c-1.85 0-3.39 1.14-4.11 2.78l-25.95 63.22c-1.13 2.68 0.72 5.77 3.71 6.08h0.31 0.1 30.89c2.37 0 4.22-1.96 4.22-4.22 0-2.37-1.85-4.33-4.22-4.33h-24.41l19.26-46.95 1.24-3.09 1.23 3.09 21.72 52.72c0.62 1.64 2.27 2.78 4.12 2.78 3.09 0 5.25-3.2 4.02-6.08l-25.84-63.22c-0.73-1.64-2.37-2.78-4.12-2.78h-2.17zm-329.06 34.7c-2.37 0-4.33 1.86-4.33 4.22 0 2.37 1.96 4.22 4.33 4.22h14.1c2.37 0 4.23-1.85 4.23-4.22 0-2.36-1.86-4.22-4.23-4.22h-14.1zm-144.98 26.73c0-0.01 0.08-0.01 0.18 0 0.1 0.02 0.62 0.07 1.16 0.13s1.5 0.15 2.13 0.21 1.79 0.15 2.58 0.21c0.79 0.05 2 0.13 2.69 0.17 0.69 0.03 1.7 0.08 2.25 0.1 0.55 0.03 2.44 0.06 4.19 0.07 2.03 0.02 3.83 0.01 4.92-0.02 0.96-0.03 2.33-0.08 3.05-0.11 0.72-0.04 1.75-0.09 2.29-0.13 0.54-0.03 1.47-0.1 2.07-0.14 0.59-0.05 1.59-0.14 2.21-0.19 0.62-0.06 1.53-0.15 2.04-0.21 0.5-0.05 0.92-0.09 0.93-0.09 0 0.01-0.09 0.45-0.2 0.97-0.12 0.53-0.35 1.48-0.51 2.12s-0.4 1.57-0.53 2.07c-0.14 0.49-0.36 1.28-0.5 1.75s-0.41 1.31-0.6 1.88c-0.18 0.56-0.49 1.46-0.68 1.99-0.2 0.54-0.52 1.4-0.73 1.92s-0.56 1.35-0.78 1.84c-0.21 0.49-0.59 1.29-0.82 1.77-0.24 0.48-0.59 1.17-0.78 1.53-0.2 0.35-0.51 0.9-0.7 1.23-0.19 0.32-0.56 0.9-0.81 1.29-0.26 0.39-0.65 0.94-0.86 1.23-0.21 0.28-0.57 0.74-0.79 1s-0.56 0.66-0.76 0.87c-0.21 0.22-0.57 0.59-0.82 0.81-0.24 0.23-0.61 0.55-0.82 0.71s-0.57 0.42-0.81 0.58-0.68 0.41-0.97 0.55c-0.29 0.15-0.74 0.33-1 0.41-0.26 0.09-0.64 0.19-0.85 0.23-0.24 0.04-0.59 0.07-1 0.07-0.44 0-0.75-0.02-1.04-0.08-0.23-0.04-0.61-0.14-0.85-0.22-0.25-0.08-0.65-0.24-0.9-0.36s-0.64-0.33-0.85-0.46-0.57-0.38-0.8-0.55-0.59-0.46-0.8-0.65-0.57-0.53-0.8-0.76-0.62-0.67-0.87-0.96c-0.26-0.3-0.66-0.81-0.9-1.13s-0.65-0.9-0.9-1.29c-0.26-0.39-0.63-0.97-0.82-1.29-0.19-0.33-0.5-0.88-0.69-1.23-0.2-0.36-0.55-1.05-0.79-1.53-0.23-0.48-0.6-1.28-0.82-1.77s-0.57-1.32-0.77-1.83c-0.21-0.52-0.53-1.35-0.71-1.86-0.18-0.5-0.5-1.4-0.69-2-0.2-0.6-0.47-1.46-0.61-1.92-0.13-0.46-0.35-1.21-0.48-1.68-0.13-0.46-0.37-1.4-0.54-2.08-0.17-0.69-0.41-1.67-0.52-2.19-0.12-0.53-0.22-0.97-0.22-0.98z" transform="translate(3 15)" fill="#000000" stroke="#000000" stroke-width="2" filter="url(#shadow)" opacity="0.3" mix-blend-mode="multiply" />
<path d="m296.69 324.21c-0.29 0-0.71 0.02-0.94 0.04-0.23 0.01-0.67 0.07-0.97 0.12-0.31 0.05-0.78 0.14-1.06 0.21-0.27 0.07-0.73 0.2-1.01 0.29-0.29 0.09-0.75 0.26-1.02 0.37-0.28 0.12-0.75 0.33-1.06 0.49-0.3 0.15-0.74 0.39-0.97 0.53-0.23 0.13-0.64 0.4-0.92 0.59-0.27 0.18-0.68 0.47-0.89 0.64-0.22 0.17-0.56 0.44-0.75 0.61-0.2 0.16-0.62 0.54-0.94 0.84s-0.83 0.82-1.14 1.15c-0.3 0.33-0.76 0.85-1 1.14-0.25 0.3-0.7 0.87-1 1.27s-0.77 1.08-1.06 1.5c-0.28 0.43-0.66 1.01-0.84 1.3-0.17 0.29-0.49 0.83-0.71 1.21-0.21 0.37-0.59 1.06-0.84 1.52-0.24 0.47-0.63 1.24-0.86 1.73s-0.58 1.26-0.78 1.7c-0.19 0.45-0.51 1.2-0.7 1.67s-0.49 1.26-0.68 1.76c-0.18 0.49-0.5 1.38-0.69 1.96-0.2 0.58-0.48 1.45-0.63 1.93s-0.4 1.33-0.56 1.88-0.4 1.43-0.54 1.96-0.33 1.28-0.42 1.67-0.26 1.12-0.38 1.62c-0.11 0.51-0.3 1.43-0.43 2.05-0.12 0.62-0.31 1.59-0.42 2.17-0.1 0.57-0.25 1.44-0.33 1.93-0.08 0.5-0.21 1.34-0.29 1.88s-0.21 1.5-0.3 2.13c-0.08 0.63-0.2 1.64-0.27 2.25s-0.18 1.72-0.25 2.48-0.16 1.89-0.21 2.52c-0.04 0.63-0.1 1.46-0.12 1.84s-0.07 1.29-0.1 2.02c-0.04 0.74-0.09 2.12-0.12 3.09-0.03 1.1-0.03 2.92-0.02 4.92 0.01 1.74 0.04 3.62 0.07 4.17 0.02 0.55 0.07 1.56 0.11 2.25 0.03 0.69 0.11 1.9 0.16 2.69 0.06 0.79 0.16 2.06 0.23 2.81 0.07 0.76 0.17 1.79 0.23 2.3 0.05 0.5 0.09 0.92 0.09 0.93-0.01 0-0.4-0.08-0.87-0.18-0.46-0.11-1.38-0.32-2.03-0.48s-1.64-0.42-2.19-0.57-1.41-0.4-1.9-0.54c-0.49-0.15-1.27-0.4-1.73-0.55s-1.26-0.42-1.77-0.6c-0.52-0.19-1.38-0.51-1.92-0.72s-1.25-0.51-1.59-0.65c-0.33-0.14-1.01-0.44-1.5-0.67s-1.3-0.63-1.8-0.9c-0.5-0.26-1.24-0.66-1.63-0.9-0.39-0.23-1.04-0.63-1.44-0.89-0.4-0.27-1-0.69-1.34-0.94-0.33-0.26-0.73-0.57-0.88-0.69-0.15-0.13-0.49-0.44-0.77-0.68-0.27-0.25-0.7-0.68-0.95-0.95-0.24-0.27-0.56-0.64-0.7-0.82-0.14-0.19-0.39-0.53-0.55-0.77-0.16-0.25-0.41-0.68-0.55-0.97-0.14-0.3-0.33-0.74-0.41-1s-0.18-0.64-0.22-0.85c-0.05-0.25-0.08-0.58-0.08-1.02 0-0.45 0.03-0.76 0.08-1.02 0.04-0.2 0.14-0.57 0.22-0.81s0.25-0.67 0.39-0.94c0.13-0.28 0.37-0.7 0.53-0.94s0.4-0.59 0.54-0.77 0.45-0.55 0.7-0.82 0.7-0.72 1.01-1.01c0.31-0.28 0.82-0.72 1.14-0.97 0.32-0.26 0.88-0.67 1.24-0.92s1.01-0.68 1.45-0.95c0.57-0.36 0.88-0.59 1.12-0.81 0.18-0.18 0.42-0.46 0.53-0.63s0.26-0.45 0.33-0.62c0.07-0.18 0.17-0.49 0.21-0.69 0.04-0.21 0.08-0.55 0.08-0.76 0-0.2-0.04-0.54-0.08-0.75s-0.14-0.52-0.21-0.69-0.22-0.46-0.33-0.63c-0.12-0.17-0.37-0.46-0.56-0.64s-0.45-0.39-0.58-0.47-0.38-0.2-0.56-0.28-0.48-0.17-0.68-0.21c-0.26-0.05-0.48-0.06-0.89-0.05-0.31 0.01-0.65 0.05-0.78 0.09-0.13 0.03-0.34 0.1-0.47 0.15s-0.53 0.26-0.88 0.48c-0.35 0.21-0.95 0.59-1.34 0.85s-0.95 0.66-1.25 0.87c-0.3 0.22-0.8 0.61-1.13 0.87-0.32 0.26-0.84 0.7-1.16 0.99-0.33 0.28-0.91 0.84-1.3 1.24s-0.91 0.98-1.15 1.27c-0.24 0.3-0.62 0.78-0.83 1.08-0.21 0.29-0.53 0.77-0.71 1.06-0.17 0.29-0.43 0.74-0.57 1.01-0.14 0.26-0.36 0.74-0.5 1.06s-0.33 0.82-0.42 1.11c-0.1 0.28-0.23 0.73-0.3 1s-0.17 0.76-0.23 1.11c-0.06 0.34-0.13 0.96-0.16 1.38-0.03 0.59-0.03 0.94 0.01 1.53 0.02 0.43 0.09 1.04 0.15 1.37 0.05 0.33 0.15 0.79 0.21 1.03s0.18 0.67 0.28 0.95c0.09 0.28 0.25 0.73 0.37 1 0.11 0.28 0.31 0.73 0.45 1.01 0.14 0.27 0.38 0.71 0.53 0.97 0.16 0.26 0.39 0.64 0.53 0.84 0.14 0.21 0.39 0.57 0.56 0.8 0.18 0.23 0.49 0.62 0.7 0.87 0.21 0.26 0.59 0.69 0.85 0.96 0.26 0.28 0.73 0.75 1.06 1.06 0.32 0.31 0.88 0.8 1.24 1.1 0.35 0.29 0.93 0.76 1.29 1.02 0.36 0.27 1.07 0.77 1.59 1.12 0.51 0.34 1.25 0.82 1.64 1.05s1 0.58 1.36 0.78c0.35 0.2 1.12 0.6 1.71 0.89 0.58 0.3 1.4 0.69 1.81 0.88s1.16 0.52 1.67 0.73c0.5 0.21 1.33 0.55 1.83 0.74 0.51 0.2 1.43 0.54 2.05 0.76 0.62 0.21 1.6 0.54 2.19 0.73 0.58 0.18 1.48 0.45 2 0.6 0.51 0.15 1.42 0.4 2.02 0.56s1.6 0.42 2.23 0.57 1.6 0.37 2.15 0.48c0.55 0.12 1.46 0.31 2.02 0.42l1.02 0.2 0.02 0.1c0 0.05 0.13 0.71 0.28 1.45 0.15 0.75 0.38 1.85 0.52 2.46s0.4 1.69 0.58 2.4 0.44 1.7 0.58 2.21c0.14 0.5 0.38 1.32 0.53 1.81 0.15 0.5 0.44 1.4 0.64 2.01 0.2 0.6 0.49 1.45 0.65 1.87 0.15 0.43 0.49 1.31 0.75 1.96s0.64 1.58 0.85 2.07c0.21 0.48 0.66 1.42 0.99 2.09 0.32 0.68 0.79 1.57 1.02 2 0.24 0.43 0.63 1.12 0.87 1.53 0.25 0.42 0.73 1.18 1.07 1.69 0.35 0.52 0.86 1.24 1.13 1.61 0.28 0.37 0.75 0.96 1.04 1.31 0.3 0.36 0.78 0.9 1.06 1.2s0.76 0.78 1.06 1.06 0.76 0.69 1.02 0.91 0.69 0.55 0.94 0.74 0.65 0.46 0.88 0.61 0.6 0.37 0.83 0.51c0.22 0.13 0.61 0.34 0.86 0.46 0.25 0.13 0.68 0.32 0.96 0.43 0.27 0.12 0.73 0.29 1.02 0.38 0.29 0.1 0.76 0.23 1.04 0.29 0.28 0.07 0.74 0.16 1.02 0.21 0.29 0.05 0.86 0.11 1.28 0.13 0.6 0.04 0.93 0.04 1.53 0 0.43-0.02 1.04-0.09 1.37-0.15 0.33-0.05 0.8-0.15 1.03-0.21 0.24-0.06 0.67-0.18 0.95-0.28 0.28-0.09 0.73-0.25 1.01-0.37 0.27-0.11 0.71-0.31 0.97-0.44s0.67-0.35 0.91-0.48c0.24-0.14 0.63-0.39 0.87-0.55s0.63-0.43 0.86-0.6 0.62-0.49 0.88-0.7c0.25-0.21 0.68-0.59 0.95-0.85 0.28-0.25 0.75-0.73 1.06-1.06 0.31-0.32 0.8-0.88 1.09-1.23s0.76-0.93 1.02-1.29c0.27-0.36 0.74-1.02 1.04-1.47 0.31-0.45 0.73-1.1 0.95-1.46 0.22-0.35 0.6-1 0.84-1.44 0.25-0.43 0.7-1.29 1-1.89 0.31-0.61 0.72-1.45 0.91-1.86 0.18-0.41 0.51-1.16 0.72-1.67 0.22-0.5 0.55-1.33 0.75-1.83 0.19-0.51 0.53-1.43 0.75-2.05s0.54-1.6 0.73-2.18c0.18-0.59 0.5-1.63 0.7-2.32 0.19-0.69 0.52-1.91 0.72-2.71s0.49-2.01 0.64-2.69 0.38-1.75 0.51-2.39 0.23-1.2 0.23-1.24c0-0.05 0.02-0.09 0.05-0.1s0.47-0.09 0.97-0.19c0.51-0.09 1.48-0.29 2.17-0.44s1.82-0.41 2.52-0.58c0.7-0.18 1.76-0.45 2.35-0.61 0.6-0.16 1.59-0.44 2.2-0.63 0.6-0.18 1.66-0.51 2.33-0.74 0.68-0.23 1.64-0.56 2.13-0.74 0.49-0.19 1.27-0.49 1.73-0.67 0.46-0.19 1.12-0.46 1.46-0.61 0.34-0.14 0.92-0.4 1.29-0.57 0.37-0.16 1.1-0.51 1.63-0.78 0.53-0.26 1.29-0.66 1.69-0.88 0.4-0.21 1.05-0.59 1.46-0.83 0.4-0.24 0.96-0.59 1.25-0.78 0.28-0.18 0.73-0.48 1-0.66 0.26-0.18 0.76-0.54 1.1-0.8 0.35-0.26 0.92-0.72 1.27-1.01 0.36-0.3 0.91-0.79 1.22-1.08 0.32-0.3 0.79-0.77 1.06-1.06s0.67-0.74 0.89-1 0.55-0.69 0.74-0.94c0.18-0.25 0.43-0.6 0.54-0.77 0.12-0.17 0.34-0.52 0.49-0.78s0.39-0.7 0.53-0.97c0.14-0.28 0.34-0.73 0.46-1.01 0.11-0.27 0.28-0.73 0.37-1.02 0.1-0.29 0.23-0.75 0.29-1.04 0.07-0.28 0.16-0.74 0.21-1.02 0.04-0.29 0.1-0.77 0.13-1.08 0.02-0.31 0.04-0.75 0.04-0.99 0-0.23-0.02-0.66-0.05-0.96-0.02-0.29-0.08-0.77-0.12-1.07-0.05-0.3-0.14-0.76-0.21-1.03s-0.2-0.73-0.29-1.02c-0.09-0.28-0.26-0.75-0.38-1.03-0.11-0.28-0.36-0.81-0.55-1.18s-0.49-0.89-0.65-1.15c-0.17-0.26-0.43-0.65-0.57-0.86-0.15-0.22-0.43-0.58-0.61-0.82-0.19-0.23-0.46-0.56-0.61-0.73-0.15-0.18-0.48-0.54-0.73-0.81-0.25-0.26-0.74-0.75-1.08-1.07-0.35-0.32-0.88-0.78-1.18-1.03-0.3-0.26-0.88-0.71-1.29-1.02s-1.11-0.79-1.54-1.08c-0.44-0.29-1.04-0.68-1.34-0.86s-0.92-0.55-1.39-0.81c-0.47-0.27-1.26-0.69-1.76-0.94-0.49-0.25-1.14-0.57-1.45-0.72-0.3-0.14-0.95-0.43-1.45-0.65s-1.23-0.53-1.64-0.69c-0.4-0.17-1.14-0.45-1.65-0.64-0.5-0.19-1.34-0.49-1.85-0.67-0.52-0.17-1.35-0.45-1.84-0.6-0.49-0.16-1.25-0.4-1.69-0.52-0.43-0.13-1.25-0.36-1.81-0.51s-1.47-0.38-2.02-0.52c-0.55-0.13-1.56-0.37-2.24-0.52-0.67-0.14-1.6-0.34-2.06-0.43-0.46-0.1-1.25-0.25-1.75-0.34-0.51-0.09-1.31-0.23-1.79-0.31-0.49-0.08-1.32-0.21-1.86-0.29s-1.4-0.21-1.92-0.27c-0.51-0.07-1.41-0.18-2-0.25-0.58-0.07-1.44-0.17-1.9-0.21-0.45-0.05-1.25-0.12-1.77-0.17-0.51-0.05-1.44-0.12-2.06-0.17-0.62-0.04-1.64-0.11-2.28-0.14-0.63-0.04-1.55-0.09-2.04-0.11s-1.67-0.06-2.63-0.09c-0.95-0.02-2.34-0.04-3.08-0.03l-1.36 0.02-0.29 0.09c-0.16 0.05-0.4 0.14-0.54 0.2-0.13 0.06-0.38 0.19-0.54 0.3-0.16 0.1-0.43 0.32-0.59 0.49-0.16 0.16-0.35 0.38-0.43 0.49-0.07 0.1-0.19 0.32-0.27 0.48s-0.2 0.45-0.26 0.66c-0.1 0.33-0.11 0.43-0.11 1 0 0.5 0.01 0.68 0.08 0.94 0.05 0.18 0.16 0.47 0.24 0.64 0.08 0.18 0.23 0.44 0.33 0.58s0.3 0.38 0.45 0.52c0.15 0.15 0.39 0.35 0.55 0.45 0.16 0.11 0.42 0.25 0.57 0.31 0.16 0.07 0.44 0.17 0.62 0.21l0.32 0.09 2.21 0.03c1.22 0.02 2.76 0.06 3.42 0.08 0.66 0.03 1.72 0.08 2.35 0.11 0.64 0.03 1.68 0.1 2.34 0.15 0.65 0.04 1.7 0.13 2.33 0.18 0.64 0.06 1.59 0.15 2.13 0.21s1.44 0.16 2 0.23c0.57 0.07 1.48 0.19 2.05 0.27 0.56 0.09 1.43 0.22 1.94 0.3 0.5 0.08 1.34 0.22 1.85 0.31 0.52 0.09 1.37 0.25 1.9 0.35 0.53 0.11 1.51 0.31 2.19 0.46 0.67 0.15 1.68 0.38 2.23 0.52s1.35 0.34 1.79 0.46 1.18 0.32 1.65 0.46 1.3 0.39 1.85 0.57c0.55 0.17 1.38 0.45 1.85 0.61 0.48 0.17 1.2 0.43 1.62 0.59 0.41 0.16 1.14 0.45 1.62 0.65s1.14 0.48 1.46 0.62 1.03 0.48 1.59 0.75c0.55 0.27 1.26 0.64 1.58 0.82 0.32 0.17 0.91 0.51 1.31 0.75s0.97 0.6 1.27 0.81c0.3 0.2 0.81 0.56 1.13 0.8s0.76 0.58 0.97 0.76c0.22 0.18 0.58 0.5 0.82 0.72 0.23 0.21 0.61 0.59 0.83 0.84 0.23 0.24 0.55 0.61 0.71 0.82s0.42 0.57 0.58 0.81 0.41 0.68 0.56 0.98c0.14 0.29 0.33 0.75 0.41 1s0.18 0.63 0.22 0.84c0.05 0.25 0.07 0.58 0.07 1.02s-0.02 0.77-0.07 1.02c-0.04 0.21-0.14 0.59-0.22 0.85-0.09 0.26-0.27 0.7-0.42 1-0.14 0.29-0.39 0.72-0.55 0.97-0.16 0.24-0.42 0.6-0.58 0.81-0.16 0.2-0.48 0.58-0.71 0.82-0.22 0.25-0.59 0.61-0.81 0.81-0.21 0.21-0.61 0.55-0.87 0.77s-0.71 0.58-1 0.79-0.84 0.6-1.23 0.85c-0.39 0.26-0.97 0.63-1.29 0.82s-0.88 0.5-1.23 0.7c-0.36 0.19-1.04 0.54-1.53 0.78-0.48 0.23-1.28 0.6-1.77 0.82-0.5 0.22-1.32 0.57-1.84 0.78-0.51 0.2-1.37 0.53-1.91 0.72-0.54 0.2-1.44 0.51-2 0.69-0.56 0.19-1.41 0.45-1.88 0.59s-1.26 0.37-1.75 0.51c-0.5 0.13-1.43 0.37-2.07 0.53-0.65 0.16-1.6 0.39-2.13 0.51-0.52 0.11-0.95 0.2-0.96 0.19 0-0.01 0.04-0.44 0.09-0.97 0.06-0.52 0.17-1.54 0.23-2.27 0.07-0.72 0.17-1.98 0.23-2.79 0.06-0.82 0.13-2.02 0.17-2.67 0.03-0.65 0.08-1.74 0.11-2.42 0.02-0.68 0.05-2.27 0.05-3.54l0.01-2.32-0.08-0.27c-0.04-0.15-0.13-0.4-0.2-0.55-0.06-0.16-0.2-0.41-0.3-0.57-0.1-0.15-0.28-0.38-0.4-0.51s-0.34-0.33-0.48-0.44c-0.14-0.1-0.4-0.26-0.58-0.35-0.17-0.09-0.48-0.21-0.68-0.28-0.33-0.09-0.44-0.11-1-0.11-0.5 0-0.68 0.02-0.94 0.09-0.18 0.05-0.47 0.16-0.64 0.24-0.18 0.08-0.44 0.23-0.58 0.33s-0.37 0.3-0.52 0.45c-0.14 0.14-0.35 0.39-0.45 0.55-0.11 0.15-0.25 0.41-0.31 0.57-0.07 0.16-0.16 0.44-0.21 0.61l-0.09 0.33-0.03 2.27c-0.02 1.26-0.05 2.8-0.08 3.42-0.02 0.63-0.08 1.65-0.11 2.27s-0.09 1.53-0.12 2.02c-0.04 0.5-0.11 1.34-0.15 1.88-0.05 0.54-0.13 1.45-0.19 2.02-0.06 0.58-0.17 1.6-0.25 2.28-0.08 0.67-0.17 1.41-0.2 1.63-0.03 0.23-0.07 0.42-0.08 0.44-0.02 0.01-0.21 0.05-0.44 0.08-0.22 0.03-0.96 0.12-1.63 0.2-0.68 0.08-1.8 0.2-2.5 0.27s-1.73 0.16-2.3 0.21c-0.56 0.05-1.61 0.12-2.33 0.17-0.72 0.04-1.76 0.1-2.3 0.12-0.53 0.03-1.57 0.06-2.29 0.09-0.72 0.02-2.46 0.04-3.86 0.04s-3.15-0.02-3.9-0.04c-0.74-0.03-1.77-0.06-2.29-0.09-0.52-0.02-1.4-0.07-1.96-0.1-0.56-0.04-1.27-0.08-1.58-0.11-0.31-0.02-0.91-0.07-1.34-0.1-0.42-0.04-1.33-0.12-2.03-0.19-0.69-0.07-1.8-0.19-2.48-0.27-0.67-0.08-1.41-0.17-1.65-0.2-0.23-0.03-0.44-0.07-0.46-0.08-0.01-0.02-0.05-0.21-0.08-0.44-0.03-0.22-0.12-0.96-0.2-1.63-0.08-0.68-0.19-1.7-0.25-2.28-0.06-0.57-0.15-1.59-0.21-2.27-0.05-0.68-0.14-1.84-0.18-2.59-0.05-0.74-0.11-1.74-0.13-2.23-0.02-0.48-0.06-1.62-0.09-2.54-0.03-1.05-0.04-2.82-0.02-4.75 0.01-1.7 0.04-3.55 0.06-4.11 0.03-0.56 0.08-1.57 0.11-2.23 0.04-0.67 0.1-1.74 0.15-2.38s0.14-1.79 0.21-2.54c0.07-0.76 0.18-1.88 0.25-2.48 0.07-0.61 0.18-1.54 0.25-2.07s0.17-1.29 0.23-1.69 0.18-1.2 0.27-1.77 0.26-1.55 0.37-2.17c0.12-0.62 0.3-1.59 0.42-2.17 0.12-0.57 0.33-1.54 0.46-2.14 0.14-0.61 0.38-1.59 0.53-2.17 0.14-0.59 0.36-1.4 0.47-1.82 0.12-0.41 0.34-1.19 0.51-1.73 0.16-0.54 0.43-1.39 0.59-1.89 0.17-0.51 0.44-1.3 0.61-1.76 0.16-0.45 0.44-1.18 0.6-1.6 0.17-0.43 0.47-1.15 0.66-1.61 0.2-0.46 0.53-1.2 0.74-1.64 0.21-0.45 0.55-1.14 0.75-1.53s0.52-0.98 0.71-1.31 0.47-0.82 0.64-1.08c0.16-0.27 0.45-0.73 0.65-1.02 0.2-0.3 0.56-0.81 0.8-1.13s0.58-0.76 0.76-0.97c0.18-0.22 0.51-0.59 0.73-0.82 0.22-0.24 0.59-0.61 0.81-0.82 0.23-0.2 0.57-0.5 0.75-0.65 0.19-0.15 0.57-0.42 0.84-0.6 0.27-0.19 0.68-0.43 0.92-0.55 0.23-0.11 0.58-0.27 0.78-0.35s0.55-0.19 0.77-0.24c0.23-0.06 0.6-0.13 0.82-0.15 0.25-0.03 0.6-0.04 0.86-0.03 0.24 0.01 0.6 0.06 0.79 0.09 0.19 0.04 0.55 0.14 0.79 0.22 0.25 0.07 0.67 0.25 0.95 0.39 0.27 0.13 0.69 0.37 0.93 0.53s0.59 0.4 0.77 0.54c0.17 0.14 0.53 0.44 0.79 0.67 0.26 0.24 0.66 0.63 0.89 0.88 0.23 0.24 0.58 0.64 0.78 0.88 0.21 0.24 0.55 0.68 0.78 0.98 0.22 0.3 0.56 0.78 0.76 1.07 0.19 0.29 0.53 0.82 0.76 1.18 0.28 0.45 0.51 0.77 0.72 0.99 0.18 0.18 0.46 0.42 0.63 0.54 0.17 0.11 0.45 0.26 0.63 0.33 0.17 0.07 0.48 0.17 0.69 0.21 0.2 0.04 0.54 0.08 0.75 0.08s0.54-0.04 0.75-0.08 0.49-0.13 0.64-0.19 0.4-0.19 0.56-0.28 0.43-0.3 0.6-0.47c0.17-0.16 0.4-0.41 0.5-0.55s0.25-0.42 0.34-0.61 0.2-0.48 0.24-0.64c0.06-0.22 0.08-0.43 0.08-0.94 0-0.47-0.02-0.71-0.07-0.89-0.04-0.14-0.11-0.36-0.16-0.49s-0.27-0.54-0.48-0.89c-0.22-0.36-0.6-0.96-0.85-1.33-0.25-0.38-0.64-0.94-0.86-1.24-0.22-0.31-0.62-0.82-0.88-1.14-0.25-0.32-0.7-0.85-0.99-1.17-0.28-0.32-0.82-0.88-1.2-1.25-0.37-0.36-0.91-0.85-1.18-1.08-0.28-0.23-0.65-0.53-0.84-0.67-0.18-0.14-0.55-0.41-0.83-0.59-0.28-0.19-0.65-0.43-0.83-0.54-0.19-0.11-0.62-0.34-0.97-0.52s-0.88-0.42-1.17-0.53c-0.3-0.12-0.72-0.27-0.93-0.34-0.22-0.07-0.62-0.19-0.89-0.25-0.28-0.07-0.76-0.18-1.09-0.23-0.32-0.06-0.85-0.12-1.17-0.14-0.32-0.03-0.82-0.05-1.1-0.04zm46.13 0.18c-0.57-0.01-1.11-0.01-1.2 0-0.1 0.01-0.42 0.05-0.71 0.08-0.3 0.04-0.72 0.1-0.93 0.15-0.21 0.04-0.56 0.12-0.79 0.18s-0.66 0.19-0.95 0.29c-0.3 0.1-0.71 0.25-0.92 0.34-0.21 0.08-0.63 0.28-0.94 0.44s-0.79 0.43-1.06 0.6c-0.28 0.17-0.72 0.47-0.99 0.68-0.27 0.2-0.7 0.56-0.96 0.8-0.27 0.23-0.67 0.64-0.9 0.89-0.23 0.26-0.55 0.63-0.7 0.82-0.15 0.2-0.44 0.6-0.64 0.9s-0.47 0.76-0.62 1.02c-0.14 0.27-0.35 0.69-0.46 0.94-0.12 0.25-0.3 0.7-0.4 1-0.11 0.3-0.27 0.82-0.36 1.17-0.09 0.34-0.2 0.85-0.24 1.12-0.05 0.28-0.11 0.71-0.14 0.96-0.03 0.26-0.05 0.89-0.05 1.44 0 0.63 0.03 1.17 0.07 1.53 0.04 0.3 0.12 0.79 0.18 1.09 0.05 0.3 0.17 0.81 0.27 1.13 0.09 0.32 0.26 0.84 0.39 1.16 0.12 0.31 0.3 0.73 0.39 0.93 0.09 0.19 0.26 0.53 0.38 0.75s0.37 0.63 0.56 0.92c0.19 0.28 0.51 0.73 0.72 1 0.2 0.26 0.67 0.78 1.04 1.15 0.36 0.37 0.87 0.83 1.12 1.03 0.26 0.2 0.68 0.51 0.94 0.69 0.27 0.18 0.73 0.46 1.02 0.63 0.3 0.17 0.74 0.39 0.98 0.5s0.65 0.28 0.9 0.37 0.68 0.24 0.96 0.32c0.27 0.08 0.77 0.2 1.11 0.27 0.33 0.07 0.85 0.15 1.16 0.19 0.39 0.05 0.88 0.07 1.59 0.07 0.7 0 1.19-0.02 1.58-0.07 0.31-0.04 0.76-0.11 1-0.15 0.24-0.05 0.69-0.15 0.99-0.23 0.31-0.08 0.79-0.23 1.08-0.33 0.28-0.11 0.74-0.29 1.02-0.42 0.27-0.12 0.71-0.34 0.97-0.48s0.7-0.41 0.99-0.6 0.68-0.47 0.87-0.63c0.2-0.15 0.57-0.46 0.82-0.69 0.26-0.23 0.66-0.63 0.89-0.89 0.23-0.25 0.51-0.59 0.64-0.75 0.12-0.17 0.34-0.45 0.48-0.65 0.13-0.19 0.36-0.54 0.5-0.77 0.13-0.23 0.36-0.65 0.5-0.93 0.15-0.28 0.33-0.67 0.41-0.87s0.24-0.61 0.34-0.91 0.24-0.77 0.31-1.04c0.07-0.28 0.17-0.76 0.22-1.09 0.06-0.32 0.12-0.85 0.15-1.18 0.03-0.38 0.04-0.93 0.03-1.48-0.02-0.49-0.06-1.1-0.09-1.36-0.04-0.27-0.11-0.68-0.15-0.92-0.05-0.24-0.16-0.68-0.24-0.98s-0.23-0.77-0.33-1.06c-0.1-0.28-0.31-0.77-0.45-1.08-0.14-0.32-0.38-0.78-0.52-1.03-0.15-0.25-0.41-0.67-0.59-0.94-0.18-0.26-0.47-0.66-0.64-0.87-0.18-0.22-0.52-0.62-0.78-0.89-0.25-0.26-0.65-0.66-0.9-0.87-0.24-0.21-0.65-0.54-0.91-0.72-0.25-0.19-0.67-0.47-0.92-0.63s-0.72-0.42-1.04-0.58-0.83-0.4-1.13-0.51c-0.3-0.12-0.8-0.3-1.11-0.39-0.3-0.09-0.82-0.22-1.15-0.29-0.32-0.07-0.82-0.16-1.1-0.19-0.32-0.05-0.91-0.08-1.56-0.08zm-0.25 7.49c0.28-0.01 0.67 0.01 0.86 0.04 0.19 0.02 0.56 0.09 0.81 0.16 0.25 0.06 0.63 0.19 0.85 0.28 0.21 0.09 0.52 0.25 0.69 0.35 0.17 0.09 0.47 0.29 0.66 0.44 0.19 0.14 0.53 0.44 0.75 0.67s0.51 0.59 0.66 0.81c0.14 0.21 0.32 0.52 0.4 0.68 0.09 0.16 0.21 0.45 0.29 0.65 0.07 0.19 0.19 0.58 0.25 0.85 0.09 0.38 0.12 0.66 0.13 1.13 0.02 0.46 0 0.75-0.05 1.1-0.03 0.25-0.11 0.63-0.17 0.83s-0.17 0.52-0.25 0.72c-0.08 0.19-0.23 0.5-0.33 0.69-0.11 0.18-0.33 0.5-0.49 0.71-0.16 0.22-0.46 0.55-0.66 0.74-0.21 0.19-0.54 0.47-0.75 0.61-0.2 0.13-0.53 0.33-0.73 0.43-0.21 0.11-0.52 0.24-0.71 0.31-0.18 0.07-0.5 0.16-0.71 0.21-0.2 0.05-0.58 0.11-0.83 0.14-0.27 0.03-0.65 0.04-0.91 0.02-0.25-0.02-0.64-0.07-0.87-0.11s-0.58-0.13-0.76-0.19c-0.19-0.06-0.52-0.2-0.75-0.31s-0.55-0.28-0.72-0.38c-0.16-0.11-0.46-0.33-0.67-0.51-0.2-0.17-0.5-0.47-0.67-0.66-0.16-0.19-0.38-0.49-0.5-0.66-0.11-0.17-0.28-0.46-0.37-0.65-0.1-0.19-0.24-0.53-0.32-0.76s-0.19-0.62-0.23-0.86c-0.05-0.24-0.1-0.65-0.11-0.91-0.02-0.26-0.01-0.65 0.02-0.88 0.02-0.23 0.07-0.55 0.11-0.72 0.03-0.17 0.11-0.45 0.17-0.63s0.21-0.55 0.35-0.82c0.13-0.28 0.36-0.67 0.5-0.88 0.15-0.2 0.45-0.55 0.66-0.77 0.22-0.22 0.53-0.5 0.69-0.61 0.16-0.12 0.43-0.3 0.61-0.41s0.51-0.27 0.72-0.36 0.56-0.21 0.76-0.27c0.21-0.06 0.54-0.13 0.75-0.16 0.2-0.03 0.6-0.06 0.87-0.06zm81.32 15.11c-19.87 0-36.03 16.58-36.03 37.07s16.16 37.06 36.03 37.06c17.51 0 32.13-12.86 35.32-29.96 0.2-0.92 0.41-2.36 0.51-3.91 0.11-2.47-1.85-4.53-4.32-4.53-2.26 0-4.12 1.65-4.22 3.91-0.21 1.65-0.41 3.5-0.62 4.53-3.09 12.36-13.9 21.52-26.67 21.52-15.13 0-27.49-12.87-27.49-28.62s12.36-28.52 27.49-28.52c10.09 0 18.85 5.56 23.68 14 0.72 1.34 2.17 2.17 3.71 2.17 3.3 0 5.36-3.51 3.71-6.39-6.28-11.02-17.81-18.33-31.1-18.33zm-53.15 1.03c-2.26 0-4.22 1.96-4.22 4.22v63.64c0 2.26 1.96 4.22 4.22 4.22 2.37 0 4.33-1.96 4.33-4.22v-63.64c0-2.26-1.96-4.22-4.33-4.22zm104.44 0c-2.26 0-4.22 1.96-4.22 4.22v39.95c0 15.96 12.98 28.93 28.93 28.93 15.96 0 28.94-12.97 28.94-28.93v-39.95c0-2.26-1.96-4.22-4.33-4.22-2.26 0-4.22 1.96-4.22 4.22v39.95c0 11.33-9.16 20.39-20.39 20.39-11.22 0-20.38-9.06-20.38-20.39v-39.95c0-2.26-1.96-4.22-4.33-4.22zm91.3 0c-1.85 0-3.4 1.14-4.12 2.78l-25.94 63.22c-1.13 2.68 0.72 5.77 3.7 6.08h0.31 0.11 30.88c2.37 0 4.23-1.96 4.23-4.22 0-2.37-1.86-4.33-4.23-4.33h-24.4l19.26-46.95 1.23-3.09 1.24 3.09 21.72 52.72c0.62 1.64 2.27 2.78 4.12 2.78 3.09 0 5.25-3.2 4.02-6.08l-25.85-63.22c-0.72-1.64-2.37-2.78-4.12-2.78h-2.16zm47.18 0c-2.26 0-4.22 1.96-4.22 4.22v63.64c0 2.26 1.96 4.22 4.22 4.22 2.37 0 4.33-1.96 4.33-4.22v-63.64c0-2.26-1.96-4.22-4.33-4.22zm48.81 0c-2.17 0.21-3.81 2.27-3.81 4.43v53.85l-26.26-37.58c-0.72-1.13-2.06-1.85-3.4-1.85-3.08 0.1-4.94 3.6-3.19 6.17l31.2 44.69c1.03 1.44 2.68 2.37 4.53 2.37 3.09 0 5.66-2.48 5.66-5.56v-62.3c0-2.47-2.16-4.42-4.73-4.22zm18.61 0c-3.2 0-5.05 3.5-3.4 6.18l11.32 17.51c0.72 1.23 2.06 1.85 3.4 1.85 3.19 0 5.15-3.5 3.4-6.18l-11.33-17.5c-0.72-1.14-1.95-1.86-3.29-1.86h-0.1zm43.24 0c-1.34 0-2.68 0.72-3.4 1.96l-22.44 36.45v29.65c0 2.27 1.75 4.02 4.01 4.02h0.52c2.16 0 4.01-1.75 4.01-4.02v-29.65l0.52-0.83 20.18-31.4c1.75-2.68-0.21-6.18-3.4-6.18zm30.18 0c-1.85 0-3.39 1.14-4.11 2.78l-25.95 63.22c-1.13 2.68 0.72 5.77 3.71 6.08h0.31 0.1 30.89c2.37 0 4.22-1.96 4.22-4.22 0-2.37-1.85-4.33-4.22-4.33h-24.41l19.26-46.95 1.24-3.09 1.23 3.09 21.72 52.72c0.62 1.64 2.27 2.78 4.12 2.78 3.09 0 5.25-3.2 4.02-6.08l-25.84-63.22c-0.73-1.64-2.37-2.78-4.12-2.78h-2.17zm-329.06 34.7c-2.37 0-4.33 1.86-4.33 4.22 0 2.37 1.96 4.22 4.33 4.22h14.1c2.37 0 4.23-1.85 4.23-4.22 0-2.36-1.86-4.22-4.23-4.22h-14.1zm-144.98 26.73c0-0.01 0.08-0.01 0.18 0 0.1 0.02 0.62 0.07 1.16 0.13s1.5 0.15 2.13 0.21 1.79 0.15 2.58 0.21c0.79 0.05 2 0.13 2.69 0.17 0.69 0.03 1.7 0.08 2.25 0.1 0.55 0.03 2.44 0.06 4.19 0.07 2.03 0.02 3.83 0.01 4.92-0.02 0.96-0.03 2.33-0.08 3.05-0.11 0.72-0.04 1.75-0.09 2.29-0.13 0.54-0.03 1.47-0.1 2.07-0.14 0.59-0.05 1.59-0.14 2.21-0.19 0.62-0.06 1.53-0.15 2.04-0.21 0.5-0.05 0.92-0.09 0.93-0.09 0 0.01-0.09 0.45-0.2 0.97-0.12 0.53-0.35 1.48-0.51 2.12s-0.4 1.57-0.53 2.07c-0.14 0.49-0.36 1.28-0.5 1.75s-0.41 1.31-0.6 1.88c-0.18 0.56-0.49 1.46-0.68 1.99-0.2 0.54-0.52 1.4-0.73 1.92s-0.56 1.35-0.78 1.84c-0.21 0.49-0.59 1.29-0.82 1.77-0.24 0.48-0.59 1.17-0.78 1.53-0.2 0.35-0.51 0.9-0.7 1.23-0.19 0.32-0.56 0.9-0.81 1.29-0.26 0.39-0.65 0.94-0.86 1.23-0.21 0.28-0.57 0.74-0.79 1s-0.56 0.66-0.76 0.87c-0.21 0.22-0.57 0.59-0.82 0.81-0.24 0.23-0.61 0.55-0.82 0.71s-0.57 0.42-0.81 0.58-0.68 0.41-0.97 0.55c-0.29 0.15-0.74 0.33-1 0.41-0.26 0.09-0.64 0.19-0.85 0.23-0.24 0.04-0.59 0.07-1 0.07-0.44 0-0.75-0.02-1.04-0.08-0.23-0.04-0.61-0.14-0.85-0.22-0.25-0.08-0.65-0.24-0.9-0.36s-0.64-0.33-0.85-0.46-0.57-0.38-0.8-0.55-0.59-0.46-0.8-0.65-0.57-0.53-0.8-0.76-0.62-0.67-0.87-0.96c-0.26-0.3-0.66-0.81-0.9-1.13s-0.65-0.9-0.9-1.29c-0.26-0.39-0.63-0.97-0.82-1.29-0.19-0.33-0.5-0.88-0.69-1.23-0.2-0.36-0.55-1.05-0.79-1.53-0.23-0.48-0.6-1.28-0.82-1.77s-0.57-1.32-0.77-1.83c-0.21-0.52-0.53-1.35-0.71-1.86-0.18-0.5-0.5-1.4-0.69-2-0.2-0.6-0.47-1.46-0.61-1.92-0.13-0.46-0.35-1.21-0.48-1.68-0.13-0.46-0.37-1.4-0.54-2.08-0.17-0.69-0.41-1.67-0.52-2.19-0.12-0.53-0.22-0.97-0.22-0.98z" fill="#ffffff" filter="url(#filter)" />
</svg>