<svg version="1.1" xmlns:cc="http://creativecommons.org/ns#" xmlns:dc="http://purl.org/dc/elements/1.1/" xmlns:rdf="http://www.w3.org/1999/02/22-rdf-syntax-ns#" xmlns="http://www.w3.org/2000/svg" xmlns:xlink="http://www.w3.org/1999/xlink" x="0px" y="0px" viewBox="0 0 1024 768" xml:space="preserve">
<defs>
<filter id="f1" x="-50%" y="-50%" width="200%" height="200%">
  <feGaussianBlur id="blur1" in="SourceGraphic" stdDeviation="5" />
</filter>
</defs>
<path id="shadow" d="m296.69 324.21c-0.29 0-0.71 0.02-0.94 0.04-0.23 0.01-0.67 0.07-0.97 0.12-0.31 0.05-0.78 0.14-1.06 0.21-0.27 0.07-0.73 0.2-1.01 0.29-0.29 0.09-0.75 0.26-1.02 0.37-0.28 0.12-0.75 0.33-1.06 0.49-0.3 0.15-0.74 0.39-0.97 0.53-0.23 0.13-0.64 0.4-0.92 0.59-0.27 0.18-0.68 0.47-0.89 0.64-0.22 0.17-0.56 0.44-0.75 0.61-0.2 0.16-0.62 0.54-0.94 0.84s-0.83 0.82-1.14 1.15c-0.3 0.33-0.76 0.85-1 1.14-0.25 0.3-0.7 0.87-1 1.27s-0.77 1.08-1.06 1.5c-0.28 0.43-0.66 1.01-0.84 1.3-0.17 0.29-0.49 0.83-0.71 1.21-0.21 0.37-0.59 1.06-0.84 1.52-0.24 0.47-0.63 1.24-0.86 1.73s-0.58 1.26-0.78 1.7c-0.19 0.45-0.51 1.2-0.7 1.67s-0.49 1.26-0.68 1.76c-0.18 0.49-0.5 1.38-0.69 1.96-0.2 0.58-0.48 1.45-0.63 1.93s-0.4 1.33-0.56 1.88-0.4 1.43-0.54 1.96-0.33 1.28-0.42 1.67-0.26 1.12-0.38 1.62c-0.11 0.51-0.3 1.43-0.43 2.05-0.12 0.62-0.31 1.59-0.42 2.17-0.1 0.57-0.25 1.44-0.33 1.93-0.08 0.5-0.21 1.34-0.29 1.88s-0.21 1.5-0.3 2.13c-0.08 0.63-0.2 1.64-0.27 2.25s-0.18 1.72-0.25 2.48-0.16 1.89-0.21 2.52c-0.04 0.63-0.1 1.46-0.12 1.84s-0.07 1.29-0.1 2.02c-0.04 0.74-0.09 2.12-0.12 3.09-0.03 1.1-0.03 2.92-0.02 4.92 0.01 1.74 0.04 3.62 0.07 4.17 0.02 0.55 0.07 1.56 0.11 2.25 0.03 0.69 0.11 1.9 0.16 2.69 0.06 0.79 0.16 2.06 0.23 2.81 0.07 0.76 0.17 1.79 0.23 2.3 0.05 0.5 0.09 0.92 0.09 0.93-0.01 0-0.4-0.08-0.87-0.18-0.46-0.11-1.38-0.32-2.03-0.48s-1.64-0.42-2.19-0.57-1.41-0.4-1.9-0.54c-0.49-0.15-1.27-0.4-1.73-0.55s-1.26-0.42-1.77-0.6c-0.52-0.19-1.38-0.51-1.92-0.72s-1.25-0.51-1.59-0.65c-0.33-0.14-1.01-0.44-1.5-0.67s-1.3-0.63-1.8-0.9c-0.5-0.26-1.24-0.66-1.63-0.9-0.39-0.23-1.04-0.63-1.44-0.89-0.4-0.27-1-0.69-1.34-0.94-0.33-0.26-0.73-0.57-0.88-0.69-0.15-0.13-0.49-0.44-0.77-0.68-0.27-0.25-0.7-0.68-0.95-0.95-0.24-0.27-0.56-0.64-0.7-0.82-0.14-0.19-0.39-0.53-0.55-0.77-0.16-0.25-0.41-0.68-0.55-0.97-0.14-0.3-0.33-0.74-0.41-1s-0.18-0.64-0.22-0.85c-0.05-0.25-0.08-0.58-0.08-1.02 0-0.45 0.03-0.76 0.08-1.02 0.04-0.2 0.14-0.57 0.22-0.81s0.25-0.67 0.39-0.94c0.13-0.28 0.37-0.7 0.53-0.94s0.4-0.59 0.54-0.77 0.45-0.55 0.7-0.82 0.7-0.72 1.01-1.01c0.31-0.28 0.82-0.72 1.14-0.97 0.32-0.26 0.88-0.67 1.24-0.92s1.01-0.68 1.45-0.95c0.57-0.36 0.88-0.59 1.12-0.81 0.18-0.18 0.42-0.46 0.53-0.63s0.26-0.45 0.33-0.62c0.07-0.18 0.17-0.49 0.21-0.69 0.04-0.21 0.08-0.55 0.08-0.76 0-0.2-0.04-0.54-0.08-0.75s-0.14-0.52-0.21-0.69-0.22-0.46-0.33-0.63c-0.12-0.17-0.37-0.46-0.56-0.64s-0.45-0.39-0.58-0.47-0.38-0.2-0.56-0.28-0.48-0.17-0.68-0.21c-0.26-0.05-0.48-0.06-0.89-0.05-0.31 0.01-0.65 0.05-0.78 0.09-0.13 0.03-0.34 0.1-0.47 0.15s-0.53 0.26-0.88 0.48c-0.35 0.21-0.95 0.59-1.34 0.85s-0.95 0.66-1.25 0.87c-0.3 0.22-0.8 0.61-1.13 0.87-0.32 0.26-0.84 0.7-1.16 0.99-0.33 0.28-0.91 0.84-1.3 1.24s-0.91 0.98-1.15 1.27c-0.24 0.3-0.62 0.78-0.83 1.08-0.21 0.29-0.53 0.77-0.71 1.06-0.17 0.29-0.43 0.74-0.57 1.01-0.14 0.26-0.36 0.74-0.5 1.06s-0.33 0.82-0.42 1.11c-0.1 0.28-0.23 0.73-0.3 1s-0.17 0.76-0.23 1.11c-0.06 0.34-0.13 0.96-0.16 1.38-0.03 0.59-0.03 0.94 0.01 1.53 0.02 0.43 0.09 1.04 0.15 1.37 0.05 0.33 0.15 0.79 0.21 1.03s0.18 0.67 0.28 0.95c0.09 0.28 0.25 0.73 0.37 1 0.11 0.28 0.31 0.73 0.45 1.01 0.14 0.27 0.38 0.71 0.53 0.97 0.16 0.26 0.39 0.64 0.53 0.84 0.14 0.21 0.39 0.57 0.56 0.8 0.18 0.23 0.49 0.62 0.7 0.87 0.21 0.26 0.59 0.69 0.85 0.96 0.26 0.28 0.73 0.75 1.06 1.06 0.32 0.31 0.88 0.8 1.24 1.1 0.35 0.29 0.93 0.76 1.29 1.02 0.36 0.27 1.07 0.77 1.59 1.12 0.51 0.34 1.25 0.82 1.64 1.05s1 0.58 1.36 0.78c0.35 0.2 1.12 0.6 1.71 0.89 0.58 0.3 1.4 0.69 1.81 0.88s1.16 0.52 1.67 0.73c0.5 0.21 1.33 0.55 1.83 0.74 0.51 0.2 1.43 0.54 2.05 0.76 0.62 0.21 1.6 0.54 2.19 0.73 0.58 0.18 1.48 0.45 2 0.6 0.51 0.15 1.42 0.4 2.02 0.56s1.6 0.42 2.23 0.57 1.6 0.37 2.15 0.48c0.55 0.12 1.46 0.31 2.02 0.42l1.02 0.2 0.02 0.1c0 0.05 0.13 0.71 0.28 1.45 0.15 0.75 0.38 1.85 0.52 2.46s0.4 1.69 0.58 2.4 0.44 1.7 0.58 2.21c0.14 0.5 0.38 1.32 0.53 1.81 0.15 0.5 0.44 1.4 0.64 2.01 0.2 0.6 0.49 1.45 0.65 1.87 0.15 0.43 0.49 1.31 0.75 1.96s0.64 1.58 0.85 2.07c0.21 0.48 0.66 1.42 0.99 2.09 0.32 0.68 0.79 1.57 1.02 2 0.24 0.43 0.63 1.12 0.87 1.53 0.25 0.42 0.73 1.18 1.07 1.69 0.35 0.52 0.86 1.24 1.13 1.61 0.28 0.37 0.75 0.96 1.04 1.31 0.3 0.36 0.78 0.9 1.06 1.2s0.76 0.78 1.06 1.06 0.76 0.69 1.02 0.91 0.69 0.55 0.94 0.74 0.65 0.46 0.88 0.61 0.6 0.37 0.83 0.51c0.22 0.13 0.61 0.34 0.86 0.46 0.25 0.13 0.68 0.32 0.96 0.43 0.27 0.12 0.73 0.29 1.02 0.38 0.29 0.1 0.76 0.23 1.04 0.29 0.28 0.07 0.74 0.16 1.02 0.21 0.29 0.05 0.86 0.11 1.28 0.13 0.6 0.04 0.93 0.04 1.53 0 0.43-0.02 1.04-0.09 1.37-0.15 0.33-0.05 0.8-0.15 1.03-0.21 0.24-0.06 0.67-0.18 0.95-0.28 0.28-0.09 0.73-0.25 1.01-0.37 0.27-0.11 0.71-0.31 0.97-0.44s0.67-0.35 0.91-0.48c0.24-0.14 0.63-0.39 0.87-0.55s0.63-0.43 0.86-0.6 0.62-0.49 0.88-0.7c0.25-0.21 0.68-0.59 0.95-0.85 0.28-0.25 0.75-0.73 1.06-1.06 0.31-0.32 0.8-0.88 1.09-1.23s0.76-0.93 1.02-1.29c0.27-0.36 0.74-1.02 1.04-1.47 0.31-0.45 0.73-1.1 0.95-1.46 0.22-0.35 0.6-1 0.84-1.44 0.25-0.43 0.7-1.29 1-1.89 0.31-0.61 0.72-1.45 0.91-1.86 0.18-0.41 0.51-1.16 0.72-1.67 0.22-0.5 0.55-1.33 0.75-1.83 0.19-0.51 0.53-1.43 0.75-2.05s0.54-1.6 0.73-2.18c0.18-0.59 0.5-1.63 0.7-2.32 0.19-0.69 0.52-1.91 0.72-2.71s0.49-2.01 0.64-2.69 0.38-1.75 0.51-2.39 0.23-1.2 0.23-1.24c0-0.05 0.02-0.09 0.05-0.1s0.47-0.09 0.97-0.19c0.51-0.09 1.48-0.29 2.17-0.44s1.82-0.41 2.52-0.58c0.7-0.18 1.76-0.45 2.35-0.61 0.6-0.16 1.59-0.44 2.2-0.63 0.6-0.18 1.66-0.51 2.33-0.74 0.68-0.23 1.64-0.56 2.13-0.74 0.49-0.19 1.27-0.49 1.73-0.67 0.46-0.19 1.12-0.46 1.46-0.61 0.34-0.14 0.92-0.4 1.29-0.57 0.37-0.16 1.1-0.51 1.63-0.78 0.53-0.26 1.29-0.66 1.69-0.88 0.4-0.21 1.05-0.59 1.46-0.83 0.4-0.24 0.96-0.59 1.25-0.78 0.28-0.18 0.73-0.48 1-0.66 0.26-0.18 0.76-0.54 1.1-0.8 0.35-0.26 0.92-0.72 1.27-1.01 0.36-0.3 0.91-0.79 1.22-1.08 0.32-0.3 0.79-0.77 1.06-1.06s0.67-0.74 0.89-1 0.55-0.69 0.74-0.94c0.18-0.25 0.43-0.6 0.54-0.77 0.12-0.17 0.34-0.52 0.49-0.78s0.39-0.7 0.53-0.97c0.14-0.28 0.34-0.73 0.46-1.01 0.11-0.27 0.28-0.73 0.37-1.02 0.1-0.29 0.23-0.75 0.29-1.04 0.07-0.28 0.16-0.74 0.21-1.02 0.04-0.29 0.1-0.77 0.13-1.08 0.02-0.31 0.04-0.75 0.04-0.99 0-0.23-0.02-0.66-0.05-0.96-0.02-0.29-0.08-0.77-0.12-1.07-0.05-0.3-0.14-0.76-0.21-1.03s-0.2-0.73-0.29-1.02c-0.09-0.28-0.26-0.75-0.38-1.03-0.11-0.28-0.36-0.81-0.55-1.18s-0.49-0.89-0.65-1.15c-0.17-0.26-0.43-0.65-0.57-0.86-0.15-0.22-0.43-0.58-0.61-0.82-0.19-0.23-0.46-0.56-0.61-0.73-0.15-0.18-0.48-0.54-0.73-0.81-0.25-0.26-0.74-0.75-1.08-1.07-0.35-0.32-0.88-0.78-1.18-1.03-0.3-0.26-0.88-0.71-1.29-1.02s-1.11-0.79-1.54-1.08c-0.44-0.29-1.04-0.68-1.34-0.86s-0.92-0.55-1.39-0.81c-0.47-0.27-1.26-0.69-1.76-0.94-0.49-0.25-1.14-0.57-1.45-0.72-0.3-0.14-0.95-0.43-1.45-0.65s-1.23-0.53-1.64-0.69c-0.4-0.17-1.14-0.45-1.65-0.64-0.5-0.19-1.34-0.49-1.85-0.67-0.52-0.17-1.35-0.45-1.84-0.6-0.49-0.16-1.25-0.4-1.69-0.52-0.43-0.13-1.25-0.36-1.81-0.51s-1.47-0.38-2.02-0.52c-0.55-0.13-1.56-0.37-2.24-0.52-0.67-0.14-1.6-0.34-2.06-0.43-0.46-0.1-1.25-0.25-1.75-0.34-0.51-0.09-1.31-0.23-1.79-0.31-0.49-0.08-1.32-0.21-1.86-0.29s-1.4-0.21-1.92-0.27c-0.51-0.07-1.41-0.18-2-0.25-0.58-0.07-1.44-0.17-1.9-0.21-0.45-0.05-1.25-0.12-1.77-0.17-0.51-0.05-1.44-0.12-2.06-0.17-0.62-0.04-1.64-0.11-2.28-0.14-0.63-0.04-1.55-0.09-2.04-0.11s-1.67-0.06-2.63-0.09c-0.95-0.02-2.34-0.04-3.08-0.03l-1.36 0.02-0.29 0.09c-0.16 0.05-0.4 0.14-0.54 0.2-0.13 0.06-0.38 0.19-0.54 0.3-0.16 0.1-0.43 0.32-0.59 0.49-0.16 0.16-0.35 0.38-0.43 0.49-0.07 0.1-0.19 0.32-0.27 0.48s-0.2 0.45-0.26 0.66c-0.1 0.33-0.11 0.43-0.11 1 0 0.5 0.01 0.68 0.08 0.94 0.05 0.18 0.16 0.47 0.24 0.64 0.08 0.18 0.23 0.44 0.33 0.58s0.3 0.38 0.45 0.52c0.15 0.15 0.39 0.35 0.55 0.45 0.16 0.11 0.42 0.25 0.57 0.31 0.16 0.07 0.44 0.17 0.62 0.21l0.32 0.09 2.21 0.03c1.22 0.02 2.76 0.06 3.42 0.08 0.66 0.03 1.72 0.08 2.35 0.11 0.64 0.03 1.68 0.1 2.34 0.15 0.65 0.04 1.7 0.13 2.33 0.18 0.64 0.06 1.59 0.15 2.13 0.21s1.44 0.16 2 0.23c0.57 0.07 1.48 0.19 2.05 0.27 0.56 0.09 1.43 0.22 1.94 0.3 0.5 0.08 1.34 0.22 1.85 0.31 0.52 0.09 1.37 0.25 1.9 0.35 0.53 0.11 1.51 0.31 2.19 0.46 0.67 0.15 1.68 0.38 2.23 0.52s1.35 0.34 1.79 0.46 1.18 0.32 1.65 0.46 1.3 0.39 1.85 0.57c0.55 0.17 1.38 0.45 1.85 0.61 0.48 0.17 1.2 0.43 1.62 0.59 0.41 0.16 1.14 0.45 1.62 0.65s1.14 0.48 1.46 0.62 1.03 0.48 1.59 0.75c0.55 0.27 1.26 0.64 1.58 0.82 0.32 0.17 0.91 0.51 1.31 0.75s0.97 0.6 1.27 0.81c0.3 0.2 0.81 0.56 1.13 0.8s0.76 0.58 0.97 0.76c0.22 0.18 0.58 0.5 0.82 0.72 0.23 0.21 0.61 0.59 0.83 0.84 0.23 0.24 0.55 0.61 0.71 0.82s0.42 0.57 0.58 0.81 0.41 0.68 0.56 0.98c0.14 0.29 0.33 0.75 0.41 1s0.18 0.63 0.22 0.84c0.05 0.25 0.07 0.58 0.07 1.02s-0.02 0.77-0.07 1.02c-0.04 0.21-0.14 0.59-0.22 0.85-0.09 0.26-0.27 0.7-0.42 1-0.14 0.29-0.39 0.72-0.55 0.97-0.16 0.24-0.42 0.6-0.58 0.81-0.16 0.2-0.48 0.58-0.71 0.82-0.22 0.25-0.59 0.61-0.81 0.81-0.21 0.21-0.61 0.55-0.87 0.77s-0.71 0.58-1 0.79-0.84 0.6-1.23 0.85c-0.39 0.26-0.97 0.63-1.29 0.82s-0.88 0.5-1.23 0.7c-0.36 0.19-1.04 0.54-1.53 0.78-0.48 0.23-1.28 0.6-1.77 0.82-0.5 0.22-1.32 0.57-1.84 0.78-0.51 0.2-1.37 0.53-1.91 0.72-0.54 0.2-1.44 0.51-2 0.69-0.56 0.19-1.41 0.45-1.88 0.59s-1.26 0.37-1.75 0.51c-0.5 0.13-1.43 0.37-2.07 0.53-0.65 0.16-1.6 0.39-2.13 0.51-0.52 0.11-0.95 0.2-0.96 0.19 0-0.01 0.04-0.44 0.09-0.97 0.06-0.52 0.17-1.54 0.23-2.27 0.07-0.72 0.17-1.98 0.23-2.79 0.06-0.82 0.13-2.02 0.17-2.67 0.03-0.65 0.08-1.74 0.11-2.42 0.02-0.68 0.05-2.27 0.05-3.54l0.01-2.32-0.08-0.27c-0.04-0.15-0.13-0.4-0.2-0.55-0.06-0.16-0.2-0.41-0.3-0.57-0.1-0.15-0.28-0.38-0.4-0.51s-0.34-0.33-0.48-0.44c-0.14-0.1-0.4-0.26-0.58-0.35-0.17-0.09-0.48-0.21-0.68-0.28-0.33-0.09-0.44-0.11-1-0.11-0.5 0-0.68 0.02-0.94 0.09-0.18 0.05-0.47 0.16-0.64 0.24-0.18 0.08-0.44 0.23-0.58 0.33s-0.37 0.3-0.52 0.45c-0.14 0.14-0.35 0.39-0.45 0.55-0.11 0.15-0.25 0.41-0.31 0.57-0.07 0.16-0.16 0.44-0.21 0.61l-0.09 0.33-0.03 2.27c-0.02 1.26-0.05 2.8-0.08 3.42-0.02 0.63-0.08 1.65-0.11 2.27s-0.09 1.53-0.12 2.02c-0.04 0.5-0.11 1.34-0.15 1.88-0.05 0.54-0.13 1.45-0.19 2.02-0.06 0.58-0.17 1.6-0.25 2.28-0.08 0.67-0.17 1.41-0.2 1.63-0.03 0.23-0.07 0.42-0.08 0.44-0.02 0.01-0.21 0.05-0.44 0.08-0.22 0.03-0.96 0.12-1.63 0.2-0.68 0.08-1.8 0.2-2.5 0.27s-1.73 0.16-2.3 0.21c-0.56 0.05-1.61 0.12-2.33 0.17-0.72 0.04-1.76 0.1-2.3 0.12-0.53 0.03-1.57 0.06-2.29 0.09-0.72 0.02-2.46 0.04-3.86 0.04s-3.15-0.02-3.9-0.04c-0.74-0.03-1.77-0.06-2.29-0.09-0.52-0.02-1.4-0.07-1.96-0.1-0.56-0.04-1.27-0.08-1.58-0.11-0.31-0.02-0.91-0.07-1.34-0.1-0.42-0.04-1.33-0.12-2.03-0.19-0.69-0.07-1.8-0.19-2.48-0.27-0.67-0.08-1.41-0.17-1.65-0.2-0.23-0.03-0.44-0.07-0.46-0.08-0.01-0.02-0.05-0.21-0.08-0.44-0.03-0.22-0.12-0.96-0.2-1.63-0.08-0.68-0.19-1.7-0.25-2.28-0.06-0.57-0.15-1.59-0.21-2.27-0.05-0.68-0.14-1.84-0.18-2.59-0.05-0.74-0.11-1.74-0.13-2.23-0.02-0.48-0.06-1.62-0.09-2.54-0.03-1.05-0.04-2.82-0.02-4.75 0.01-1.7 0.04-3.55 0.06-4.11 0.03-0.56 0.08-1.57 0.11-2.23 0.04-0.67 0.1-1.74 0.15-2.38s0.14-1.79 0.21-2.54c0.07-0.76 0.18-1.88 0.25-2.48 0.07-0.61 0.18-1.54 0.25-2.07s0.17-1.29 0.23-1.69 0.18-1.2 0.27-1.77 0.26-1.55 0.37-2.17c0.12-0.62 0.3-1.59 0.42-2.17 0.12-0.57 0.33-1.54 0.46-2.14 0.14-0.61 0.38-1.59 0.53-2.17 0.14-0.59 0.36-1.4 0.47-1.82 0.12-0.41 0.34-1.19 0.51-1.73 0.16-0.54 0.43-1.39 0.59-1.89 0.17-0.51 0.44-1.3 0.61-1.76 0.16-0.45 0.44-1.18 0.6-1.6 0.17-0.43 0.47-1.15 0.66-1.61 0.2-0.46 0.53-1.2 0.74-1.64 0.21-0.45 0.55-1.14 0.75-1.53s0.52-0.98 0.71-1.31 0.47-0.82 0.64-1.08c0.16-0.27 0.45-0.73 0.65-1.02 0.2-0.3 0.56-0.81 0.8-1.13s0.58-0.76 0.76-0.97c0.18-0.22 0.51-0.59 0.73-0.82 0.22-0.24 0.59-0.61 0.81-0.82 0.23-0.2 0.57-0.5 0.75-0.65 0.19-0.15 0.57-0.42 0.84-0.6 0.27-0.19 0.68-0.43 0.92-0.55 0.23-0.11 0.58-0.27 0.78-0.35s0.55-0.19 0.77-0.24c0.23-0.06 0.6-0.13 0.82-0.15 0.25-0.03 0.6-0.04 0.86-0.03 0.24 0.01 0.6 0.06 0.79 0.09 0.19 0.04 0.55 0.14 0.79 0.22 0.25 0.07 0.67 0.25 0.95 0.39 0.27 0.13 0.69 0.37 0.93 0.53s0.59 0.4 0.77 0.54c0.17 0.14 0.53 0.44 0.79 0.67 0.26 0.24 0.66 0.63 0.89 0.88 0.23 0.24 0.58 0.64 0.78 0.88 0.21 0.24 0.55 0.68 0.78 0.98 0.22 0.3 0.56 0.78 0.76 1.07 0.19 0.29 0.53 0.82 0.76 1.18 0.28 0.45 0.51 0.77 0.72 0.99 0.18 0.18 0.46 0.42 0.63 0.54 0.17 0.11 0.45 0.26 0.63 0.33 0.17 0.07 0.48 0.17 0.69 0.21 0.2 0.04 0.54 0.08 0.75 0.08s0.54-0.04 0.75-0.08 0.49-0.13 0.64-0.19 0.4-0.19 0.56-0.28 0.43-0.3 0.6-0.47c0.17-0.16 0.4-0.41 0.5-0.55s0.25-0.42 0.34-0.61 0.2-0.48 0.24-0.64c0.06-0.22 0.08-0.43 0.08-0.94 0-0.47-0.02-0.71-0.07-0.89-0.04-0.14-0.11-0.36-0.16-0.49s-0.27-0.54-0.48-0.89c-0.22-0.36-0.6-0.96-0.85-1.33-0.25-0.38-0.64-0.94-0.86-1.24-0.22-0.31-0.62-0.82-0.88-1.14-0.25-0.32-0.7-0.85-0.99-1.17-0.28-0.32-0.82-0.88-1.2-1.25-0.37-0.36-0.91-0.85-1.18-1.08-0.28-0.23-0.65-0.53-0.84-0.67-0.18-0.14-0.55-0.41-0.83-0.59-0.28-0.19-0.65-0.43-0.83-0.54-0.19-0.11-0.62-0.34-0.97-0.52s-0.88-0.42-1.17-0.53c-0.3-0.12-0.72-0.27-0.93-0.34-0.22-0.07-0.62-0.19-0.89-0.25-0.28-0.07-0.76-0.18-1.09-0.23-0.32-0.06-0.85-0.12-1.17-0.14-0.32-0.03-0.82-0.05-1.1-0.04zm46.13 0.18c-0.57-0.01-1.11-0.01-1.2 0-0.1 0.01-0.42 0.05-0.71 0.08-0.3 0.04-0.72 0.1-0.93 0.15-0.21 0.04-0.56 0.12-0.79 0.18s-0.66 0.19-0.95 0.29c-0.3 0.1-0.71 0.25-0.92 0.34-0.21 0.08-0.63 0.28-0.94 0.44s-0.79 0.43-1.06 0.6c-0.28 0.17-0.72 0.47-0.99 0.68-0.27 0.2-0.7 0.56-0.96 0.8-0.27 0.23-0.67 0.64-0.9 0.89-0.23 0.26-0.55 0.63-0.7 0.82-0.15 0.2-0.44 0.6-0.64 0.9s-0.47 0.76-0.62 1.02c-0.14 0.27-0.35 0.69-0.46 0.94-0.12 0.25-0.3 0.7-0.4 1-0.11 0.3-0.27 0.82-0.36 1.17-0.09 0.34-0.2 0.85-0.24 1.12-0.05 0.28-0.11 0.71-0.14 0.96-0.03 0.26-0.05 0.89-0.05 1.44 0 0.63 0.03 1.17 0.07 1.53 0.04 0.3 0.12 0.79 0.18 1.09 0.05 0.3 0.17 0.81 0.27 1.13 0.09 0.32 0.26 0.84 0.39 1.16 0.12 0.31 0.3 0.73 0.39 0.93 0.09 0.19 0.26 0.53 0.38 0.75s0.37 0.63 0.56 0.92c0.19 0.28 0.51 0.73 0.72 1 0.2 0.26 0.67 0.78 1.04 1.15 0.36 0.37 0.87 0.83 1.12 1.03 0.26 0.2 0.68 0.51 0.94 0.69 0.27 0.18 0.73 0.46 1.02 0.63 0.3 0.17 0.74 0.39 0.98 0.5s0.65 0.28 0.9 0.37 0.68 0.24 0.96 0.32c0.27 0.08 0.77 0.2 1.11 0.27 0.33 0.07 0.85 0.15 1.16 0.19 0.39 0.05 0.88 0.07 1.59 0.07 0.7 0 1.19-0.02 1.58-0.07 0.31-0.04 0.76-0.11 1-0.15 0.24-0.05 0.69-0.15 0.99-0.23 0.31-0.08 0.79-0.23 1.08-0.33 0.28-0.11 0.74-0.29 1.02-0.42 0.27-0.12 0.71-0.34 0.97-0.48s0.7-0.41 0.99-0.6 0.68-0.47 0.87-0.63c0.2-0.15 0.57-0.46 0.82-0.69 0.26-0.23 0.66-0.63 0.89-0.89 0.23-0.25 0.51-0.59 0.64-0.75 0.12-0.17 0.34-0.45 0.48-0.65 0.13-0.19 0.36-0.54 0.5-0.77 0.13-0.23 0.36-0.65 0.5-0.93 0.15-0.28 0.33-0.67 0.41-0.87s0.24-0.61 0.34-0.91 0.24-0.77 0.31-1.04c0.07-0.28 0.17-0.76 0.22-1.09 0.06-0.32 0.12-0.85 0.15-1.18 0.03-0.38 0.04-0.93 0.03-1.48-0.02-0.49-0.06-1.1-0.09-1.36-0.04-0.27-0.11-0.68-0.15-0.92-0.05-0.24-0.16-0.68-0.24-0.98s-0.23-0.77-0.33-1.06c-0.1-0.28-0.31-0.77-0.45-1.08-0.14-0.32-0.38-0.78-0.52-1.03-0.15-0.25-0.41-0.67-0.59-0.94-0.18-0.26-0.47-0.66-0.64-0.87-0.18-0.22-0.52-0.62-0.78-0.89-0.25-0.26-0.65-0.66-0.9-0.87-0.24-0.21-0.65-0.54-0.91-0.72-0.25-0.19-0.67-0.47-0.92-0.63s-0.72-0.42-1.04-0.58-0.83-0.4-1.13-0.51c-0.3-0.12-0.8-0.3-1.11-0.39-0.3-0.09-0.82-0.22-1.15-0.29-0.32-0.07-0.82-0.16-1.1-0.19-0.32-0.05-0.91-0.08-1.56-0.08zm-0.25 7.49c0.28-0.01 0.67 0.01 0.86 0.04 0.19 0.02 0.56 0.09 0.81 0.16 0.25 0.06 0.63 0.19 0.85 0.28 0.21 0.09 0.52 0.25 0.69 0.35 0.17 0.09 0.47 0.29 0.66 0.44 0.19 0.14 0.53 0.44 0.75 0.67s0.51 0.59 0.66 0.81c0.14 0.21 0.32 0.52 0.4 0.68 0.09 0.16 0.21 0.45 0.29 0.65 0.07 0.19 0.19 0.58 0.25 0.85 0.09 0.38 0.12 0.66 0.13 1.13 0.02 0.46 0 0.75-0.05 1.1-0.03 0.25-0.11 0.63-0.17 0.83s-0.17 0.52-0.25 0.72c-0.08 0.19-0.23 0.5-0.33 0.69-0.11 0.18-0.33 0.5-0.49 0.71-0.16 0.22-0.46 0.55-0.66 0.74-0.21 0.19-0.54 0.47-0.75 0.61-0.2 0.13-0.53 0.33-0.73 0.43-0.21 0.11-0.52 0.24-0.71 0.31-0.18 0.07-0.5 0.16-0.71 0.21-0.2 0.05-0.58 0.11-0.83 0.14-0.27 0.03-0.65 0.04-0.91 0.02-0.25-0.02-0.64-0.07-0.87-0.11s-0.58-0.13-0.76-0.19c-0.19-0.06-0.52-0.2-0.75-0.31s-0.55-0.28-0.72-0.38c-0.16-0.11-0.46-0.33-0.67-0.51-0.2-0.17-0.5-0.47-0.67-0.66-0.16-0.19-0.38-0.49-0.5-0.66-0.11-0.17-0.28-0.46-0.37-0.65-0.1-0.19-0.24-0.53-0.32-0.76s-0.19-0.62-0.23-0.86c-0.05-0.24-0.1-0.65-0.11-0.91-0.02-0.26-0.01-0.65 0.02-0.88 0.02-0.23 0.07-0.55 0.11-0.72 0.03-0.17 0.11-0.45 0.17-0.63s0.21-0.55 0.35-0.82c0.13-0.28 0.36-0.67 0.5-0.88 0.15-0.2 0.45-0.55 0.66-0.77 0.22-0.22 0.53-0.5 0.69-0.61 0.16-0.12 0.43-0.3 0.61-0.41s0.51-0.27 0.72-0.36 0.56-0.21 0.76-0.27c0.21-0.06 0.54-0.13 0.75-0.16 0.2-0.03 0.6-0.06 0.87-0.06zm81.32 15.11c-19.87 0-36.03 16.58-36.03 37.07s16.16 37.06 36.03 37.06c17.51 0 32.13-12.86 35.32-29.96 0.2-0.92 0.41-2.36 0.51-3.91 0.11-2.47-1.85-4.53-4.32-4.53-2.26 0-4.12 1.65-4.22 3.91-0.21 1.65-0.41 3.5-0.62 4.53-3.09 12.36-13.9 21.52-26.67 21.52-15.13 0-27.49-12.87-27.49-28.62s12.36-28.52 27.49-28.52c10.09 0 18.85 5.56 23.68 14 0.72 1.34 2.17 2.17 3.71 2.17 3.3 0 5.36-3.51 3.71-6.39-6.28-11.02-17.81-18.33-31.1-18.33zm-53.15 1.03c-2.26 0-4.22 1.96-4.22 4.22v63.64c0 2.26 1.96 4.22 4.22 4.22 2.37 0 4.33-1.96 4.33-4.22v-63.64c0-2.26-1.96-4.22-4.33-4.22zm104.44 0c-2.26 0-4.22 1.96-4.22 4.22v39.95c0 15.96 12.98 28.93 28.93 28.93 15.96 0 28.94-12.97 28.94-28.93v-39.95c0-2.26-1.96-4.22-4.33-4.22-2.26 0-4.22 1.96-4.22 4.22v39.95c0 11.33-9.16 20.39-20.39 20.39-11.22 0-20.38-9.06-20.38-20.39v-39.95c0-2.26-1.96-4.22-4.33-4.22zm91.3 0c-1.85 0-3.4 1.14-4.12 2.78l-25.94 63.22c-1.13 2.68 0.72 5.77 3.7 6.08h0.31 0.11 30.88c2.37 0 4.23-1.96 4.23-4.22 0-2.37-1.86-4.33-4.23-4.33h-24.4l19.26-46.95 1.23-3.09 1.24 3.09 21.72 52.72c0.62 1.64 2.27 2.78 4.12 2.78 3.09 0 5.25-3.2 4.02-6.08l-25.85-63.22c-0.72-1.64-2.37-2.78-4.12-2.78h-2.16zm47.18 0c-2.26 0-4.22 1.96-4.22 4.22v63.64c0 2.26 1.96 4.22 4.22 4.22 2.37 0 4.33-1.96 4.33-4.22v-63.64c0-2.26-1.96-4.22-4.33-4.22zm48.81 0c-2.17 0.21-3.81 2.27-3.81 4.43v53.85l-26.26-37.58c-0.72-1.13-2.06-1.85-3.4-1.85-3.08 0.1-4.94 3.6-3.19 6.17l31.2 44.69c1.03 1.44 2.68 2.37 4.53 2.37 3.09 0 5.66-2.48 5.66-5.56v-62.3c0-2.47-2.16-4.42-4.73-4.22zm18.61 0c-3.2 0-5.05 3.5-3.4 6.18l11.32 17.51c0.72 1.23 2.06 1.85 3.4 1.85 3.19 0 5.15-3.5 3.4-6.18l-11.33-17.5c-0.72-1.14-1.95-1.86-3.29-1.86h-0.1zm43.24 0c-1.34 0-2.68 0.72-3.4 1.96l-22.44 36.45v29.65c0 2.27 1.75 4.02 4.01 4.02h0.52c2.16 0 4.01-1.75 4.01-4.02v-29.65l0.52-0.83 20.18-31.4c1.75-2.68-0.21-6.18-3.4-6.18zm30.18 0c-1.85 0-3.39 1.14-4.11 2.78l-25.95 63.22c-1.13 2.68 0.72 5.77 3.71 6.08h0.31 0.1 30.89c2.37 0 4.22-1.96 4.22-4.22 0-2.37-1.85-4.33-4.22-4.33h-24.41l19.26-46.95 1.24-3.09 1.23 3.09 21.72 52.72c0.62 1.64 2.27 2.78 4.12 2.78 3.09 0 5.25-3.2 4.02-6.08l-25.84-63.22c-0.73-1.64-2.37-2.78-4.12-2.78h-2.17zm-329.06 34.7c-2.37 0-4.33 1.86-4.33 4.22 0 2.37 1.96 4.22 4.33 4.22h14.1c2.37 0 4.23-1.85 4.23-4.22 0-2.36-1.86-4.22-4.23-4.22h-14.1zm-144.98 26.73c0-0.01 0.08-0.01 0.18 0 0.1 0.02 0.62 0.07 1.16 0.13s1.5 0.15 2.13 0.21 1.79 0.15 2.58 0.21c0.79 0.05 2 0.13 2.69 0.17 0.69 0.03 1.7 0.08 2.25 0.1 0.55 0.03 2.44 0.06 4.19 0.07 2.03 0.02 3.83 0.01 4.92-0.02 0.96-0.03 2.33-0.08 3.05-0.11 0.72-0.04 1.75-0.09 2.29-0.13 0.54-0.03 1.47-0.1 2.07-0.14 0.59-0.05 1.59-0.14 2.21-0.19 0.62-0.06 1.53-0.15 2.04-0.21 0.5-0.05 0.92-0.09 0.93-0.09 0 0.01-0.09 0.45-0.2 0.97-0.12 0.53-0.35 1.48-0.51 2.12s-0.4 1.57-0.53 2.07c-0.14 0.49-0.36 1.28-0.5 1.75s-0.41 1.31-0.6 1.88c-0.18 0.56-0.49 1.46-0.68 1.99-0.2 0.54-0.52 1.4-0.73 1.92s-0.56 1.35-0.78 1.84c-0.21 0.49-0.59 1.29-0.82 1.77-0.24 0.48-0.59 1.17-0.78 1.53-0.2 0.35-0.51 0.9-0.7 1.23-0.19 0.32-0.56 0.9-0.81 1.29-0.26 0.39-0.65 0.94-0.86 1.23-0.21 0.28-0.57 0.74-0.79 1s-0.56 0.66-0.76 0.87c-0.21 0.22-0.57 0.59-0.82 0.81-0.24 0.23-0.61 0.55-0.82 0.71s-0.57 0.42-0.81 0.58-0.68 0.41-0.97 0.55c-0.29 0.15-0.74 0.33-1 0.41-0.26 0.09-0.64 0.19-0.85 0.23-0.24 0.04-0.59 0.07-1 0.07-0.44 0-0.75-0.02-1.04-0.08-0.23-0.04-0.61-0.14-0.85-0.22-0.25-0.08-0.65-0.24-0.9-0.36s-0.64-0.33-0.85-0.46-0.57-0.38-0.8-0.55-0.59-0.46-0.8-0.65-0.57-0.53-0.8-0.76-0.62-0.67-0.87-0.96c-0.26-0.3-0.66-0.81-0.9-1.13s-0.65-0.9-0.9-1.29c-0.26-0.39-0.63-0.97-0.82-1.29-0.19-0.33-0.5-0.88-0.69-1.23-0.2-0.36-0.55-1.05-0.79-1.53-0.23-0.48-0.6-1.28-0.82-1.77s-0.57-1.32-0.77-1.83c-0.21-0.52-0.53-1.35-0.71-1.86-0.18-0.5-0.5-1.4-0.69-2-0.2-0.6-0.47-1.46-0.61-1.92-0.13-0.46-0.35-1.21-0.48-1.68-0.13-0.46-0.37-1.4-0.54-2.08-0.17-0.69-0.41-1.67-0.52-2.19-0.12-0.53-0.22-0.97-0.22-0.98z" transform="translate(3 5)" fill="#000000" stroke="#000000" stroke-width="2" filter="url(#f1)" opacity="0.6" />
<animate xlink:href="#blur1" attributeName="stdDeviation" from="5" to="5" dur="4s" begin="0s" values="5; 30; 5" keyTimes="0; 0.5; 1" calcMode="spline"
						keySplines=".73 .18 .24 .87;
									.73 .18 .24 .87;"
									repeatCount="indefinite" fill="freeze" />
<animate xlink:href="#shadow" attributeName="opacity" from="0.6" to="0.1" dur="4s" begin="0s" values="0.6; 0.1; 0.6" keyTimes="0; 0.5; 1" repeatCount="indefinite" fill="freeze" />
<animateTransform xlink:href="#logo-hover"
						attributeName="transform"
                          attributeType="XML"
                          type="translate"
                          from="0 0"
                          to="0 0"
						  values="0 0; 0 -20; 0 0"
						  calcMode="spline"
						keySplines=".73 .18 .24 .87;
									.73 .18 .24 .87;"
                          dur="4s"
                          repeatCount="indefinite"
	  />
<g id="logo-hover">

 
 <g id="logo-group" transform="translate(-7.7485 .059685) scale(1)">
  <path id="path108518" style="font-variant-ligatures:normal" d="m378.49 347.96c-2.2651 0-4.2214 1.9562-4.2214 4.2214v63.629c0 2.2651 1.9562 4.2214 4.2214 4.2214 2.3681 0 4.3243-1.9562 4.3243-4.2214v-63.629c0-2.2651-1.9562-4.2214-4.3243-4.2214z" stroke-miterlimit="2" stroke-width="0" fill="#0d6cd6"/>
  <path id="path108520" style="font-variant-ligatures:normal" d="m463.15 382.66c-2.2651 0-4.1184 1.6474-4.2214 3.9125-0.20592 1.6474-0.41184 3.5006-0.61776 4.5302-3.0888 12.355-13.9 21.519-26.667 21.519-15.135 0-27.49-12.87-27.49-28.623s12.355-28.52 27.49-28.52c10.09 0 18.842 5.5598 23.681 14.003 0.72072 1.3385 2.1622 2.1622 3.7066 2.1622 3.2947 0 5.3539-3.5006 3.7066-6.3835-6.2806-11.017-17.812-18.327-31.094-18.327-19.871 0-36.036 16.577-36.036 37.066s16.165 37.066 36.036 37.066c17.503 0 32.124-12.87 35.315-29.961 0.20592-0.92664 0.41184-2.3681 0.5148-3.9125 0.10296-2.471-1.8533-4.5302-4.3243-4.5302zm-15.856 0h-14.106c-2.3681 0-4.3243 1.8533-4.3243 4.2214s1.9562 4.2214 4.3243 4.2214h14.106c2.3681 0 4.2214-1.8533 4.2214-4.2214s-1.8533-4.2214-4.2214-4.2214z" stroke-miterlimit="2" stroke-width="0" fill="#0d6cd6"/>
  <path id="path108522" style="font-variant-ligatures:normal" d="m536.57 392.13v-39.948c0-2.2651-1.9562-4.2214-4.3243-4.2214-2.2651 0-4.2214 1.9562-4.2214 4.2214v39.948c0 11.326-9.1634 20.386-20.386 20.386s-20.386-9.0605-20.386-20.386v-39.948c0-2.2651-1.9562-4.2214-4.3243-4.2214-2.2651 0-4.2214 1.9562-4.2214 4.2214v39.948c0 15.959 12.973 28.932 28.932 28.932s28.932-12.973 28.932-28.932z" stroke-miterlimit="2" stroke-width="0" fill="#0d6cd6"/>
  <path id="path108524" style="font-variant-ligatures:normal" d="m606.35 413.96-25.84-63.22c-0.72072-1.6474-2.3681-2.7799-4.1184-2.7799h-2.1622c-1.8533 0-3.3977 1.1326-4.1184 2.7799l-25.946 63.217c-1.1326 2.677 0.72072 5.7658 3.7066 6.0746h31.3c2.3681 0 4.2214-1.9562 4.2214-4.2214 0-2.3681-1.8533-4.3243-4.2214-4.3243h-24.4l19.254-46.95 1.2355-3.0888 1.2355 3.0888 21.725 52.716c0.61776 1.6474 2.2651 2.7799 4.1184 2.7799 3.0888 0 5.251-3.1918 4.0154-6.0746z" stroke-miterlimit="2" stroke-width="0" fill="#0d6cd6"/>
  <path id="path108526" style="font-variant-ligatures:normal" d="m670.22 347.96c-2.1622 0.20592-3.8095 2.2651-3.8095 4.4273v53.848l-26.255-37.58c-0.72072-1.1326-2.0592-1.8533-3.3977-1.8533-3.0888 0.10296-4.9421 3.6036-3.1918 6.1776l31.197 44.685c1.0296 1.4414 2.677 2.3681 4.5302 2.3681 3.0888 0 5.6628-2.471 5.6628-5.5598v-62.291c0-2.471-2.1622-4.4273-4.7362-4.2214zm-48.803 0c-2.2651 0-4.2214 1.9562-4.2214 4.2214v63.629c0 2.2651 1.9562 4.2214 4.2214 4.2214 2.3681 0 4.3243-1.9562 4.3243-4.2214v-63.629c0-2.2651-1.9562-4.2214-4.3243-4.2214z" stroke-miterlimit="2" stroke-width="0" fill="#0d6cd6"/>
  <path id="path108528" style="font-variant-ligatures:normal" d="m703.55 367.32-11.326-17.503c-0.72072-1.1326-1.9562-1.8533-3.2947-1.8533h-0.10296c-3.1918 0-5.045 3.5006-3.3977 6.1776l11.326 17.503c0.72072 1.2355 2.0592 1.8533 3.3977 1.8533 3.1918 0 5.148-3.5006 3.3977-6.1776zm28.52-19.36c-1.3385 0-2.677 0.72072-3.3977 1.9562l-22.445 36.448v29.652c0 2.2651 1.7503 4.0154 4.0154 4.0154h0.5148c2.1622 0 4.0154-1.7503 4.0154-4.0154v-29.652l0.5148-0.82368 20.18-31.403c1.7503-2.677-0.20592-6.1776-3.3977-6.1776z" stroke-miterlimit="2" stroke-width="0" fill="#0d6cd6"/>
  <path id="path108530" style="font-variant-ligatures:normal" d="m794.38 413.96-25.843-63.217c-0.72072-1.6474-2.3681-2.7799-4.1184-2.7799h-2.1622c-1.8533 0-3.3977 1.1326-4.1184 2.7799l-25.946 63.217c-1.1326 2.677 0.72072 5.7658 3.7066 6.0746h31.3c2.3681 0 4.2214-1.9562 4.2214-4.2214 0-2.3681-1.8533-4.3243-4.2214-4.3243h-24.402l19.254-46.95 1.2355-3.0888 1.2355 3.0888 21.725 52.716c0.61776 1.6474 2.2651 2.7799 4.1184 2.7799 3.0888 0 5.251-3.1918 4.0154-6.0746z" stroke-miterlimit="2" stroke-width="0" fill="#0d6cd6"/>
  <path id="icon" stroke-width=".75" fill="#bd9799" d="m304.43 324.15c-0.28648 0.003-0.7089 0.0213-0.93825 0.0396-0.22935 0.0188-0.6672 0.0738-0.97283 0.1226-0.30566 0.0484-0.77939 0.14303-1.0525 0.20975-0.27314 0.0667-0.731 0.19724-1.0179 0.29065-0.28648 0.0934-0.74518 0.26188-1.0192 0.37447-0.27396 0.11259-0.74768 0.32985-1.0534 0.48288-0.30566 0.15304-0.74309 0.39115-0.97245 0.52917-0.22935 0.13804-0.64218 0.40283-0.9174 0.58881-0.27522 0.18556-0.67846 0.47621-0.89655 0.64593-0.21767 0.1693-0.55461 0.4416-0.74852 0.60465-0.1939 0.16305-0.6159 0.54252-0.93825 0.84315-0.32234 0.30107-0.83445 0.81855-1.138 1.1505-0.30399 0.33193-0.756 0.84772-1.005 1.1455-0.24895 0.29816-0.69681 0.86903-0.9954 1.2681-0.29858 0.39949-0.77565 1.0733-1.06 1.4979-0.28398 0.42409-0.66095 1.0079-0.83693 1.2969-0.17639 0.28898-0.49665 0.83318-0.71223 1.2093-0.21559 0.37614-0.59256 1.0629-0.83775 1.5262-0.2452 0.46329-0.63468 1.2418-0.86528 1.7306-0.23101 0.48831-0.57963 1.2539-0.7752 1.7014-0.19557 0.44702-0.51082 1.1976-0.70139 1.668-0.19016 0.46995-0.49665 1.2602-0.68138 1.7556-0.18431 0.49581-0.49665 1.3778-0.69388 1.9599-0.19682 0.58255-0.4808 1.4533-0.63009 1.9348-0.1497 0.48163-0.40074 1.3261-0.55795 1.8765-0.15721 0.55044-0.39865 1.4324-0.53668 1.9599-0.13844 0.5275-0.32817 1.2781-0.422 1.668-0.0938 0.38989-0.26313 1.1217-0.37572 1.6263-0.11301 0.50457-0.30775 1.424-0.43326 2.0433-0.1251 0.61924-0.31317 1.595-0.41742 2.1684-0.10467 0.57337-0.25562 1.4462-0.33568 1.939-0.0805 0.49289-0.21142 1.3373-0.29148 1.8765-0.0801 0.53918-0.21142 1.4958-0.29274 2.1267-0.0809 0.6305-0.20307 1.6442-0.27147 2.2518-0.068 0.60756-0.18056 1.7243-0.24936 2.4812-0.0692 0.75682-0.16305 1.892-0.20934 2.5228-0.0459 0.6305-0.10216 1.4562-0.1251 1.8348-0.0229 0.37821-0.0696 1.2885-0.10341 2.0224-0.0342 0.73392-0.0838 2.1225-0.11051 3.0858-0.0304 1.1046-0.0392 2.9215-0.0242 4.9206 0.0134 1.7431 0.0438 3.6196 0.0676 4.17 0.0238 0.55044 0.0721 1.5638 0.108 2.2518 0.0354 0.68805 0.11092 1.8982 0.16763 2.6896 0.0563 0.79102 0.15971 2.0579 0.22935 2.8148 0.0696 0.75682 0.1718 1.7885 0.22684 2.2922 0.055 0.50416 0.0947 0.92198 0.088 0.92865-0.007 0.007-0.39489-0.0734-0.86317-0.17806-0.46787-0.10425-1.3836-0.32067-2.035-0.48038-0.65135-0.15971-1.6363-0.41408-2.1892-0.56545-0.55252-0.15096-1.4082-0.39573-1.9016-0.54377-0.49289-0.14803-1.2718-0.3924-1.7306-0.54335-0.4587-0.15053-1.256-0.42367-1.7722-0.60631-0.51582-0.18307-1.379-0.50666-1.9182-0.71933-0.53876-0.21267-1.2518-0.50374-1.5846-0.64718-0.33234-0.14346-1.0079-0.44703-1.5012-0.67513-0.49289-0.2281-1.3052-0.62967-1.8052-0.89325-0.49957-0.26313-1.2314-0.66803-1.6263-0.89948-0.39449-0.23185-1.043-0.63592-1.4408-0.8982-0.39782-0.26229-0.99833-0.68471-1.3344-0.93869-0.33611-0.25438-0.73309-0.56504-0.88238-0.69056-0.14928-0.12551-0.49623-0.4316-0.77145-0.68012-0.27522-0.24854-0.70222-0.67388-0.94822-0.94493-0.24645-0.27147-0.56378-0.6426-0.70473-0.82522-0.14095-0.18265-0.38698-0.52918-0.54669-0.7698-0.15971-0.24103-0.40824-0.6768-0.55253-0.9687-0.14428-0.29232-0.32985-0.74268-0.41157-1.0008-0.0822-0.25854-0.18182-0.63885-0.22143-0.84525-0.0492-0.25521-0.0721-0.58172-0.0721-1.0216 0-0.44828 0.0225-0.75938 0.073-1.0154 0.0404-0.20266 0.13886-0.56878 0.2185-0.81315 0.0801-0.24436 0.25646-0.66928 0.39198-0.94447 0.13595-0.27522 0.37614-0.69764 0.5346-0.93825 0.15804-0.24103 0.40115-0.58463 0.54001-0.76395 0.13886-0.17973 0.45287-0.54961 0.69848-0.8223 0.24519-0.27272 0.6993-0.72642 1.0091-1.0083 0.30941-0.28148 0.82403-0.72058 1.1426-0.97538 0.31859-0.25479 0.87488-0.66886 1.2364-0.91987 0.36112-0.25146 1.0133-0.68013 1.4491-0.95243 0.56921-0.35611 0.88448-0.58463 1.1197-0.81067 0.17973-0.17306 0.41866-0.45411 0.53042-0.62425 0.11217-0.17014 0.26271-0.45119 0.33485-0.62467 0.0721-0.17347 0.16638-0.48455 0.20892-0.69139 0.0429-0.20683 0.0776-0.54501 0.0776-0.75142 0-0.20642-0.0346-0.54461-0.0776-0.75142-0.0425-0.20684-0.13678-0.51792-0.20892-0.69139-0.0721-0.17348-0.22393-0.45662-0.33735-0.62925-0.11301-0.17264-0.36321-0.46162-0.55544-0.64302-0.19265-0.18097-0.45453-0.39156-0.58255-0.46787-0.12802-0.0763-0.37947-0.20182-0.55878-0.27897-0.17931-0.0771-0.48289-0.17139-0.67471-0.20975-0.26271-0.0525-0.4833-0.0646-0.89655-0.0496-0.30232 0.0113-0.65094 0.0496-0.77767 0.0851-0.12677 0.0355-0.3386 0.10509-0.47121 0.15471-0.13219 0.0496-0.52625 0.26313-0.87488 0.47455-0.34902 0.21142-0.95325 0.59756-1.3432 0.85778-0.3899 0.2602-0.95288 0.65135-1.251 0.86857-0.29816 0.21767-0.8052 0.60632-1.1272 0.864-0.32151 0.25812-0.8469 0.70307-1.1676 0.9891-0.32025 0.28607-0.90157 0.84773-1.2914 1.2485-0.3899 0.40032-0.90863 0.97162-1.153 1.2689-0.24436 0.29732-0.61716 0.78188-0.8286 1.0767-0.21141 0.29482-0.52917 0.77273-0.70639 1.0621-0.17681 0.28898-0.43577 0.74142-0.57546 1.0054-0.1397 0.26355-0.3653 0.74226-0.50207 1.0634-0.13635 0.32109-0.32526 0.81818-0.41991 1.105-0.0942 0.28648-0.2281 0.73851-0.29691 1.0041-0.0692 0.26563-0.17305 0.76313-0.23101 1.105-0.0584 0.34236-0.12761 0.96623-0.15429 1.3861-0.0371 0.5888-0.0367 0.94072 0.002 1.5329 0.0275 0.42284 0.0959 1.0379 0.15178 1.3665 0.0555 0.32901 0.15054 0.79358 0.21101 1.0321 0.06 0.23852 0.18431 0.66345 0.27522 0.9441 0.0913 0.28064 0.25812 0.73434 0.37071 1.0083 0.11259 0.27438 0.31817 0.72474 0.45703 1.0016 0.13887 0.27689 0.37697 0.71432 0.52959 0.972 0.15263 0.25812 0.39032 0.63801 0.52834 0.84443 0.13761 0.20641 0.39115 0.56295 0.56295 0.7923 0.17222 0.22935 0.48539 0.62424 0.69639 0.8778 0.21101 0.25353 0.59297 0.68513 0.849 0.9591 0.25562 0.27396 0.73184 0.74934 1.058 1.0558 0.32651 0.30691 0.88448 0.80145 1.2398 1.0992 0.3557 0.29773 0.93743 0.75937 1.2927 1.0262 0.3557 0.26688 1.0688 0.7677 1.5846 1.113 0.51625 0.34528 1.2572 0.81773 1.6472 1.0504 0.3899 0.23269 0.99998 0.58463 1.3552 0.78188 0.3557 0.19766 1.1251 0.60006 1.7097 0.8949 0.58505 0.29439 1.4012 0.68971 1.814 0.87817 0.41283 0.18849 1.1634 0.51667 1.668 0.72892 0.50457 0.21226 1.3302 0.54627 1.8352 0.74226 0.50457 0.19599 1.424 0.53459 2.0433 0.75187 0.61883 0.21726 1.6042 0.54669 2.1888 0.73142 0.58505 0.18473 1.4858 0.45829 2.0016 0.60715 0.51625 0.14929 1.4261 0.40116 2.0224 0.56045 0.59631 0.15888 1.6004 0.41158 2.231 0.56212 0.63092 0.15012 1.5971 0.36987 2.1476 0.48872 0.55044 0.11843 1.4608 0.30441 2.0224 0.41283l1.0216 0.19766 0.0133 0.1005c0.008 0.0554 0.13553 0.71015 0.2844 1.4558 0.14886 0.74517 0.38364 1.8524 0.52125 2.4603 0.13803 0.60757 0.39781 1.6868 0.57712 2.3978 0.17973 0.71098 0.44285 1.7055 0.58422 2.2101 0.14178 0.50457 0.37947 1.3206 0.52834 1.8139 0.14845 0.4929 0.43576 1.3937 0.63801 2.0016 0.20224 0.60757 0.49372 1.452 0.64718 1.8765 0.15346 0.42408 0.49206 1.306 0.75188 1.9599 0.25979 0.65343 0.64468 1.5825 0.85485 2.0642 0.21016 0.48163 0.65177 1.4253 0.98122 2.0967 0.32943 0.67178 0.79065 1.5725 1.0254 2.0016 0.23435 0.4295 0.62717 1.1184 0.87278 1.5312 0.24561 0.41283 0.72766 1.1726 1.0717 1.6888 0.34361 0.51582 0.85028 1.2385 1.1259 1.6054 0.27564 0.36696 0.74477 0.95782 1.043 1.3135 0.29816 0.35529 0.77393 0.89446 1.0575 1.1981 0.28356 0.30315 0.75975 0.7806 1.058 1.0609 0.29816 0.27981 0.7581 0.68847 1.0216 0.9078 0.26396 0.21935 0.68722 0.55169 0.94073 0.73851 0.25395 0.18682 0.64801 0.46162 0.8757 0.61007 0.22809 0.14845 0.60048 0.37697 0.82777 0.50749 0.22727 0.13052 0.61758 0.33985 0.86775 0.46538 0.24978 0.12509 0.67846 0.32025 0.95288 0.43284 0.27396 0.11259 0.73517 0.28189 1.025 0.37614 0.28939 0.0942 0.75562 0.22601 1.0354 0.29273 0.27981 0.0671 0.74184 0.15971 1.0262 0.20641 0.28481 0.0463 0.85987 0.10675 1.2785 0.13428 0.59423 0.0392 0.9303 0.0388 1.5329-0.00043 0.42408-0.028 1.0408-0.0963 1.3694-0.1522 0.32901-0.0554 0.79358-0.15053 1.0321-0.211 0.23852-0.0601 0.66345-0.18431 0.9441-0.27522 0.28064-0.0913 0.73476-0.25812 1.0088-0.37072 0.27438-0.11258 0.71056-0.31107 0.9699-0.44118 0.25938-0.12969 0.66887-0.34903 0.90945-0.48747 0.24102-0.13845 0.63509-0.38322 0.8757-0.54419 0.24102-0.16054 0.6255-0.43243 0.85485-0.60423 0.22935-0.17139 0.62424-0.48497 0.8778-0.69639 0.25353-0.21184 0.68513-0.59381 0.9591-0.84982 0.27396-0.25563 0.74934-0.73184 1.0558-1.058 0.30691-0.32652 0.7977-0.8799 1.0912-1.2306 0.29315-0.35028 0.75352-0.9303 1.0225-1.289 0.26938-0.35862 0.73725-1.0196 1.04-1.4691 0.30274-0.44911 0.72849-1.1075 0.94657-1.4628 0.21767-0.35571 0.59673-1.0029 0.84195-1.4386 0.2452-0.43577 0.69639-1.2898 1.0024-1.8974 0.3065-0.60799 0.71099-1.4428 0.89948-1.8556 0.18807-0.41283 0.51624-1.1634 0.72849-1.668 0.21226-0.50457 0.54627-1.3302 0.74226-1.8352 0.19599-0.50457 0.5346-1.424 0.75188-2.0433 0.21726-0.61883 0.54669-1.6042 0.73225-2.1888 0.18515-0.58506 0.49832-1.6263 0.69597-2.3144 0.19766-0.68805 0.525-1.9078 0.72767-2.7105 0.20266-0.80273 0.49164-2.0133 0.64176-2.6896 0.15012-0.67638 0.37655-1.7527 0.50374-2.3915 0.12677-0.63884 0.2306-1.198 0.2306-1.2422s0.0233-0.0872 0.0521-0.0959c0.0288-0.008 0.46496-0.0934 0.96953-0.18891 0.50457-0.0955 1.4804-0.29565 2.1684-0.44452 0.68805-0.14887 1.8214-0.41033 2.5183-0.58088 0.69723-0.17097 1.7576-0.44327 2.356-0.60549 0.59882-0.16263 1.5862-0.44493 2.1938-0.62758 0.60799-0.18265 1.6588-0.51708 2.3352-0.74309 0.67679-0.22644 1.6338-0.56087 2.1267-0.74435 0.49331-0.18306 1.2718-0.4833 1.7306-0.6672 0.4587-0.18431 1.1155-0.45578 1.4595-0.60382 0.34402-0.14803 0.92535-0.4049 1.2914-0.57087 0.36655-0.16638 1.0984-0.51791 1.6263-0.78187 0.52834-0.26396 1.289-0.65886 1.6901-0.8778 0.40157-0.21851 1.0583-0.59423 1.4595-0.83483 0.40157-0.24061 0.9645-0.58922 1.251-0.7752 0.2869-0.18556 0.73726-0.48621 1.0008-0.66761 0.26396-0.18139 0.76102-0.54085 1.105-0.79897 0.34402-0.25812 0.91657-0.71265 1.2718-1.0104 0.3557-0.29774 0.9036-0.7827 1.2184-1.078 0.31442-0.29524 0.79102-0.77145 1.0592-1.058 0.26813-0.2869 0.66762-0.73726 0.88777-1.0008 0.21976-0.26396 0.55128-0.68596 0.73684-0.93825 0.18515-0.25228 0.43076-0.59965 0.54544-0.77145 0.11509-0.17222 0.33401-0.52375 0.48664-0.78187 0.15261-0.25771 0.39072-0.69514 0.52959-0.972 0.13886-0.27689 0.34443-0.72725 0.45702-1.0016 0.11259-0.27397 0.2819-0.73475 0.37614-1.0246 0.0942-0.2894 0.22602-0.756 0.29315-1.0366 0.0671-0.28064 0.1593-0.74268 0.20433-1.0267 0.0454-0.28356 0.10175-0.76815 0.12594-1.0767 0.0238-0.30858 0.0434-0.75307 0.0434-0.98827 0-0.23478-0.0196-0.6672-0.0438-0.9612-0.0241-0.29357-0.0821-0.77603-0.12927-1.0721-0.0467-0.29607-0.13928-0.7602-0.20558-1.0316-0.0659-0.27105-0.19641-0.72767-0.28982-1.0145-0.0934-0.28648-0.26396-0.75105-0.37905-1.0325-0.11509-0.28106-0.36487-0.81315-0.55503-1.1822-0.19057-0.36904-0.48163-0.88485-0.64801-1.1468-0.16597-0.26188-0.42368-0.65094-0.57297-0.86482-0.14886-0.21393-0.422-0.58005-0.60673-0.81315s-0.45911-0.56504-0.60965-0.73684c-0.15096-0.17222-0.47872-0.53293-0.7285-0.8019-0.24978-0.26939-0.73809-0.75105-1.085-1.0708-0.34694-0.31943-0.87697-0.7869-1.178-1.0379-0.30066-0.25103-0.88238-0.70764-1.2927-1.0145-0.40991-0.30692-1.1021-0.79478-1.5379-1.0846-0.43576-0.2894-1.0363-0.67554-1.3344-0.85778-0.29815-0.18264-0.92655-0.54835-1.397-0.81315-0.46995-0.26479-1.258-0.68679-1.7514-0.9378-0.49289-0.25103-1.1451-0.57295-1.4491-0.71557-0.30399-0.14261-0.95865-0.43702-1.4549-0.65427-0.49665-0.21726-1.2318-0.52793-1.6346-0.69056-0.40241-0.16263-1.1455-0.45119-1.6514-0.64134-0.50624-0.19057-1.3419-0.48998-1.8581-0.66554-0.51582-0.17556-1.3414-0.44827-1.8348-0.60548-0.49289-0.15721-1.2531-0.3899-1.6888-0.51666-0.43576-0.12677-1.2518-0.35487-1.814-0.50624-0.56169-0.15178-1.472-0.38614-2.0224-0.52125-0.55044-0.1351-1.5542-0.36779-2.231-0.51708-0.67637-0.1497-1.6054-0.34653-2.0642-0.43785-0.4587-0.0917-1.2468-0.24186-1.7514-0.33402-0.50457-0.0922-1.3114-0.2331-1.7931-0.31317-0.48163-0.0801-1.3165-0.21141-1.8556-0.2919-0.53918-0.0809-1.402-0.20266-1.9182-0.27063-0.51582-0.0684-1.4165-0.18056-2.0016-0.24978-0.58463-0.0692-1.4386-0.16388-1.8974-0.21016-0.4587-0.0467-1.256-0.12176-1.7722-0.16763-0.51582-0.0459-1.4449-0.12051-2.0642-0.16638-0.61924-0.0455-1.6418-0.11176-2.2726-0.14637-0.6305-0.035-1.55-0.0822-2.0433-0.10467-0.49289-0.0225-1.675-0.0617-2.6271-0.0876-0.9516-0.0259-2.3402-0.0388-3.0858-0.0288l-1.3552 0.0179-0.2919 0.0876c-0.16054 0.0484-0.40323 0.13719-0.53918 0.19724-0.13552 0.0605-0.37947 0.19557-0.5421 0.30024-0.16221 0.10508-0.42742 0.32443-0.58963 0.48747-0.1618 0.16305-0.35362 0.38364-0.42618 0.48998-0.0721 0.10633-0.19682 0.32359-0.27688 0.48288-0.0797 0.1593-0.19599 0.45662-0.25854 0.66137-0.10175 0.33443-0.11301 0.43534-0.11301 0.9975 0.00042 0.50623 0.0175 0.6868 0.0884 0.94657 0.0484 0.1764 0.15429 0.46454 0.23519 0.63968s0.22977 0.4341 0.33068 0.57588c0.10091 0.14136 0.30316 0.3753 0.44953 0.52042 0.14595 0.14469 0.39364 0.34902 0.55044 0.45369 0.15679 0.10425 0.41533 0.24437 0.5742 0.3115 0.15888 0.0667 0.4341 0.16055 0.61174 0.20808l0.32234 0.0872 2.2134 0.0329c1.2172 0.0179 2.756 0.0538 3.4194 0.0797 0.66303 0.0254 1.7222 0.0738 2.3528 0.10759 0.63093 0.0338 1.6818 0.0992 2.3352 0.14595 0.65386 0.0467 1.7047 0.13135 2.3352 0.18807 0.63093 0.0567 1.5875 0.15054 2.1267 0.2085 0.53919 0.058 1.4399 0.1618 2.0016 0.2306 0.56212 0.0692 1.4816 0.1914 2.0433 0.27147 0.56212 0.0805 1.4344 0.21184 1.939 0.2919 0.50457 0.0805 1.3398 0.22101 1.8556 0.31233 0.51625 0.0913 1.3699 0.25103 1.8974 0.35487 0.52751 0.10383 1.5129 0.31067 2.1892 0.45953 0.6768 0.14929 1.6805 0.38198 2.231 0.5175 0.55044 0.13553 1.3574 0.34152 1.7931 0.45828 0.43577 0.11676 1.1772 0.32484 1.6472 0.46245 0.47038 0.13761 1.3023 0.39156 1.8494 0.56421 0.5471 0.17305 1.382 0.45078 1.8556 0.61799 0.47372 0.1668 1.1989 0.43076 1.6117 0.5863 0.41283 0.15555 1.1446 0.44619 1.6263 0.64593 0.48164 0.20016 1.1384 0.48081 1.4595 0.62467 0.32109 0.14345 1.0342 0.48206 1.5846 0.7527 0.55044 0.27063 1.2635 0.63676 1.5846 0.8136 0.32109 0.17681 0.9099 0.5175 1.3085 0.75683 0.39823 0.23977 0.9708 0.60048 1.2718 0.8019 0.30065 0.20141 0.80985 0.56253 1.1309 0.80272 0.32109 0.23978 0.75938 0.58338 0.97328 0.76313 0.21434 0.18014 0.58047 0.50331 0.81315 0.71849 0.23311 0.21517 0.60882 0.59214 0.83527 0.83775 0.22686 0.24561 0.54378 0.61549 0.70515 0.82192 0.16096 0.20642 0.42409 0.57213 0.58422 0.81315 0.16013 0.24061 0.40991 0.68013 0.55461 0.9762 0.1447 0.29565 0.32943 0.74601 0.41033 1.0008 0.0809 0.25437 0.17931 0.63134 0.21892 0.83775 0.0492 0.25521 0.0721 0.58172 0.0721 1.0216 0 0.43994-0.0229 0.76643-0.0721 1.0216-0.0396 0.20642-0.13928 0.58672-0.22143 0.84525-0.0817 0.25813-0.26729 0.70849-0.41157 1.0008-0.14429 0.2919-0.39282 0.72767-0.55211 0.9687-0.15971 0.24061-0.42201 0.60674-0.58297 0.81315-0.16137 0.20642-0.47829 0.57588-0.70515 0.82148-0.22643 0.2452-0.58963 0.61132-0.80775 0.8136-0.21767 0.20224-0.61173 0.54751-0.8757 0.76725-0.26354 0.22017-0.7139 0.57462-1.0008 0.78772-0.28647 0.21309-0.84022 0.59798-1.2302 0.85485-0.38989 0.25688-0.97162 0.623-1.2927 0.81315-0.32109 0.19057-0.87442 0.50457-1.2302 0.69765-0.35528 0.19348-1.0404 0.54459-1.522 0.78105-0.48164 0.23601-1.281 0.60923-1.7768 0.82897-0.49539 0.21977-1.321 0.56754-1.8348 0.77228-0.51332 0.20516-1.3744 0.53208-1.9136 0.72682-0.53876 0.19475-1.4395 0.50457-2.0016 0.68889-0.56169 0.18431-1.4061 0.45036-1.8765 0.59089-0.46995 0.14053-1.2593 0.36613-1.7535 0.50165-0.49456 0.13553-1.4266 0.3778-2.0716 0.53793-0.64467 0.16055-1.5988 0.38697-2.12 0.5029-0.52125 0.11635-0.95408 0.20475-0.9624 0.19682-0.008-0.008 0.0334-0.44452 0.0913-0.96952 0.058-0.52542 0.16054-1.5466 0.22726-2.2694 0.0671-0.72308 0.16931-1.9808 0.22727-2.7947 0.058-0.81442 0.13344-2.0154 0.16764-2.6688 0.0342-0.65386 0.0847-1.7422 0.11134-2.4186 0.0271-0.67679 0.0509-2.2718 0.053-3.5445l0.005-2.3144-0.0767-0.27105c-0.0421-0.14929-0.13052-0.39823-0.19641-0.55336-0.0659-0.15512-0.20182-0.40824-0.3019-0.56295-0.10008-0.15429-0.28065-0.38781-0.40074-0.51916-0.12051-0.13136-0.33486-0.32568-0.47622-0.43202-0.14178-0.10675-0.4024-0.26646-0.57963-0.3557-0.17681-0.0888-0.48663-0.21184-0.68805-0.27355-0.32776-0.0997-0.43159-0.11134-0.99165-0.11134-0.50623 0.00042-0.68679 0.0175-0.94657 0.0884-0.17639 0.0484-0.46454 0.15429-0.63968 0.23519s-0.4341 0.23018-0.57546 0.33151c-0.14136 0.10091-0.37572 0.30316-0.52125 0.44911-0.14511 0.14553-0.34944 0.39323-0.45369 0.55002s-0.24395 0.41533-0.31109 0.57421c-0.0668 0.15888-0.16054 0.4341-0.20808 0.61173l-0.0872 0.32235-0.0329 2.278c-0.0184 1.2526-0.0538 2.7914-0.0792 3.4194-0.025 0.62758-0.0738 1.648-0.108 2.2672-0.0346 0.61924-0.0909 1.5291-0.12552 2.0224-0.035 0.49289-0.10091 1.3373-0.14637 1.8765-0.0459 0.53876-0.1301 1.4491-0.18723 2.0224-0.0571 0.57337-0.17014 1.5958-0.25103 2.2726-0.0805 0.67637-0.17056 1.4128-0.19975 1.6363-0.0296 0.2231-0.0663 0.41909-0.0822 0.43493-0.0158 0.0158-0.21184 0.053-0.43493 0.0822-0.22351 0.0296-0.95955 0.11969-1.6363 0.20058-0.67637 0.0809-1.8022 0.20308-2.502 0.27188-0.6993 0.0688-1.7314 0.16263-2.2935 0.2085-0.5617 0.0459-1.6125 0.12052-2.3352 0.16555-0.72224 0.0455-1.7543 0.10259-2.2935 0.12677-0.53876 0.0242-1.5708 0.0621-2.2935 0.0842-0.72224 0.0221-2.4582 0.0404-3.8572 0.0404-1.399 0.00042-3.1534-0.0179-3.899-0.0404-0.74517-0.023-1.7773-0.0605-2.2935-0.0842-0.51582-0.0238-1.3978-0.0713-1.9599-0.1055-0.56169-0.0346-1.2748-0.0813-1.5846-0.10342-0.30941-0.0225-0.9099-0.0696-1.3344-0.10508-0.42408-0.035-1.3369-0.11926-2.0278-0.18682-0.69096-0.0676-1.8073-0.18848-2.4812-0.26896-0.67345-0.0801-1.417-0.17097-1.6517-0.20141-0.23477-0.0308-0.43993-0.0688-0.45578-0.0847-0.0159-0.0158-0.0525-0.21142-0.0822-0.43452-0.0292-0.22351-0.11927-0.95992-0.20016-1.6363-0.0809-0.6768-0.19391-1.6993-0.25145-2.2726-0.058-0.57338-0.15138-1.5963-0.20767-2.2726-0.0563-0.6768-0.14053-1.8402-0.18682-2.5854-0.0463-0.7456-0.103-1.7493-0.12593-2.231-0.0229-0.48164-0.0634-1.6263-0.0901-2.5437-0.03-1.0467-0.0392-2.8172-0.0242-4.7538 0.0133-1.6972 0.0438-3.5458 0.068-4.1074 0.0242-0.56212 0.073-1.5658 0.108-2.231 0.035-0.66512 0.10175-1.7348 0.14761-2.3769 0.0459-0.64218 0.1397-1.7869 0.20851-2.5437 0.0688-0.75683 0.18139-1.8736 0.24977-2.4812 0.0688-0.60757 0.1814-1.5367 0.25062-2.0642 0.0692-0.52751 0.17264-1.2877 0.22977-1.6888 0.0571-0.40158 0.17974-1.1989 0.27189-1.7722 0.0926-0.57338 0.25979-1.5491 0.37196-2.1684 0.11259-0.61925 0.30024-1.595 0.41742-2.1684 0.11759-0.57338 0.32609-1.54 0.4637-2.1476 0.13761-0.60757 0.37196-1.5838 0.52083-2.1684 0.14887-0.58506 0.36404-1.4012 0.4783-1.814 0.11426-0.41283 0.34028-1.1914 0.50207-1.7306 0.16179-0.53919 0.43076-1.3928 0.59797-1.8974 0.1668-0.50457 0.4391-1.2927 0.60507-1.7514s0.43785-1.1813 0.60465-1.6054c0.1668-0.42451 0.46329-1.1468 0.65886-1.6054 0.19557-0.4587 0.5275-1.2002 0.73726-1.6472 0.20975-0.44745 0.54793-1.1338 0.75187-1.5262 0.20391-0.39198 0.52376-0.98288 0.71099-1.3136 0.18723-0.33027 0.47329-0.81645 0.6355-1.08 0.16221-0.26397 0.45745-0.7235 0.65636-1.0216 0.19849-0.29816 0.55752-0.80483 0.7977-1.1259 0.23977-0.32109 0.58254-0.75855 0.76185-0.972 0.17931-0.21351 0.50665-0.58338 0.72724-0.82193 0.22059-0.23811 0.58589-0.6034 0.81188-0.81105 0.22601-0.20767 0.56378-0.50082 0.7506-0.65135 0.18681-0.15054 0.56253-0.42326 0.83527-0.60632 0.2723-0.18306 0.68513-0.42784 0.9174-0.5446 0.23186-0.11634 0.58547-0.2748 0.78563-0.35237 0.19974-0.0771 0.5471-0.18598 0.77145-0.24186 0.22435-0.0555 0.5938-0.12384 0.8211-0.15178 0.24269-0.0296 0.59547-0.04 0.85485-0.025 0.24269 0.0142 0.59922 0.0555 0.79147 0.0922 0.19266 0.0367 0.5492 0.13177 0.7923 0.21142 0.24353 0.0796 0.66762 0.25562 0.94283 0.39114 0.27522 0.13595 0.69764 0.37614 0.93825 0.5346 0.24102 0.15804 0.58338 0.40032 0.76147 0.53793 0.17764 0.13761 0.53626 0.44118 0.79688 0.6747s0.66053 0.62592 0.88905 0.8715c0.22851 0.24603 0.58047 0.64385 0.78232 0.88485 0.20141 0.24061 0.54878 0.6818 0.77228 0.97995 0.22309 0.29816 0.56462 0.77813 0.75892 1.0671 0.19433 0.28857 0.53876 0.8223 0.76478 1.1864 0.27813 0.44745 0.51291 0.76815 0.72516 0.99038 0.17222 0.18056 0.45328 0.41992 0.62466 0.53251 0.17097 0.11217 0.45286 0.26313 0.62634 0.33526 0.17347 0.0721 0.48455 0.16638 0.69138 0.20892 0.20683 0.043 0.54502 0.0776 0.75143 0.0776 0.20642 0 0.54418-0.035 0.7506-0.0776 0.20642-0.043 0.49706-0.1276 0.64552-0.18807 0.14887-0.0609 0.3999-0.18723 0.55753-0.28105 0.15803-0.0938 0.42784-0.30441 0.60006-0.46788 0.17222-0.16346 0.39573-0.41283 0.49664-0.55419 0.10051-0.14136 0.25563-0.41366 0.34361-0.60507 0.0884-0.1914 0.19599-0.47913 0.23894-0.63967 0.0609-0.22601 0.0784-0.43743 0.0784-0.93825 0-0.4758-0.0184-0.71224-0.0697-0.89655-0.0383-0.13761-0.1101-0.35904-0.15972-0.49164-0.05-0.13302-0.2673-0.53334-0.4833-0.88988-0.21601-0.35653-0.59798-0.9558-0.849-1.3315-0.25103-0.37572-0.63801-0.9324-0.86025-1.2368-0.22226-0.30483-0.61507-0.8169-0.87277-1.1388-0.25812-0.32151-0.70306-0.8469-0.98955-1.1676-0.28649-0.32025-0.82815-0.8832-1.2043-1.251-0.37572-0.36738-0.90825-0.85567-1.1834-1.0846-0.27522-0.22935-0.65052-0.53084-0.834-0.67011-0.18348-0.13928-0.55878-0.40366-0.834-0.58755-0.27522-0.1839-0.65052-0.42492-0.834-0.53543-0.18348-0.1105-0.61925-0.34611-0.96788-0.52333-0.34903-0.17723-0.87615-0.417-1.1709-0.53334-0.29482-0.11634-0.71224-0.26855-0.927-0.33903-0.21517-0.0701-0.61591-0.18431-0.8907-0.25395-0.27522-0.0692-0.76395-0.17055-1.0867-0.22518-0.32235-0.0546-0.849-0.11926-1.1701-0.14344-0.32109-0.0242-0.81817-0.0413-1.105-0.0384zm-16.044 85.245c0.0976 0.0137 0.61841 0.0717 1.1572 0.12927 0.53918 0.0575 1.4962 0.15137 2.1267 0.20892 0.63093 0.0575 1.7944 0.15053 2.5854 0.20725 0.79148 0.0567 2.0016 0.13219 2.6897 0.16763 0.68804 0.0358 1.7014 0.0842 2.2518 0.10801 0.55043 0.0238 2.4365 0.0538 4.1908 0.0676 2.0258 0.0154 3.8218 0.007 4.9206-0.0242 0.95205-0.0267 2.3218-0.0763 3.0441-0.11051 0.72266-0.0337 1.7547-0.0896 2.2935-0.12385 0.53918-0.0342 1.4678-0.10008 2.0641-0.14595 0.59632-0.0463 1.5908-0.13135 2.2101-0.18973 0.61925-0.058 1.5379-0.15095 2.0417-0.206 0.50372-0.055 0.9216-0.0942 0.92865-0.0872 0.007 0.007-0.083 0.44244-0.20058 0.96787-0.1176 0.525-0.34361 1.4791-0.5029 2.12-0.1593 0.64092-0.40032 1.5696-0.53585 2.0642-0.13552 0.49414-0.36112 1.2831-0.50165 1.7535-0.14053 0.46995-0.40658 1.3144-0.59089 1.8765-0.18432 0.56169-0.49373 1.4608-0.68763 1.9974-0.19349 0.53667-0.52167 1.3999-0.7285 1.9182-0.20725 0.51833-0.55545 1.3456-0.77393 1.839-0.21808 0.49289-0.59088 1.2906-0.82777 1.7722-0.23644 0.48163-0.58797 1.1663-0.78105 1.522-0.19266 0.35528-0.50624 0.90907-0.69681 1.2302-0.19016 0.32109-0.55628 0.90277-0.81315 1.2927-0.25688 0.38989-0.64176 0.94327-0.85485 1.2302-0.21309 0.28647-0.56754 0.73684-0.78773 1.0008-0.21976 0.26396-0.56503 0.6576-0.76725 0.8757-0.20224 0.21767-0.56837 0.58129-0.8136 0.80775-0.24561 0.22685-0.61507 0.54377-0.82147 0.70515-0.20642 0.16095-0.57212 0.42325-0.81315 0.58296-0.24061 0.1593-0.67679 0.40782-0.9687 0.55211-0.29231 0.14429-0.74267 0.32985-1.0008 0.41158-0.25854 0.0821-0.63884 0.18181-0.84525 0.22101-0.24561 0.0471-0.59131 0.0726-1.0008 0.0743-0.44285 0.002-0.74726-0.0208-1.0425-0.0759-0.22935-0.043-0.61382-0.1422-0.85485-0.22059-0.24061-0.078-0.64427-0.24144-0.89655-0.36321-0.25229-0.12135-0.63342-0.32859-0.8469-0.4612-0.2135-0.13219-0.57504-0.37947-0.80355-0.54961-0.22852-0.16972-0.58839-0.46287-0.80025-0.65093-0.21184-0.18765-0.57046-0.53001-0.79733-0.76065-0.22684-0.23018-0.61966-0.66261-0.87277-0.96075-0.25354-0.29816-0.6572-0.80483-0.89738-1.1259-0.23977-0.32109-0.64635-0.90278-0.90322-1.2927-0.25688-0.3899-0.623-0.97163-0.81315-1.2927-0.19057-0.32109-0.50457-0.87488-0.69764-1.2302-0.19349-0.3557-0.54502-1.0404-0.78143-1.522-0.23644-0.48164-0.6084-1.2794-0.82687-1.7722-0.2181-0.49331-0.56546-1.319-0.77145-1.8348-0.206-0.51625-0.52459-1.351-0.70765-1.8556-0.18348-0.50457-0.49415-1.4053-0.69014-2.0016-0.19641-0.59631-0.46912-1.4595-0.60548-1.9182-0.13678-0.4587-0.35403-1.2143-0.48247-1.6792-0.12885-0.46454-0.37279-1.4028-0.5421-2.085-0.16971-0.6818-0.40407-1.6676-0.52083-2.1905-0.11718-0.52291-0.21267-0.9612-0.21267-0.9741s0.0796-0.0125 0.17723 0.002zm62.182-85.065c-0.57338-0.007-1.1176-0.005-1.2093 0.004s-0.41075 0.0463-0.7089 0.0826c-0.29816 0.0363-0.71349 0.10091-0.92325 0.14386-0.20975 0.043-0.56629 0.1251-0.7923 0.18223-0.22602 0.0575-0.65511 0.18682-0.95325 0.28773-0.29815 0.10091-0.71099 0.25354-0.9174 0.33943-0.20641 0.0859-0.62842 0.2844-0.93825 0.4416-0.30941 0.15721-0.7881 0.4266-1.0634 0.5984-0.27522 0.17139-0.71933 0.47747-0.987 0.67971-0.26771 0.20183-0.70223 0.56129-0.96615 0.79815-0.26355 0.23727-0.6672 0.64051-0.897 0.89655-0.22977 0.25603-0.54376 0.62508-0.69848 0.82028-0.15428 0.19473-0.4416 0.59922-0.63884 0.89819-0.19682 0.29899-0.47496 0.75975-0.61841 1.0241-0.14303 0.26396-0.35194 0.68554-0.46453 0.9366-0.11218 0.25103-0.29232 0.70014-0.40032 0.99832-0.10801 0.29816-0.26856 0.8244-0.35654 1.1697-0.0884 0.34527-0.19807 0.85192-0.24436 1.1259-0.0463 0.27396-0.10759 0.70472-0.13719 0.957-0.0296 0.25728-0.0518 0.88859-0.0497 1.4386 0.002 0.63134 0.0275 1.1743 0.0709 1.5258 0.0371 0.30023 0.11551 0.7923 0.17431 1.0933 0.0588 0.30108 0.18056 0.80895 0.27105 1.1292 0.0905 0.32025 0.26646 0.8415 0.39073 1.1588 0.12426 0.31692 0.30024 0.73559 0.39114 0.93075 0.0905 0.19474 0.26355 0.53251 0.38406 0.7506 0.12051 0.21767 0.37363 0.6305 0.56253 0.9174 0.18849 0.28648 0.51041 0.73684 0.71474 1.0008 0.20433 0.26354 0.67179 0.78142 1.0388 1.15 0.36696 0.36862 0.8736 0.83445 1.1259 1.035 0.25228 0.20016 0.67512 0.51124 0.9399 0.69097 0.26438 0.17973 0.72349 0.46245 1.02 0.62841 0.29607 0.16555 0.73642 0.39032 0.9783 0.49915 0.24186 0.10884 0.64593 0.2748 0.8982 0.36947 0.25228 0.0947 0.68388 0.23852 0.9591 0.31984 0.27522 0.0813 0.7731 0.20307 1.1067 0.27062 0.33319 0.0676 0.8586 0.15429 1.1676 0.19266 0.38781 0.0484 0.87697 0.0701 1.583 0.0701 0.70556 0 1.1955-0.0217 1.5846-0.0701 0.30983-0.0384 0.7602-0.108 1.0008-0.15387 0.24103-0.0463 0.68722-0.14929 0.99247-0.22935 0.30483-0.0797 0.78728-0.22977 1.0721-0.33277 0.2848-0.10342 0.74392-0.28898 1.02-0.41241 0.27605-0.12343 0.71307-0.34027 0.9708-0.48247 0.25812-0.14178 0.70431-0.41408 0.99165-0.60465 0.28731-0.19056 0.68137-0.47163 0.8757-0.62467 0.19432-0.15303 0.56295-0.4662 0.819-0.69597 0.25604-0.22976 0.65302-0.62716 0.88192-0.8832 0.22935-0.25603 0.51876-0.59714 0.64344-0.75772 0.12468-0.16055 0.33943-0.45161 0.47704-0.64635 0.13803-0.19516 0.36363-0.5421 0.50165-0.77145 0.13803-0.22935 0.36571-0.64635 0.50624-0.92655 0.14053-0.28022 0.32401-0.67429 0.40783-0.8757 0.0838-0.20141 0.23477-0.61007 0.33568-0.90825 0.10092-0.29815 0.24019-0.76605 0.30942-1.04 0.0692-0.27356 0.17013-0.76148 0.22434-1.0842 0.0542-0.32235 0.12177-0.85613 0.14929-1.1864 0.0321-0.37864 0.0412-0.9249 0.0254-1.4804-0.0137-0.48415-0.0542-1.0963-0.0901-1.3598-0.0355-0.26396-0.10342-0.67679-0.15054-0.9174-0.0471-0.24103-0.15179-0.68179-0.23268-0.97995-0.0809-0.29816-0.23103-0.77392-0.3336-1.058-0.10217-0.28356-0.30316-0.77145-0.44619-1.0842-0.14303-0.31233-0.37906-0.77475-0.52417-1.027-0.14512-0.25228-0.41033-0.67471-0.58922-0.93825-0.1789-0.26396-0.46787-0.65803-0.64177-0.8757-0.17389-0.21809-0.52208-0.61508-0.77355-0.88237-0.25144-0.26731-0.65761-0.65929-0.9024-0.87068-0.2452-0.21142-0.65344-0.53835-0.9078-0.72641-0.25396-0.18765-0.66845-0.47079-0.9207-0.62884-0.25228-0.15763-0.72141-0.4195-1.0425-0.58171s-0.83025-0.3924-1.1313-0.51125c-0.30149-0.11884-0.79852-0.2919-1.105-0.38489-0.30691-0.093-0.82395-0.22435-1.1497-0.29273-0.32609-0.068-0.82312-0.15387-1.105-0.19099-0.31983-0.0421-0.90569-0.0721-1.5554-0.0797zm-0.24895 7.4889c0.27564-0.002 0.66053 0.0154 0.85485 0.0392s0.55962 0.0972 0.81188 0.16264c0.25228 0.0655 0.63217 0.1939 0.84442 0.28522 0.21225 0.0917 0.52542 0.24645 0.69639 0.34444 0.17097 0.0976 0.46704 0.29524 0.65844 0.43869 0.19141 0.14344 0.5271 0.44785 0.74643 0.67596 0.21893 0.22851 0.51542 0.59005 0.65845 0.804 0.14303 0.21392 0.32651 0.52083 0.40783 0.68221 0.0813 0.16138 0.20933 0.45328 0.28439 0.64886 0.0751 0.19557 0.18806 0.58088 0.2502 0.85612 0.0863 0.37864 0.11884 0.65261 0.13427 1.1259 0.015 0.45787 0.002 0.75143-0.0488 1.0951-0.0379 0.25854-0.11635 0.63384-0.17431 0.834-0.0575 0.20058-0.16972 0.52375-0.24895 0.7189-0.0792 0.19474-0.23018 0.50457-0.33568 0.68805-0.10551 0.18348-0.32235 0.50666-0.48206 0.71807-0.15971 0.21142-0.4587 0.54336-0.66469 0.73726-0.20601 0.19349-0.54002 0.46579-0.74268 0.60465-0.20266 0.13887-0.53502 0.33611-0.7385 0.43868-0.20309 0.10217-0.51959 0.24103-0.70307 0.30816-0.18348 0.0671-0.50249 0.16138-0.7089 0.20892-0.20642 0.0475-0.58172 0.10884-0.834 0.13595-0.2673 0.0284-0.64718 0.0375-0.91035 0.0217-0.24853-0.0146-0.64176-0.0638-0.8736-0.10884-0.23185-0.0446-0.57295-0.13135-0.75765-0.19224-0.18473-0.0605-0.52334-0.19849-0.7527-0.30607-0.22935-0.10759-0.54961-0.28106-0.71182-0.38573-0.16222-0.10425-0.46454-0.33193-0.67179-0.50582s-0.50832-0.47163-0.66928-0.66178c-0.16055-0.19015-0.38614-0.48664-0.50082-0.65844-0.11467-0.17222-0.28481-0.46453-0.3778-0.64968-0.093-0.18557-0.23561-0.52793-0.3165-0.76058-0.0809-0.23269-0.18556-0.62133-0.23228-0.86318-0.0467-0.24228-0.0963-0.65051-0.1105-0.9078-0.0142-0.26354-0.005-0.64718 0.0217-0.87989 0.0259-0.22685 0.0759-0.55086 0.11051-0.72016 0.035-0.16889 0.11134-0.45245 0.1693-0.63009 0.058-0.17723 0.21475-0.54753 0.34819-0.82275 0.13386-0.27522 0.36238-0.66887 0.50791-0.87488 0.14553-0.20599 0.44327-0.55378 0.66094-0.7731 0.2181-0.21934 0.52542-0.49456 0.68346-0.61132 0.15805-0.11718 0.43452-0.30024 0.61467-0.40741 0.17972-0.10717 0.50248-0.26813 0.71682-0.35737 0.21392-0.0896 0.55669-0.21058 0.76147-0.26938 0.20474-0.0584 0.54085-0.13219 0.74726-0.1643 0.20642-0.0317 0.60091-0.0596 0.87698-0.0617z"/>
 </g>

</g>
</svg>